<?xml version="1.0" standalone="no"?>
<!DOCTYPE svg PUBLIC "-//W3C//DTD SVG 1.1//EN" "http://www.w3.org/Graphics/SVG/1.1/DTD/svg11.dtd" >
<svg>
<metadata>
Created by FontForge 20090622 at Mon Dec  2 12:11:33 2019
 By deploy user
Copyright &#194;&#169; 2016 by Adam Ladd. All rights reserved.
</metadata>
<defs>
<font id="Active-Regular" horiz-adv-x="441" >
  <font-face 
    font-family="Active"
    font-weight="400"
    font-stretch="normal"
    units-per-em="1000"
    panose-1="0 0 5 0 0 0 0 0 0 0"
    ascent="750"
    descent="-250"
    x-height="409"
    cap-height="693"
    bbox="-162 -300.571 1170.76 898.259"
    underline-thickness="50"
    underline-position="-50"
    unicode-range="U+0020-U+E00C"
  />
<missing-glyph horiz-adv-x="500" 
d="M0 0v700h500v-700h-500zM250 395l170 255h-340zM280 350l170 -255v510zM80 50h340l-170 255zM50 605v-510l170 255z" />
    <glyph glyph-name="A_A.liga" unicode="AA" horiz-adv-x="869" 
d="M632 723q8 -6 47 -12q11 -2 12.5 -4t2.5 -12q2 -27 17 -84t17 -68q3 -17 18 -69.5t18 -81.5q2 -16 9.5 -48t9.5 -48q3 -22 16 -62t16 -55q1 -5 2 -16t1 -12q0 -7 1.5 -15t4 -17.5t3.5 -14.5q6 -29 1 -43q-1 -2 0 -6.5t1 -6.5q5 -27 5 -48q-8 5 -10 7.5t-4 12.5
q-9 40 -11 45v-17v-17.5v-14.5l1 -8q0 -8 -3 -10.5t-11 -1.5q-2 0 -9 -15q-9 6 -24 27q-17 27 -32 -2q-5 -8 -7 -8t-6 3q-2 2 -3 -2q-1 -1 -1 -2q-10 -15 -26 -7q-11 8 -14 17q-12 35 -13 45l-5.5 38t-6 43.5t-3.5 37.5q-1 35 -14 35q-2 0 -39 2t-43 1q-4 0 -13.5 1.5
t-14.5 1.5q-7 -32 -12 -75q-8 -54 -22 -96q-10 -29 -28 -53q-21 17 -20 42q1 10 14 76q3 18 9 49l9 46q3 11 1 14q-11 0 -35 2.5t-36 1.5q-7 0 -11 7q-2 2 0 3t8.5 1h10.5q8 1 13.5 0.5t8.5 1.5q5 0 5 2q1 2 -3 3.5t-10 1.5q-2 0 -19 -1t-25 -1q-22 2 -32 -1q2 -9 4.5 -28
t3.5 -25q4 -19 13 -55t12 -47q1 -5 2.5 -15.5t2.5 -15.5q1 -11 -2.5 -15.5t-14.5 -9.5q-4 -2 -14 -9q-24 -14 -41 7q-15 18 -17 19q-5 -6 -4 -13q1 -4 1 -13q-22 -4 -31.5 1t-19.5 26q-10 23 -23 93q-15 67 -17 82l-2 16q0 6 -5 7q-3 1 -5 1q-19 4 -71 4q-13 0 -17 -14
l-16.5 -69.5t-19.5 -87.5q-1 -4 -3.5 -22.5t-6 -32t-8.5 -19.5q-5 -5 -5 5q1 15 -1 15q-13 -16 -16 -11q-1 2 -2 7q-2 12 -1 18q1 12 8 64t10 80q6 44 8 69q-18 2 -27.5 4t-21 10.5t-16.5 23.5q6 2 16.5 7t20 7.5t22.5 2.5q13 2 16 4t4 14q15 84 23 137q7 42 27 126
q3 11 9 39.5t10 44.5q1 3 2.5 9t2.5 8t4 6.5t7 3.5t11 -1q2 -1 4 3q8 11 13.5 12t16.5 -6q2 -1 6 -4.5t6 -4.5l10 5q9 5 14 7q8 3 20 -3t13 -15q3 -12 15.5 -54.5t15.5 -66.5q12 -91 11 -117q0 -13 2 -27.5t6.5 -33t5.5 -26.5q1 -5 5.5 -24.5l7.5 -31.5q3 -9 4.5 -12.5
t5.5 -5t12 -1.5q1 0 57 -4q11 0 32 -0.5t31 -1.5q12 0 15 12q7 31 19 95t20 96q5 22 13.5 79t15.5 86q0 6 6 10q5 -11 2 -26t-8 -47.5t-5 -51.5q5 18 16 70.5t16 73.5v23q-1 11 4.5 16t16.5 3q8 -4 12 1q1 4 6 4t9 -3zM170 609q-21 -72 -29 -148q-2 -17 -14 -71t-11 -83
q10 -1 34.5 -1t36.5 -2q-6 60 -11 175t-6 130zM597 553q-4 0 -11 -31t-15 -74t-11 -55t-10.5 -34t-12.5 -40.5t-7 -35.5q11 -2 46 -2t45 -1q4 -1 6 1.5t1 6.5q-2 16 -2 25q1 29 -12 110q-8 52 -17 130zM548 522q-10 -29 -8 -50q1 2 4 12t3.5 12t2 12.5t-1.5 13.5zM752 375
q-5 8 -4 -8q1 -7 46 -225q-1 35 -7.5 73t-18.5 88t-16 72zM800 126q-2 0 -3 -5t0.5 -10.5t5.5 -6.5q2 11 -3 22z" />
    <glyph glyph-name="B_B.liga" unicode="BB" horiz-adv-x="933" 
d="M600 727q47 0 71 -2q30 -3 59 -18q23 -13 35 -10q7 2 25.5 -12.5t32.5 -36.5q6 -9 8 -23q6 -40 8 -61q1 -16 -8 -33q-7 -13 -24.5 -27.5t-21.5 -22.5q-5 -11 -28.5 -30.5t-38.5 -26.5q13 -2 36.5 -14t30.5 -15q2 -1 11.5 -3.5t19.5 -6t16 -7.5q5 -4 11.5 -11t10.5 -10
q36 -25 34 -77q-2 -39 -24 -99q-11 -30 -22 -45q-25 -31 -31 -35q-13 -9 -17.5 -18t-12.5 -16q-7 -7 -45 -30q-13 -7 -29 -7q-15 0 -33 -12q-10 -6 -39 -11q-3 -1 -9 0t-7 4t12 9q10 2 15 4q10 2 9 12q-5 -1 -17 -2t-18 -3t-13 -3t-10 -2q-12 -6 -16 -17t-6 -13
q-5 -4 -13.5 1t-13.5 5q-4 0 -7.5 2t-5 4t-3 1.5t-3.5 -4.5q-29 8 -37 32q-5 12 -5 33q-2 106 0 159q1 32 0.5 96.5t0.5 96.5q2 37 2 110q0 9 8 92q1 4 1.5 13t0.5 13q3 23 -15 25q-8 2 -8 10q2 7 8 11q54 28 115 31zM13 689l163 21q60 6 112 -14l29 -10q56 -20 47 -80
q-9 -44 -21 -57q-36 -41 -63 -61q-5 -4 -15.5 -10.5l-15.5 -9.5l-5 -2q-4 -2 -6 -4t-2 -6q0 -9 -8 -7q-10 1 -22 -9t-15 -11t-5.5 -8t-6.5 -10q60 -4 91 -7q57 -7 72 -14q48 -19 87 -55q16 -19 10 -43q-4 -18 -22 -55q-8 -16 -18.5 -30t-26 -31.5t-21.5 -25.5
q-26 -35 -63 -65q-4 -3 -8.5 -6l-10 -6.5l-8.5 -5.5q-75 -60 -91 -70q-10 -6 -27.5 -18t-21.5 -15q-5 17 -5 18q-2 9 -7 10q-15 0 -23 21l-2 2q-1 2 -2 3q-4 -2 -14.5 -15t-22.5 -14l-4 28l-15 100v6.5t1 6.5q7 24 7 106q0 85 -1 128l-3 114q-2 20 3 41q3 8 3 33
q0 13 0.5 38.5t1.5 38.5q-1 10 -3 12t-11 4q-21 0 -28 -3q-10 -4 -16 9q0 1 -1.5 7.5l-2.5 10.5q-2 12 10 15q4 0 13 2t14 3zM630 680q-36 2 -51 -5q1 -1 3 -4.5t3 -4.5t5 2q6 6 18 2q11 -4 15 -15q5 -16 3 -39q-1 -13 -2.5 -54t-4.5 -66q-6 -68 -4 -76q7 1 23 12t19 12
q16 5 30 17t29 29t21 22t11 15.5t7 17.5t5 22l3 15q3 13 -5 39q-2 2 1 4q2 0 4 -4.5t6 -3.5q2 13 -4 18q-40 33 -72 40q-26 5 -63 5zM161 649q-12 -3 -11 -14q-3 -131 -4 -146q-3 -24 -1 -29q39 16 47 32q1 2 7 5q14 11 28 26t21 25t21.5 32.5l18.5 28.5q14 22 -12 25
q-24 0 -55 14q-20 11 -60 1zM777 609q8 -18 0 -42q24 16 0 42zM689 384q-6 -3 -23 -3q-3 0 -14 -4.5t-21 -6.5q-12 -2 -13 -5q-1 -2 -1 -8q3 -110 0 -167q0 -12 -0.5 -52t-1.5 -62q40 18 49 25q15 12 29 16q20 7 36 29q-11 -2 -22 -12.5t-13 -10.5q-3 3 -1 6q2 2 2 3
q3 8 11 17t19.5 19.5t16.5 15.5q27 34 32 59q4 28 1 48q-1 11 -5 20t-8 14t-13 14.5t-14 15.5q-12 12 -25 20q-15 10 -21 9zM200 368q-26 5 -53 -7q2 -2 9 -3t8 -6q-2 -3 -9 -4t-9 -2q-2 -11 1 -68q-1 -13 1 -36t2 -33q0 -12 5 -67q0 -4 1 -29t4 -38q3 2 23 18t32 21
q11 3 14 14q1 3 2.5 6l3 6t2.5 4l25.5 42.5t29.5 54.5l6 18t7.5 21.5t7.5 17.5q5 11 4 16.5t-12 15.5q-7 9 -23 12q-17 5 -72 5q-9 1 -18 8q8 0 26 -1.5t25.5 -2t26.5 1.5q-7 12 -22 8q-22 -1 -48 7z" />
    <glyph glyph-name="C_C.liga" unicode="CC" horiz-adv-x="917" 
d="M652 732q4 3 18.5 1.5t18 -2t17.5 -3.5t18 -4q8 -2 12 -2q32 0 61 -24q16 -10 22.5 -14.5t15 -13t15.5 -20.5q16 -29 18 -36q4 -19 -5 -24q-5 -3 -5 -10q-2 -19 -28 -34q-5 -2 -15 -15.5t-11 -14.5q-4 1 -6.5 6.5t-4 14t-2.5 10.5q-3 3 -2 19t0 20t-2 13.5t-2 14
t-3.5 11.5t-7.5 12q-17 19 -30 25q-17 7 -42 14q-27 7 -45 -6q-6 -4 -26 -102q-3 -14 -6.5 -43l-4.5 -37q-4 -21 -4 -80q0 -72 -2 -109q-1 -10 0.5 -51.5t5.5 -55.5q19 -69 42 -94q22 -25 43 -35q4 0 6 1q49 14 131 67q2 1 6.5 7t7.5 7q6 1 14 7.5t12 8.5q-1 -42 -31 -70
q-10 -10 -14 -16q-9 -15 -51 -46q-4 -3 -18 -8q-32 -10 -38 -16q-12 -13 -33 -6q-39 11 -65 11q-7 0 -14 3t-15.5 8.5t-12.5 7.5q-29 15 -41 31q-11 13 -21 10q-3 -3 -6 3q-3 5 -13 14.5t-14 16.5q-24 41 -29 94q-6 55 6 178q5 54 14 93q3 5 2 7q-6 11 -6.5 22t2.5 27t4 22
q7 46 22 81q17 41 34 53q7 6 27 18.5t30 20.5q7 5 15.5 7.5t19.5 3t16 1.5zM228 714q64 12 129 -25q29 -18 31 -55q7 -154 -13 -149q-3 1 -6 5q-6 7 -7.5 5.5t-1.5 -8.5v-6t-1 -5t-2 -4q-3 -3 -4.5 -9t-3.5 -8q-9 9 -15 21.5t-8 21t-4.5 25.5t-3.5 23q-7 35 -10 78
q-2 28 -29.5 42t-54.5 1q14 -2 15 -2q3 -3 0 -5q-21 -14 -30 -44q-2 -7 -7.5 -20.5t-9 -24.5t-4.5 -21q-2 -16 -11 -46t-11 -45q-8 -36 -10 -55q-3 -19 -2 -71.5t0 -61.5q-2 -15 -2 -18q3 -13 1 -48q-1 -6 6 -17.5t7 -16.5q5 -53 23 -83q17 -30 48 -26l41 3q6 0 18 8
q40 24 58 40q23 15 27 19q5 5 17 15.5t19 17.5q12 12 25 14q2 -4 -3 -15t-1 -14v-3l-1 -2q-4 -5 -13 -11t-11 -10q-3 -4 -5.5 -9.5t-4.5 -9t-5 -7.5q-3 -3 -6 -5.5l-7.5 -6t-6.5 -5.5t-5.5 -6.5t-4.5 -6.5q-32 -35 -48 -43q-23 -11 -52 -32q-8 -6 -56 -23q-9 -3 -21.5 -1.5
t-19.5 -2.5q-1 0 -10 3q-10 4 -14 0q-1 -3 -5 -3l-24.5 8t-25.5 9t-24 22.5t-19 30.5q-25 55 -28 90q-2 52 -7 66q-2 5 -2 16t-3 17q-7 11 -2 27q3 11 3 33q5 123 8 138q2 11 2.5 33.5t3.5 34.5q17 89 73 176q2 2 4 3q1 0 2 -1t2 -1q10 -10 16 2q12 19 35 36q8 5 10 4
q18 -2 21 -2.5t20.5 3t20.5 3.5zM627 709q-5 1 -12 -6l-4 -8l8 3q1 1 4 2t5 2.5t2 4.5q0 2 -3 2zM615 35q5 -6 11.5 -7t15 0.5t13.5 0.5q-18 19 -40 6z" />
    <glyph glyph-name="D_D.liga" unicode="DD" horiz-adv-x="1025" 
d="M569 731q13 0 44 -9q17 -6 18 -22t19 -16q29 0 70 -9q35 -7 74 -20q7 -3 20 -3q30 3 43 -23q4 -8 15 -16q2 2 3.5 8t4.5 8q21 -6 28 -19q1 -3 5.5 -15t9 -22t8.5 -14q39 -41 33 -93q-2 -14 -3 -39.5t-2 -33.5q-7 -64 -13 -87q-3 -10 -8.5 -33.5t-6.5 -27.5q-7 -5 -11 -18
q-8 -30 -40 -56q-8 -6 -12 -8q-14 -6 -17 -18q-1 -5 -7 -9l-97 -80q-5 -4 -17.5 -10.5t-18.5 -11.5q-13 -12 -32 -19q-3 -2 -18 -6q-1 0 -5 -1t-5.5 -1t-4.5 -1.5t-4.5 -3t-3 -4t-1.5 -6.5q-1 -6 -10 -3l-9 6l-9 6q-3 -1 -8 -5t-8 -5q-14 -5 -21 1q-11 9 -25 7q-19 0 -27 20
q-9 20 -7 44q6 79 3 159q0 20 0.5 43t1.5 51t1 43q2 40 -1 73q-1 12 4 69q6 69 9 138q0 9 -2 11q-25 5 -29.5 9.5t-6.5 23.5q39 0 48 2q2 9 -7 21t-10 17q14 0 32 7q2 1 13 1zM93 720q12 -3 34.5 -5.5t31.5 -4.5q12 -2 116 -21q4 -1 16 -2t18 -3q68 -19 92 -77q8 -20 12 -40
q2 -9 9 -9q5 0 9 -11q20 -60 12 -122q-6 -42 -4 -64q0 -3 -2 -9q-22 -92 -59 -155q-6 -8 -6 -11q-2 -19 -24 -42.5t-24 -26.5q-3 -5 -9 -3q-4 1 -3.5 5.5t-1.5 7.5q-19 -29 -23 -33q-34 -40 -46 -52q-29 -26 -52 -39q-12 -7 -14.5 -12.5t-1.5 -19.5q-40 0 -52 -4
q-24 -11 -35 9q-3 -1 -4.5 -2.5t-3 -4t-2.5 -3.5q-2 -1 -5.5 -4t-5.5 -4.5t-6.5 -2.5t-8.5 1q-20 7 -19 26q1 15 0 47.5t1 47.5q5 54 -1 103q-7 64 -7 140q1 17 0 47t-1 39q0 101 4 130q2 11 0 32t-1 31q2 18 6 22t4 29v21h-22q-8 1 -9 3t4 11q9 19 41 17q20 -2 29 1
q2 1 2 5q-3 11 -1 13t13 -1zM137 668q-20 -2 -11 -16q6 -10 7.5 -31t5.5 -29q-1 -65 4 -158q0 -8 1 -55t4 -72q1 -5 3 -44.5t8 -59.5q1 -1 1 -3q-2 -17 1.5 -48t3.5 -38q0 -15 4 -23q5 5 43 63q-4 1 -10 -2t-10 -2q1 3 6 8l11 8.5t12.5 10.5t9.5 11q55 92 89 189q6 20 6 31
q0 2 1.5 30.5t1.5 42.5q2 24 -1 36q-17 62 -55 109q-3 3 -10 9q-41 29 -71 27q-1 0 -5 2q-4 0 -22 2.5t-28 1.5zM641 649l2 -7q5 -4 14 -30q3 -10 4.5 -27.5t2.5 -23.5q3 -25 1 -58l-1 -19q0 -19 1 -20q3 -28 -1 -52q-4 -25 -5 -35l-3 -64q-2 -20 1 -30q5 -16 1 -42
q-2 -26 -2 -38q-2 -70 -2 -105q-2 -11 4 -15q2 2 23 18t29 28q9 13 33 41t35 48q30 53 40 96q15 70 18 125q3 64 -18 118q-23 57 -46 70q-46 26 -131 22zM306 624q-2 -3 2 -7q1 -1 2.5 -3.5t2.5 -3.5q4 14 -7 14zM421 531q-2 -14 3.5 -39t5.5 -33q4 21 -9 72zM895 236
q-10 -14 -38 -35.5t-39 -42.5q50 34 77 78zM678 36q-7 -1 -9.5 -2t-4.5 -3t-5 -8l6 3t7 4t6 6z" />
    <glyph glyph-name="E_E.liga" unicode="EE" horiz-adv-x="815" 
d="M689 711q4 -6 19 -6q3 -1 9.5 -1h10.5q18 -2 25 -8q12 -10 10 -18q-3 -10 -17 -10q-46 -4 -69 -5q-34 -2 -130 -15q-15 -3 -6 -15q7 -9 5 -28q-2 -16 -1.5 -23t2 -23t1.5 -23q2 -65 -5 -105q-1 -7 -1 -43h74h34q30 -2 39 -1q6 1 12 0q1 -1 5.5 -1.5t6.5 -2t2 -4.5
q0 -5 -5.5 -9.5t-9.5 -5.5q-32 -5 -41 -10q-13 -8 -29 -2q-14 4 -24 0q2 -4 13 -4t12 -5q-10 -7 -34 -7q-13 0 -37 -4q-3 0 -7 -0.5t-5 -1t-3.5 -1t-3 -2t-1 -4t-0.5 -6.5q0 -20 5 -47q4 -16 4.5 -48t3.5 -47q0 -11 3 -14q4 -5 3 -9q-4 -11 -4 -28.5v-28.5q-5 -43 -9 -52
v-1.5t0.5 -2.5t0.5 -4q22 1 62.5 9.5t48.5 9.5h28q32 3 57 2q18 -1 24.5 -6.5t12.5 -25.5q-13 -2 -35.5 -6t-41.5 -6.5t-37 -2.5q-15 0 -55 -6.5t-62 -4.5v-8q6 -14 -3 -19q-11 -7 -25 4q-2 2 -4.5 5.5t-5 6t-6.5 3.5l-1 -1q-1 -1 0 -2q0 -17 -5 -19q-11 -4 -22 7
q-4 4 -10 14q-5 8 -9 8q-8 0 -13.5 4.5t-7 8l-5.5 12.5q-2 7 -4 19q-1 20 -3.5 60.5t-3.5 60.5q-2 19 7 67q5 29 3 96q-9 0 -18 1.5t-15 3.5l-5 1q-2 0 -28 2t-46.5 3t-31.5 -3q-3 -1 11 -3q8 -1 27 -3l31 -4q-8 -4 -31 -4q-4 0 -24.5 -2.5t-31.5 -1.5q-17 1 -45 -2t-38 -3
q-9 -1 -11.5 -4t-2.5 -14q2 -51 -4 -98q-8 -57 -8 -129q0 -1 0.5 -4.5t0.5 -5.5q28 -3 63 4q9 2 14 -2q11 -10 32 -6q12 3 38 3t38 3h4q11 -2 11 -8q0 -5 -10 -7q-7 0 -35 -10q-12 -5 -10 -13q1 -4 -5 -6q-60 -10 -91 -12q-116 -6 -178 -26q-18 -4 -27 -4q-10 0 -14 4
q-11 11 -10 15t13 9q10 3 30 8.5t30 8.5q3 1 9.5 2.5t9.5 2.5q-6 2 -13.5 6.5t-10.5 5.5q-17 -2 -23.5 8t-6.5 37q-3 31 1 75q2 47 2 138q0 9 -3 10q-17 4 -22 14q-3 5 -12 4t-15 0q7 16 44 35q8 4 8 12v41q0 26 5 32q1 2 1.5 7t0.5 6q0 12 2 51t2 60q0 7 2.5 24t2.5 26
q0 4 4 10t3 10q0 2 -7 5q-10 6 -8 25q1 11 15 14q101 16 149 19q20 1 129 -1q34 0 38 1q-8 -11 -21 -11q-4 0 -8.5 -5t-7.5 -6q8 0 11 -1t1 -3q-13 -9 -22 -9q-10 0 -27 -4.5t-30 -1.5q-9 2 -51 -6t-57 -14q3 -11 6 -31t5 -29q11 -43 14 -81q1 -13 -0.5 -36.5t-1.5 -30.5
v-33q0 -12 13 -11q23 4 77 2q2 0 9 1t9 1q19 2 45 -1.5t36 -3.5q39 0 60 -1q10 -1 12 1t3 12q2 20 4 122l3 105q0 10 1 15q2 11 11 8q8 -2 10.5 -2t9.5 3t11 4q-8 11 -18 14t-26 2t-22 -1q8 22 25 28q29 10 37 9q1 0 16 6q18 8 29 -7q5 -7 25 -1q13 2 31.5 3.5t28.5 2.5
q5 1 12.5 1t13.5 1t12 4q4 0 13 3t14 3t12 -6zM171 660q-4 -1 -12.5 -1t-15.5 -2t-12 -7q16 -2 40 10zM742 383q2 -1 2 -5t-2 -5q-15 -6 -19 7q9 9 19 3zM692 356q5 0 6 -4q1 -2 -3 -6q-15 -7 -24 6l12 2.5t9 1.5z" />
    <glyph glyph-name="F_F.liga" unicode="FF" horiz-adv-x="763" 
d="M82 712q11 -13 14 -27q9 0 19 1.5t22 4t18 3.5q14 2 43.5 5t44.5 5q18 3 52 3.5t48 2.5q8 2 10 -2q2 -6 -6 -10q-20 -13 -27 -31q-6 -11 -19 -14q-44 -8 -68 -6q-18 1 -24.5 0.5t-24.5 -3.5l-24 -4q-21 -3 -30 -1q-7 2 -12 -1q-4 -27 -1 -57q2 -20 3 -67t4 -72
q1 -15 19 -11q38 8 74 9q5 0 12 0.5t10.5 0.5h8t6.5 -0.5t4.5 -2t4.5 -3.5q-4 -4 -7.5 -17.5t-5.5 -17.5q-2 -3 -7 -4.5t-8 -3t-1 -3.5q8 -9 8 -11t-10 -5q-9 -3 -30.5 -4t-29.5 -4q-22 -6 -33 -8q-12 -3 -11 -16q4 -82 9 -110q3 -22 7 -61q0 -4 2 -35t6 -46q4 -13 1 -28
q-2 -10 -2 -28q1 -9 -1.5 -26.5t-2.5 -21.5q0 -6 -2.5 -8.5t-7.5 -4t-7 -2.5q-8 -14 -16 5q0 8 -10 15t-11 13q0 11 -11 5q-14 -10 -35 -1q-11 5 -14 9t-3 16v92q0 15 -0.5 32t-1.5 37.5t-1 31.5q-1 19 1.5 57.5t1.5 58.5q0 8 -4.5 11t-10.5 4t-7 2q-3 2 -4.5 14t-5.5 15
q-11 8 7 17q1 1 10.5 3t11.5 4q0 90 -1 133q0 26 -4 73.5t-4 68.5q0 14 10 18q13 6 16 -5q3 -9 12 -13q-1 10 1.5 14t13 8t11.5 4zM710 701q13 0 15 -4q4 -10 -5 -18q-3 -3 -7 -5q2 -4 13 -13.5t12 -18.5q-2 -2 -13 -2l-6 -3q0 -5 -1.5 -7.5t-3.5 -2.5t-5.5 1.5t-4.5 1.5
q-57 6 -82 11q-22 4 -51 -5q-29 -8 -66 -13q-11 -1 -12 -2.5t0 -11.5q1 -2 1 -6.5t1 -6.5q3 0 4 5t6 6q6 -94 5 -178q8 0 26.5 3.5t28.5 1.5q4 -6 -3 -12t-7 -8q10 -1 23 2q33 7 54 -13q3 -3 6.5 -10t5.5 -10q-8 -7 -16.5 -11t-22 -6t-17.5 -2.5t-22 -1.5h-19q-18 -2 -27 -5
q-11 -3 -10 -13q0 -8 1 -11q9 -44 7 -104q0 -8 -3.5 -86.5t-2.5 -104.5q1 -29 -11 -85q-1 -6 -9 -14q-7 -5 -12 -1l-6 5q-5 5 -5.5 5t-6.5 3t-8 -1q-31 19 -35 39q-3 14 -15 17q-9 1 -16 13q-16 28 -15 57q4 104 4 215l1 117q0 116 -1 116q-2 43 7 112q3 29 4 33q1 6 8 9
q17 5 38 -5q1 1 2 3l2 2q1 2 1.5 5.5t2 6t4.5 2.5q17 2 23 -4q6 -9 21 -5q7 2 84 10q44 4 136 8z" />
    <glyph glyph-name="F_I.liga" unicode="FI" horiz-adv-x="578" 
d="M82 712q11 -13 14 -27q9 0 19 1.5t22 4t18 3.5q14 2 44 1t44 2q6 1 47 1.5t73 3.5q31 3 78 5.5t52 3.5q8 2 10 -2q1 -2 0 -3.5t-3 -3.5l-3 -3q-5 -11 -15.5 -16.5t-13 -6t1.5 -8.5q4 -5 -3.5 -9.5t-15.5 -4.5q-36 -1 -88 5q-24 2 -24 -1q-1 0 1 -2q-1 -4 -6 -5
q-18 0 -50.5 -2.5t-50.5 -3.5q-25 -1 -73 -7q-21 -3 -30 -1q-7 2 -12 -1q-4 -26 -1 -55q2 -20 3 -67t4 -72q1 -15 19 -11q38 8 74 9q5 0 12 0.5t10.5 0.5h8t6.5 -0.5t4.5 -2t4.5 -3.5q-4 -4 -7.5 -17.5t-5.5 -17.5q-2 -3 -7 -4.5t-8 -3t-1 -3.5q8 -9 8 -11t-10 -5
q-9 -3 -30.5 -4t-29.5 -4q-22 -6 -33 -8q-12 -3 -11 -16q4 -82 9 -110q3 -22 7 -61q0 -4 2 -35t6 -46q4 -13 1 -28q-2 -10 -2 -28q1 -9 -1.5 -26.5t-2.5 -21.5q0 -6 -2.5 -8.5t-7.5 -4t-7 -2.5q-8 -14 -16 5q0 8 -10 15t-11 13q0 11 -11 5q-14 -10 -35 -1q-11 5 -14 9t-3 16
v92q0 15 -0.5 32t-1.5 37.5t-1 31.5q-1 19 1.5 57.5t1.5 58.5q0 8 -4.5 11t-10.5 4t-7 2q-3 2 -4.5 14t-5.5 15q-11 8 7 17q1 1 10.5 3t11.5 4q0 90 -1 133q0 26 -4 73.5t-4 68.5q0 14 10 18q13 6 16 -5q3 -9 12 -13q-1 10 1.5 14t13 8t11.5 4zM398 603q4 -1 13.5 -2
l14.5 -1.5t12 -4t12 -8.5q24 -27 27 -66q2 -53 6 -95q1 -13 2 -27.5t2 -27t3 -27.5q5 -35 6 -37q8 -32 0 -85q-3 -19 -7 -99q-2 -42 -8 -53q-3 -7 1 -20q2 -14 -3 -17q-4 -3 1 -8q5 -6 -1 -17q-6 -10 -8.5 -10.5t-11.5 5.5t-21 0q-18 -10 -55 -6q-10 2 -13 10q-7 30 -7 35
q0 14 0.5 40.5t0.5 39.5q0 28 -8 84q-3 26 -3.5 70t-2.5 72q-1 15 -0.5 53t0.5 52q0 7 2 104q1 11 3 13t14 2q3 1 7 1q2 3 0.5 10t-0.5 10q2 3 7 4t7 3q5 5 8 3zM468 325l-5 42q-5 -15 -5 -42v-23q0 -2 3.5 -11t3.5 -11l2 -22q0 1 1 3.5t3 8.5q1 4 1 28q0 3 -0.5 8t-2 11
t-1.5 8z" />
    <glyph glyph-name="F_i.liga" unicode="Fi" horiz-adv-x="557" 
d="M82 712q11 -13 14 -27q9 0 19 1.5t22 4t18 3.5q16 3 46 5.5t42 4.5q36 5 77.5 6.5t52.5 2.5q8 2 10 -2q1 -3 -3 -9.5t-7 -8.5q-2 -1 -5 -3t-4.5 -2.5t-3.5 -2t-3 -3t-2.5 -3.5t-2.5 -4t-2 -5q-4 -11 -19 -14q-8 -2 -36.5 -2t-41.5 -4q-14 -5 -52.5 -7.5t-40.5 -2.5
q-21 -3 -30 -1q-7 2 -12 -1q-4 -27 -1 -57q2 -20 3 -67t4 -72q1 -15 19 -11q38 8 74 9q5 0 12 0.5t10.5 0.5h8t6.5 -0.5t4.5 -2t4.5 -3.5q-4 -4 -7.5 -17.5t-5.5 -17.5q-2 -3 -7 -4.5t-8 -3t-1 -3.5q8 -9 8 -11t-10 -5q-9 -3 -30.5 -4t-29.5 -4q-22 -6 -33 -8
q-12 -3 -11 -16q4 -82 9 -110q3 -22 7 -61q0 -4 2 -35t6 -46q4 -13 1 -28q-2 -10 -2 -28q1 -9 -1.5 -26.5t-2.5 -21.5q0 -6 -2.5 -8.5t-7.5 -4t-7 -2.5q-8 -14 -16 5q0 8 -10 15t-11 13q0 11 -11 5q-14 -10 -35 -1q-11 5 -14 9t-3 16v92q0 15 -0.5 32t-1.5 37.5t-1 31.5
q-1 19 1.5 57.5t1.5 58.5q0 8 -4.5 11t-10.5 4t-7 2q-3 2 -4.5 14t-5.5 15q-11 8 7 17q1 1 10.5 3t11.5 4q0 90 -1 133q0 26 -4 73.5t-4 68.5q0 14 10 18q13 6 16 -5q3 -9 12 -13q-1 10 1.5 14t13 8t11.5 4zM379 607q16 1 16 -13q-1 -9 11 -19q34 -31 5 -55q-3 -2 -9 -8
t-11.5 -8.5t-12.5 -1.5q-4 4 -13 3.5t-14 1.5q-50 26 -15 75q14 20 43 25zM386 420q28 0 35 -29q3 -8 4 -9q8 6 11 5t3 -11q2 -8 -1 -15q-4 -14 -1 -30q3 -21 5 -126q1 -24 7 -77l3 -27t2 -27q0 -4 0.5 -11t0.5 -9.5t1.5 -6.5t4.5 -2.5t9 2.5q38 18 52 28q34 23 38 24
q10 5 15 10q18 14 32 4q-8 -12 -24 -24q-22 -18 -32 -33q-5 -10 -18 -11q-3 0 -18 -12q-3 -2 -9 -5t-9 -6q-9 -12 -11 -13q-4 -3 -18 -8l-19 -6q-6 -3 -14 -3q-1 0 -4 0.5t-5 0.5q-2 -1 -5 -3.5t-5 -3.5q-4 -1 -12 5q-8 8 -16 9l-7 3.5t-7 3t-8 -2.5q-2 -2 -13 6
q-13 13 -19 56q-3 26 -1 80q2 66 5 97q5 50 3 84q-1 8 1 30t-1 31q-1 6 12 19q13 11 33 13z" />
    <glyph glyph-name="G_G.liga" unicode="GG" horiz-adv-x="872" 
d="M251 722q-4 -8 -17.5 -12t-18.5 -8q33 -2 47 3q10 3 29 1q23 -3 39 -15q25 -16 27 -46q2 -23 -3 -57l-3 -31q-2 -11 -4 -12q-6 -4 -8.5 -9.5t-4 -13t-3.5 -11.5h-18q-26 -10 -36 19q-3 7 -3 22q-2 24 -4 70q-1 7 -3.5 19.5t-3.5 16.5q-1 12 -13 15q-23 8 -43.5 0
t-30.5 -29q-25 -53 -28 -63q-18 -68 -14 -104q2 -9 1.5 -39t-0.5 -38q0 -7 1 -28.5t0 -33.5q-2 -34 3 -97t5 -90q0 -1 0.5 -4t0.5 -5q-2 -5 -2.5 -10t-0.5 -10v-9t2 -9.5t2.5 -8.5t3.5 -9.5t4 -8t4.5 -9t4.5 -8.5q6 -12 11 -13.5t17 4.5q2 1 30.5 18t45.5 22q9 3 9 13
q-1 32 1.5 92.5t2.5 88.5q0 3 -1 5q-49 14 -63 12q-5 0 -7 2t-5 8l-2 6q2 6 10 6q15 0 42.5 6t36.5 7h4q10 8 12.5 6t7.5 -12q1 -1 3 -1.5t3 -0.5q3 4 4 14t5 15q4 0 12.5 -4t13.5 -4q6 0 6 -11q1 -6 2.5 -18t2.5 -21.5t1 -17.5q0 -7 0.5 -28.5t1.5 -33.5q2 -24 2 -67.5
t1 -59.5q1 -11 1.5 -33t1.5 -33q2 -36 -27 -53q-1 -1 -3 -4t-5 -4q-9 9 -24.5 32t-26.5 33q-5 4 -7.5 15t-3.5 13q-6 0 -13 -9q-28 -34 -49 -39q-4 -6 -11 -9t-16 -4.5t-13 -3.5q-17 -7 -48 -3q-12 1 -41 5q-43 6 -53 38q-5 17 -19 49q-8 18 -8 56q0 58 -3 115q0 1 6 76
q0 4 1 15t0 17q-2 13 1 38t2 37q-1 16 1 32t8 38t8 31q4 11 5 14q7 53 61 107l33 27q4 2 5 2q13 0 25.5 5t26.5 14t22 12q7 2 21 2t20 1zM673 704q7 7 23.5 5t25.5 -11q15 -13 25 -16q5 -1 13 -15q2 -4 16 -42q10 -27 7 -63q0 -11 -2 -16q-1 -3 -1.5 -11t-2.5 -13.5t-6 -8.5
q-1 0 -11 -7.5t-17 -8.5q-1 0 -5 -8q-3 5 -10.5 12t-9.5 13q0 3 -3 3q-5 1 -9 3.5l-7 4.5t-5.5 6t-3.5 6t-3 8t-2 7.5t-1.5 8t-1.5 7.5q-2 11 -4 30.5t-3 27.5q-1 13 -11.5 24t-24.5 13q-19 4 -41 3q-11 -38 -18 -96q-1 -5 -2.5 -16t-1.5 -17q-6 -44 -15 -181q0 -8 -3 -33
t-2 -38q0 -58 1 -65q1 -9 1 -29t2 -31q1 -6 0.5 -18t0.5 -19q2 -10 7 -27t6 -23q0 -4 4 -6q8 -5 19.5 -9t22.5 0q9 3 17.5 8.5t12.5 10l13 14.5t12 13q3 4 1 11q-9 72 9 152q2 8 -1 12q-5 0 -16.5 -0.5t-18.5 -0.5t-16 4.5t-15 14.5q4 3 10 4t10.5 0.5t9.5 0.5q30 2 60 6
q17 4 15 16q-1 13 14 15q16 2 27 -5q12 -7 17 -3q2 2 3.5 0.5t2.5 -4.5q5 -5 8 -5q6 2 8.5 1t3.5 -3t0 -8q-1 -15 -1 -47q2 -29 -1 -87.5t-2 -87.5q3 -51 2 -58q0 -15 -4 -23l-13 9q-1 1 -2.5 3.5t-2.5 4t-2 0.5q-3 -4 -10.5 -2t-10.5 1q-32 -13 -53 15q-8 11 -13 12t-18 -5
q-3 -2 -12.5 -6.5t-14.5 -7.5q-8 -5 -24 -5.5t-19 -1.5h-4q-5 -1 -7 -3q6 -6 24 -6q5 -3 5 -4q2 -6 -5 -6q-5 0 -15 -1.5t-16 -2t-14.5 1.5t-15.5 7q-4 3 -10 3q-29 4 -40 22l-6 4q-5 1 -10 3t-7.5 4.5t-6 7t-5 7l-5 8.5t-4.5 8q-1 1 -1 2q-7 16 -17 62.5t-13 68.5
q-1 13 -1.5 35.5t-0.5 29.5q-1 13 4 60q2 21 -1 31q-7 24 -2 52q12 78 27 129l3 8q7 3 10 7.5t4.5 13t2.5 10.5q9 26 13 43q6 22 28 48q1 1 20 8q13 5 12 -6q0 -8 -7 -25l-3 -8q-11 -41 -9 -65q0 -9 5 -10q3 11 10 52t16 59q-1 4 3 7t4 7q3 5 20 6q33 2 58 -5q17 -4 24 5z
M47 479q-8 -4 -8 -14q-4 -47 -5 -74q0 -6 7 -6q0 45 9 89q0 1 -1 2q-2 2 -2 3z" />
    <glyph glyph-name="H_H.liga" unicode="HH" horiz-adv-x="912" 
d="M290 743q14 -8 23 -30q2 -6 5 -18t6.5 -21.5t9.5 -16.5q4 -5 4 -15q-1 -16 3 -52q2 -16 2 -75v-111q1 -1 13 -1q47 8 86 5q12 -1 15 13q9 55 21 165q1 5 9 100q29 2 39 -18q1 10 9 36q2 9 7 10q4 0 8 -7q2 -5 5 -7q20 -14 28 -55q5 -18 3 -57q-2 -61 -5 -91
q-1 -11 -1 -24t0.5 -28.5t0.5 -24.5q0 -10 9 -8q12 1 35 -0.5t34 -0.5t32.5 2.5t32.5 2.5q6 0 6 11q0 10 0.5 31.5t0.5 32.5l3 164v41q2 0 10 2.5t11.5 2.5t8.5 -2t9 -7q1 -2 9 -2q3 1 9.5 1.5t10.5 0.5q0 -16 15 -21q13 -4 15.5 -9.5t0.5 -20.5q-8 -62 -3 -125
q0 -4 0.5 -16.5t1.5 -18.5q2 -13 4 -42.5t5 -44.5q6 -26 6 -82v-63q1 -10 -2 -56q-5 -107 -8 -124q-6 -27 -4 -57q0 -18 -11 -47q-5 4 -17.5 10.5t-17.5 13.5q0 1 -1 1l-2 1q-23 8 -28.5 15.5t-6.5 29.5q0 62 -13 109q-13 42 -1 93q2 11 -1 22q-8 25 -5 49q1 6 1 53
q-2 1 -8 2.5t-8 4.5q1 4 8 6t9 8q-13 -5 -27.5 -7t-33 -3.5t-27.5 -2.5q1 -2 5 -2.5t5 -2.5q0 -4 -3 -4q-10 0 -28 -5t-27 -5q-10 -1 -12.5 -4t-3.5 -13q-2 -33 5 -86q3 -21 5 -95q0 -68 -2 -101q0 -12 -2.5 -34.5t-2.5 -30.5q-2 -8 -4 -13q-3 -4 -8 -5.5t-6 0.5
q-5 7 -18.5 10.5t-17.5 9.5q-6 11 -15 4q-7 -6 -28 -1q-8 2 -10 17q-1 4 -1.5 9t-1 11.5t-0.5 9.5q-2 17 0 69q2 21 -6 121q-5 58 -1 105v11q-15 -4 -60.5 -1.5t-60.5 1.5q-4 -88 7 -142q9 -47 6 -93q0 -8 -3 -17q-14 -35 -12 -75q-19 7 -29 -5q-6 -8 -15 1q-26 27 -28 55
q-3 12 -1.5 52.5t1.5 52.5q0 27 -1 80t-1 79v9q-2 2 -14 2q-54 -10 -81 -14q-11 -2 -11 -16q0 -10 0.5 -32t0.5 -33q-1 -24 -10 -106q-1 -7 -1 -21.5t-1 -21.5v-13q-5 -50 -4 -86q0 -24 -24 -28q-7 -2 -17.5 3t-14.5 12q-14 26 -14 41q-1 10 -9 14q-20 11 -22 37q0 29 -7 44
q-5 12 -5 46q0 22 2 64t2 64q2 20 -13 21q-5 0 -5 4t-2 6t-5.5 3.5t-4.5 2.5q-21 12 -28 35q8 0 24.5 4t26.5 2q4 -2 6 0t3 4.5t1 6.5l3 60q9 161 10 206v32q1 16 16 16q10 0 20 -7t13 -17q5 -17 28 -52q8 -9 9 -20q19 -83 15 -122q-1 -17 1 -75q0 -12 2.5 -14t14.5 -2h15
q7 0 32 3t39 2q10 -2 11 8q0 66 4 99q1 14 1 84q0 2 3 116q2 17 -3 28q2 3 7.5 5t7.5 6zM622 366q-25 2 -36 -6q4 1 15.5 2.5t20.5 3.5z" />
    <glyph glyph-name="I_I.liga" unicode="II" horiz-adv-x="508" 
d="M354 705q3 -4 20 -13.5t18 -23.5q2 -8 7 -12q2 3 1.5 18t-0.5 20q19 -13 14 -35q-4 -20 3 -53q2 -13 2 -58t1 -54q6 -47 6 -142q0 -12 2 -32q1 -11 -4 -73q-2 -49 0 -74q1 -7 1 -22v-4.5t1 -6t3 -3.5q8 -7 1 -15q-5 -7 -5 -9q0 -14 -5.5 -40.5t-5.5 -38.5
q0 -5 -3.5 -12.5t-3.5 -10.5q-9 -1 -13.5 -13t-10.5 -15q0 6 -2 9t-4 3.5t-7.5 1t-8.5 1.5q-6 1 -11 -0.5t-6 -1.5q-4 0 -10 5.5t-11 3.5q-2 -2 -4 3q-24 32 -24 53q0 16 -2 20q-1 2 -1.5 6t-1 6t-3 4t-8.5 0q-1 0 -4 6q-15 25 -9 44q2 3 0 10.5t-2 9.5q0 15 1 45t1 45
l9 133q7 114 11 145q3 25 1 74q-1 7 -1.5 20.5t-0.5 20.5t3 8q15 3 16 16q0 2 6 8t6 11q-1 3 4 5q5 1 15 3.5t15 3.5q2 2 4 0zM74 683q4 -1 13.5 -2l14.5 -1.5t12 -4t12 -8.5q24 -27 27 -66q1 -15 1.5 -41.5t1.5 -49.5t3 -44q1 -14 3 -48.5t4 -53.5q5 -35 6 -37q8 -32 0 -85
q-1 -9 -7 -119q-2 -42 -8 -53q-3 -7 1 -20q2 -14 -3 -17q-4 -3 1 -8q5 -6 -1 -17q-6 -10 -8.5 -10.5t-11.5 5.5t-21 0q-18 -10 -55 -6q-10 2 -13 10q-7 30 -7 35q0 14 0.5 40.5t0.5 39.5q0 17 -3.5 46t-4.5 38q-3 37 -3.5 105t-2.5 97q-1 15 -0.5 53t0.5 52q-1 14 2 124
q1 11 3 13t14 2q3 1 7 1q2 3 0.5 10t-0.5 10q2 3 7 4t7 3q5 5 8 3zM304 250l-4 5l-3 -7q-3 -6 -3 -11v-30l-1 -32q0 -2 2 -18.5t2 -20.5q0 -3 3 2q6 15 6 26q0 5 -1 17.5t-1 16.5q0 1 1 13.5t0 17.5z" />
    <glyph glyph-name="J_J.liga" unicode="JJ" horiz-adv-x="549" 
d="M138 704q21 -7 25.5 -12t6.5 -27q2 -23 13 -55q4 -14 5.5 -29.5t2.5 -35t2 -29.5q5 -25 6 -28q0 -27 4 -68.5t4 -63.5q0 -24 -5 -40q-6 -2 -1.5 -38t4.5 -39q0 -54 -9 -135q-3 -35 -24 -61q-37 -47 -85 -75q-9 -6 -26 -3q7 9 30.5 23.5t32.5 25.5q-16 4 -28 -7
q-33 -31 -52 -35q-5 -8 -22.5 -13t-23.5 -14q-2 -4 -7.5 -3.5t-9.5 4.5q-6 10 -21 8q-6 -3 -9 -0.5t-3.5 4.5t-1.5 11q-1 14 13 23q36 23 65 56q38 46 35 121q-2 26 -2 74.5v59.5q0 50 -2 152q0 23 3 46q3 25 1 76q-1 12 -1.5 25t-1 28.5t-0.5 24.5v2q1 17 7 20.5t23 -4.5
q1 1 2 3.5t2 4t2 3.5t2.5 3t3 2.5t3.5 2t4 0.5q3 0 5 4q7 14 28 8zM380 678q5 -2 9.5 -3t6 -1.5t4.5 -2t7 -5.5q5 2 17 3.5t15 2.5q4 -4 5 -6l30 -136q2 -10 2 -15q-1 -20 2.5 -64t1.5 -67q-1 -15 2 -49.5t1 -52.5q-7 -78 -2 -134q0 -5 -2 -15q-7 -37 -9 -77q0 -47 -27 -68
q-5 -3 -7.5 -12t-6.5 -12q-69 -57 -140 -54q-17 0 -25 11h11.5h12h11t11.5 1t10.5 2t11 3t9.5 5t9 7q-19 8 -34 4q-5 -3 -29 -2t-28 1t-6 1q-4 3 -18.5 10.5t-22 13.5t-13.5 15q27 -2 31 -1q2 1 12.5 4.5l13.5 4.5l12.5 4t12.5 5t11 5.5t11.5 6.5t9.5 7t9 8.5t6 9.5t5 11
q6 18 10 56q1 10 3 32t3 34.5t0 31t-6 34.5q-16 54 -14 128q4 113 -3 162q-3 19 6 77q4 24 4 35q0 15 16 33q11 14 28 8zM159 59q-3 -1 -5 -3t-3.5 -5.5t-2.5 -5.5q10 6 11 14z" />
    <glyph glyph-name="K_K.liga" unicode="KK" horiz-adv-x="881" 
d="M782 756q6 -3 7 -22t-2 -23q-2 -3 -6.5 -8.5t-7.5 -10.5t-4 -9q-3 -14 -12 -20.5t-13 -17.5q-2 -5 -5 -10.5t-7 -12t-6 -10.5q-4 -6 -11 -15t-11.5 -16.5t-6.5 -16.5q-2 -10 -25 -49q-30 -50 -39 -74q-2 -5 -0.5 -8.5t6.5 -8t6 -5.5q1 3 1 10.5t1.5 11.5t5.5 8
q11 -6 15 -13q15 -39 22 -52q18 -29 25 -36q13 -13 26 -52q49 -134 58 -156q28 -70 43 -104q6 -14 10 -20q7 -9 1 -16q-8 -8 -16 -2q-6 5 -21 7.5t-21 6.5q-7 5 -20 1q-14 -3 -24 8q-11 11 -27 16q-34 13 -46 59q-26 101 -38 136q-6 16 -13 48l-9 41q-4 19 -12 51
q-17 -19 -17 -52v-168q0 -9 1 -26.5t1 -26.5q0 -26 -4 -78q-1 -13 -6 -15t-16 3q-3 1 -13 -1q-16 -4 -33 8q-8 8 -11 2q-1 -1 -6 4q-3 4 -3 19q0 97 1 106q6 27 10 89q-17 -12 -15 -29q2 -22 -8 -119q0 -7 0.5 -21t-0.5 -22v-12q0 -5 -16 3q-11 6 -14 17q-7 23 -7 40
q0 26 -1 72.5t-1.5 84.5t-0.5 72q0 22 1 64.5t1 63.5q0 9 -1 27.5t-1 28.5q2 67 7 141q1 10 1.5 27t0.5 22q0 12 6 14q8 1 12 -9q2 -8 4 -8q4 3 17.5 23t27.5 25q3 -1 7.5 -8.5t11.5 -5.5q1 1 3 -1.5t3 -4.5q1 -11 10 -28t11 -25q8 -32 9 -66q1 -15 5.5 -41.5t5.5 -35.5
q2 -11 4 -62q0 -7 3 -9q9 10 16 28q14 30 36 70.5l31 57.5q6 12 23.5 33.5t23.5 35.5q7 13 28.5 40t27.5 37zM367 701q4 4 10.5 0.5t7.5 -10.5q0 -10 -5 -16q-19 -30 -40 -57q-10 -13 -38 -58q-8 -14 -10 -16q-2 -3 -5.5 -7.5t-6 -8.5t-3.5 -8t-4.5 -11.5t-4.5 -11.5
q-2 -12 -25 -33q-20 -20 -8 -49q6 -16 19 -46.5t17 -41.5q9 -27 9 -28q0 -5 2.5 -9.5t6 -9.5t4.5 -8q22 -61 63 -136q30 -59 36 -78q3 -6 3 -12q2 -18 10 -34q7 -12 5 -18q-25 7 -33 -13q0 -2 -2.5 -1t-3.5 1q-5 -2 -13.5 -2.5t-12.5 -1.5q-17 -5 -40 15q-19 17 -28 21
q-2 -1 -1.5 -6t-2.5 -7q-14 5 -21 24q-17 50 -33 107l-34 106q-27 93 -31 112q0 2 -1 3.5t-2 4t-2 4.5q-8 -5 -8 -21q6 -62 8 -98q1 -18 3 -50t3 -58t0 -49q0 -11 -8 -31q-2 -5 -2.5 -11t-1.5 -8q0 -1 -1 -4.5t-1.5 -5.5t-2 -4t-4 -3t-6.5 -1t-5.5 -3.5t-2 -8.5t-2.5 -8
q-8 2 -10.5 2.5t-10.5 -3t-10 -4.5q-16 -5 -29 2t-16 22q-4 27 -6 66q-3 48 -11 142q-5 62 -6 124q0 23 -1.5 70.5t-1.5 71.5q-2 84 3 118q1 5 0 13t-1 11q-3 21 -1 24q17 19 12 34q-1 1 3 3h3q10 -2 23 5q17 9 44 2q17 -3 20 -21q7 -42 7 -71q0 -23 2 -34t2 -67
q1 -29 5 -101q8 6 25 30q11 14 52 75q48 72 99 134q31 37 33 40t9.5 7.5t10.5 8.5z" />
    <glyph glyph-name="L_L.liga" unicode="LL" horiz-adv-x="796" 
d="M98 726q2 -2 5 -6.5t6 -7.5t8 -4q3 -1 3 -10q0 -26 -2 -39q-2 -24 0 -120q0 -46 1 -50q2 -16 7 -19q8 15 4.5 57t-1.5 58q4 19 3 57t2 60q12 -10 10 -35q0 -13 0.5 -39t0.5 -39q-1 -26 0 -74t1 -63q2 -112 7 -134q10 -44 17 -102q1 -13 -7 -91q-2 -14 -2 -20
q-2 -22 -8 -32q-9 -15 -1 -32q4 -1 6 3q4 7 5.5 7.5t7.5 -5.5q3 -3 9 -3q32 0 41 2q3 1 58 6q23 0 30 -5q3 -2 17 -2q12 0 15 -2q11 -6 3 -12q-7 -7 -3 -14q5 -6 -2 -8q-3 -1 -9.5 -4.5t-10.5 -5t-10 -3t-12 -0.5q-12 1 -36 -2t-37 -2q-19 1 -82 -4q-9 -1 -40 -2.5t-46 -4.5
q-26 -4 -40 26q3 3 16.5 4.5t16.5 11.5q-1 3 -5 7l-4 4q-14 20 -15 32q-1 27 -1.5 87.5t-2.5 91.5q-2 28 -2.5 79t-1.5 71l-3 79.5t-2 78.5v63.5t-2 63.5q-1 13 12 13q9 -1 22.5 5.5t19.5 6.5q3 0 7 6q5 14 27 16zM405 696q13 6 29 -6q13 -10 21 -22l18 -29q1 0 3 1h1v28
q11 -10 13 -36q2 -12 4 -36q2 -21 10 -29q2 -1 4 -14q5 -25 11 -94q4 -74 4 -111q0 -18 2 -54q0 -32 -5 -47q-5 -14 -5 -51q0 -7 -3 -13q-3 -7 0 -13q8 -21 10 -75q1 -12 3 -14t14 -2q11 0 23.5 -0.5t28 -1.5t23.5 -1q11 -1 22 -7q22 -10 43 -9q14 1 42 -1q15 -1 36 -20
q5 -3 5 -7.5t-5 -6.5q-18 -10 -24 -9q-17 4 -36.5 4.5t-43 -1t-36.5 -1.5q-60 3 -146 -8q-12 -1 -34.5 0.5t-30.5 1.5q-4 0 -8 2t-9 7l-7 7q3 8 15.5 12.5t15.5 7.5q-26 20 -28 74q-1 28 0 79.5t1 67.5q2 84 -2 110q-6 23 -3.5 90t1.5 90v29.5t-0.5 35.5t-2.5 30
q-3 10 -3 11q-6 26 20 29q2 0 5 1t4 1zM575 63q-41 0 -49 -2q29 -11 49 2zM491 57q-17 4 -20.5 3t-8.5 -8q22 0 29 5zM67 35q-2 0 -4 -7q-1 -3 2 -3q4 -1 6 5q-3 5 -4 5z" />
    <glyph glyph-name="M_M.liga" unicode="MM" horiz-adv-x="1192" 
d="M143 716q6 1 8 -4q13 -27 24 -42q10 -14 16 -40l31.5 -128l24.5 -101q10 -46 18 -73q6 18 13 63q2 12 6 43.5t7 48.5q12 68 20 101q15 72 23 87q13 25 32 21l24 -5q8 -1 15 -7q9 -9 12.5 -8t8.5 14l3 3q1 -1 3.5 -2.5t4 -2t4 -0.5t4.5 2q3 3 14 -1q1 -1 3.5 -3t4.5 -2
q16 -5 25 -17t10.5 -22t2.5 -29q0 -2 -0.5 -6t-0.5 -5q3 -31 -1 -88t-4 -67q0 -73 5 -124q2 -17 4 -52t4 -52q3 -26 2.5 -67.5t0.5 -67.5q0 -5 2.5 -25t1.5 -31q-3 -31 -33 -24q-2 -1 -3 -3t-1 -5v-4q-6 -11 -19 -8q-16 2 -54 27q-24 16 -24 49q-2 65 0 86q2 18 -2 52
q-3 34 -5.5 96.5t-4.5 91.5q-2 20 -4.5 81.5t-7.5 95.5l-3 8q-8 -11 -14 -35l-10.5 -33t-11.5 -42q-22 -112 -22 -153q0 -6 -2 -17.5t-2 -16.5l-3.5 -17t-2.5 -17t3 -17q0 -12 0.5 -14.5t-7 -11.5t-8.5 -11q-2 -5 -10 0q-16 5 -19 5q-4 -13 8 -13q4 0 7.5 -4t6 -9.5
t4.5 -7.5q-3 -4 -14 -6q-35 -4 -43 7q-5 6 -21 15q-23 13 -35 45q-43 110 -65 186l-28 103q-6 22 -11 34q2 -10 -1 -29.5t-1 -29.5q3 -7 2 -36.5t-1 -36.5q1 -16 1.5 -58t2.5 -64q7 -86 10 -104q6 -40 4 -60q-4 -42 -2 -100q2 -9 -2 -15q-11 -15 -30 -5q-2 -1 -4 -4.5
t-5 -4.5q0 1 -2 2.5t-2 3.5l-3 56l2 116q1 49 -5 105q-9 96 -6 217q0 25 -0.5 81.5t0.5 82.5q1 7 -1 22q-1 10 11 15q17 6 33 -1q4 2 7 7.5t4 6.5q11 11 15.5 12t19.5 -4q23 -8 28 -23q2 -4 7 -3q1 3 0.5 14t2.5 13zM967 691q2 0 6.5 0.5t7 0t6 -1t6 -2.5t4.5 -6q1 -2 7 -2
q19 3 28 -16q3 0 6.5 3t5.5 1q7 -8 27 -8q4 0 7 -2.5t6 -7t5 -6.5q12 -8 9 -29q0 -3 2 -15q5 -22 9 -72q5 -84 8 -108q6 -50 4 -75q0 -5 2 -35q0 -7 1.5 -41t-0.5 -41q0 -9 0.5 -19.5t1.5 -23t1 -19.5q0 -39 -6 -58q-7 -28 0 -70q2 -14 -4 -23q-10 -13 -23 -6q-9 5 -16 10
q-1 1 -3.5 5t-4 3.5t-6.5 -5.5q-1 1 -14 8.5t-16 14.5l-18 36q-6 16 -8 23q-2 14 -11 23q-10 8 -12 30q-5 42 -5 73q0 46 -10 134q-1 14 -2.5 41t-2.5 41q-2 16 -3 48t-2 48q-7 -3 -9 -15l-7 -25.5t-7 -28.5q-3 -15 -19 -59q-22 -64 -31 -96l-6 -15q0 -1 -2 -3t-1 -4
q5 -14 4 -20.5t-6.5 -19t-6.5 -18.5q-2 -12 -11 -20q-4 -4 -6 -14q-6 -22 -20 -68q-3 0 -11.5 3.5t-13.5 1.5q-1 -1 -7 2q-2 2 -8 9t-9 10t-5.5 9.5t-2.5 13.5q-1 12 -8.5 33t-9.5 30l-3 5q-17 14 -31 53q-28 68 -38 103q-2 8 -4 11q-22 47 -32 94q-6 -1 -6 -12
q1 -16 5 -47.5t5 -47.5q1 -50 5 -150q0 -13 2 -41l3 -41q2 -34 -1 -61q-7 -41 -5 -52q3 -14 4 -33.5t2 -25.5q1 -9 0 -26.5t-1 -24.5q-8 -4 -16 4q-21 25 -22 44q0 7 -3.5 96t-6.5 125q-2 32 -4.5 90.5t-3.5 76.5q-4 68 -1 116q2 32 4 96q0 18 -8 23q-2 2 -4 8q-5 11 -3 15
t14 5q17 2 22 5q16 8 32 -4q7 -5 21 -12t19 -10q26 -16 39 -37q7 -11 15 -15l-16 40q-2 9 1 10q4 2 10 -2q19 -19 24 -27q9 -16 21.5 -47.5t15.5 -38.5q4 -8 38 -93q4 8 9.5 23t7.5 20q13 37 24 57q18 34 42 91q1 3 4 11l5.5 14.5t5.5 9.5q9 14 5 28q-2 8 2 13t12 4z
M435 514q-4 -15 -4 -22t3 -21t3 -22q7 15 6 35.5t-8 29.5z" />
    <glyph glyph-name="N_N.liga" unicode="NN" horiz-adv-x="920" 
d="M843 740q7 -5 3 -14q-5 -11 -3 -33q6 -32 1 -48q-1 -5 -0.5 -7.5t2 -7.5t1.5 -7q1 -6 -2 -73l-3 -93q0 -10 2 -44.5t1 -66.5q0 -6 0.5 -18t0.5 -18q-2 -53 4 -161q2 -31 1 -46q-2 -25 1 -71.5t3 -52.5l-1 -7q-2 -1 -9 4q-1 1 -3 4t-3.5 4.5t-3.5 3t-5 1t-7 -2.5
q-3 0 -3 1q-6 8 -23.5 12.5t-24.5 10.5q-9 9 -16 1q-2 -2 -9 0q-4 1 -10 10q-1 2 -6 7t-7 9q-5 10 -18.5 27t-20.5 27q-8 12 -13 31q-3 12 -19 49q-26 58 -36 94l-12 37.5t-13 43.5q-28 94 -33 123q-1 5 -5.5 15t-5.5 15q-2 14 -7.5 29.5l-13 35.5l-11.5 30q-2 9 -7 12v-16
q0 -10 2.5 -35.5t1.5 -42.5v-11q1 -5 4.5 -20t4.5 -22.5t1 -23t-3 -34.5t2 -38q4 -13 -1 -20q-3 -6 -3 -11q12 -58 17 -104q10 -83 10 -99q0 -25 1 -38q5 -52 -3 -105q-3 3 -16 9t-17 13q-5 8 -13 2q-2 -1 -6 -1.5t-6 -2.5q-5 5 -5 12q-1 14 -7.5 65t-7 67t0.5 66
q1 14 -4 58q-3 20 -3 43.5t1.5 52t1.5 43.5q0 8 0.5 23.5t1 28.5t1.5 25q1 11 -1.5 32t-2.5 26q0 6 -3.5 55.5t-3.5 73.5q0 1 -0.5 4t-0.5 4q3 13 5 13q4 1 10.5 6.5t10.5 6.5q19 3 26 -13q7 1 17 9q2 3 18 8q9 2 15 -8l11 -3q16 0 24 -17q2 -3 8.5 -18t12.5 -24
q-1 10 -6.5 26t-5.5 24q7 2 11 -4q9 -15 22 -19q4 -2 6 -6q28 -50 36 -88q3 -13 11.5 -36t10.5 -29q10 -35 23 -97q9 -46 33 -136l29 -101q16 -50 15 -68q0 -3 5 -5q6 3 6 13q-13 215 -10 320l6 188q0 7 3.5 42.5t1.5 55.5q7 -2 12.5 -0.5t13 8t9.5 7.5zM153 696q6 0 6 -3
q2 -7 10 -18.5t10 -17.5q6 -18 14 -58t16 -61q11 -30 30 -91.5t30 -91.5q5 -13 11 -37.5t9 -32.5l34 -117q3 -5 5 -5q8 82 -5 149q-3 -1 -2.5 -10.5t0.5 -10.5v-11t-1 -11q-6 2 -6 11q0 38 -3 77q0 7 1.5 23t1.5 24q0 1 -3 58q-3 33 -2 60q3 84 1 143q0 6 10 21q2 3 10 3
q7 -1 17.5 -10t11.5 -16q0 -11 4 -42t3 -49q-1 -17 -1 -46.5v-47.5q0 -6 1.5 -36t-0.5 -37q-1 -19 -0.5 -66.5t0.5 -66.5q0 -15 4 -43.5t5 -39.5q1 -17 6 -52t6 -52q0 -25 -3 -27q-6 -4 -7 -8.5t0.5 -10.5t1.5 -8q0 -3 0.5 -7t0.5 -7q2 -22 -18 -29q-7 -4 -11 4q-4 6 -21 8
q-3 1 -24 1t-31 6q-7 -4 -18 1t-14 5q-16 1 -21 20q-1 5 -9 32t-12 42q-4 20 -15.5 57.5t-16.5 56.5q-6 30 -45 156q-24 76 -33 123q-2 14 -8 40.5t-8 34.5q-5 -1 -5 -8q-4 -166 -4 -248q0 -32 3.5 -91.5t3.5 -86.5q1 -19 4.5 -61.5l4.5 -54.5q1 -9 1 -58q-6 2 -17 10
t-19 10q-9 2 -7 14q0 11 -7 25q-5 8 -5 22q-2 28 -4 90t-2 69q-3 37 -4 41v11q3 22 0.5 86t-2.5 86q1 65 1 194q0 13 -2 41q0 12 11 15q29 6 41 1q6 -2 16 3t21.5 7t26.5 2.5t22 1.5zM322 44q-1 -13 1.5 -15.5t15.5 -0.5q-1 1 -2 4.5t-2 5t-3 3.5t-4.5 2.5t-5.5 0.5z" />
    <glyph glyph-name="O_O.liga" unicode="OO" horiz-adv-x="934" 
d="M194 720q2 0 2.5 -2t-0.5 -5.5t-3 -5.5q-5 -5 -3.5 -9.5t-1.5 -8.5q-1 -4 -7 -14q-15 -38 -23 -109q-4 -22 -8 -133t-1 -130q9 -40 9 -69q0 -50 8 -77q5 -13 14.5 -47t14.5 -47q9 -17 25 -17q8 0 9 -7q12 -6 51 50q8 12 8 44q-1 1 -1.5 5t-0.5 5q-5 31 -1 93
q1 13 -2 93.5t-3 93.5q2 39 -4 71q-26 -4 -31 -2q-4 1 -17 3t-18 4q-8 4 -16 35q-1 5 0 16l2 12v20q0 11 -1 18q0 2 7 31q7 23 11 32q6 11 19 24q2 1 8.5 4t11.5 3q4 0 15 -4t16 -4q3 0 12 -5.5t12 -6.5q2 -1 4.5 -4.5t5.5 -4.5l16 -35q2 -3 6.5 -8t5.5 -7q10 -18 23 -59
q9 2 16 5q5 2 21.5 12.5t21.5 11.5q7 1 33 21q6 6 50 34q35 22 56 28q5 1 13 4.5t10 4.5q3 1 6 -0.5t6.5 -5t6.5 -4.5q6 0 17 6q6 4 4 10q-2 7 5 11q2 1 3 2q31 9 44.5 6.5t41.5 -14.5q13 -6 20 -24q3 -12 4 -14q8 0 8 6v4.5v4.5v4t0.5 3t2.5 1q5 1 12.5 -4t10.5 -9
q10 -13 28 -29q7 -6 16 -23q1 -1 2 -4.5t2 -5t3 -3.5t4.5 -2.5t6.5 -0.5q3 1 6.5 -2.5t2.5 -7.5v-24t4 -22.5t5 -21.5q13 -83 4 -153q-13 -117 -21 -156q-1 -6 -6 -17t-6 -17q-12 -64 -13 -67q-3 -12 -3 -23q-4 -19 -21 -28q-1 0 -17 -19q-6 -6 -14 -11t-20 -10.5t-16 -7.5
q-3 -3 -10 0q-4 3 -10 0q-5 -3 -8 -4t-4.5 -1t-6.5 3t-8 4q-9 3 -12 2t-7 -9q-9 -16 -14 -17.5t-20 8.5q-50 27 -68 40l-7 2q-4 -4 -7.5 -4t-5.5 2t-5 5.5t-4 4.5q-2 2 -7.5 8.5t-8.5 9.5q-32 37 -35 91q-2 36 -8 98q-1 10 1 44q1 10 -1.5 48.5t3.5 48.5q1 1 2.5 25.5
t5.5 60t9 58.5q2 9 10 25t11 23q9 21 11 32l-19 -13q-7 -7 -27 -21l-34 -22l-4 -4q-4 -4 -12 -9.5t-20 -11.5q-3 -2 -9.5 -5t-11 -5.5t-7.5 -3.5q6 -25 15 -99v-56q1 -26 -5 -76t-6 -75q2 -36 -7 -80q-2 -14 -13 -16q-3 0 -3 -3q-4 -10 -16 -25.5t-16 -24.5
q-5 -14 -22.5 -24t-22.5 -15q-21 -24 -48 -24q-39 0 -43 -8q-7 -11 -24 -5q-45 12 -75 39q-23 22 -40 44q-5 8 -3 12q5 -3 16.5 -15.5t19.5 -15.5l-11.5 21l-11.5 21q-1 3 -11 1q-19 -1 -25.5 3.5t-13.5 23.5q-4 18 -3 25q0 32 -5 72q-3 22 1 78q3 43 2 76q-5 88 8 168
q14 82 61 138q9 11 42 33q13 9 24 3q7 -5 21 0q19 6 29 6zM137 701q-15 -5 -19 -9q10 0 19 9zM683 657q-19 9 -30 3.5t-21 -27.5q-7 -15 -14.5 -43.5t-11.5 -39.5q-2 -6 -2 -12q-3 -47 -9 -88q-2 -17 -4 -51q-1 -39 3 -128.5t8 -107.5q0 -1 14 -40q3 -7 12 -15.5t12 -14.5
q12 -25 28 -37q15 0 34 15q3 3 10 37q2 9 9 60q5 36 7.5 115t6.5 111q6 36 5 56q0 5 2 20q4 45 -4 71q-5 20 -5 26q0 24 -25 78q-1 2 -2 3.5l-2 3t-2 2.5q-5 5 -6 2t-3 -4t-3 0t-3.5 2.5t-3.5 2.5zM259 648q-4 5 -14 -7l-5 -16q-4 -13 -4 -25q0 -2 3 -21t4 -28q1 -5 8 -9
t11 -4h10v10q2 23 -13 100zM754 638q-2 -6 -2 -9t2 -8t2 -7q4 15 -2 24zM558 218q-3 -10 4 -18q2 9 -4 18zM579 121q-3 -20 20 -39q-10 28 -20 39zM94 43q2 -8 12 -7q-6 8 -12 7z" />
    <glyph glyph-name="P_P.liga" unicode="PP" horiz-adv-x="874" 
d="M492 737q6 0 8 -9q7 -16 7 -22l4 -2q27 5 69 1q13 -1 39 3q19 1 37 -3q28 -6 42 -8q14 -3 25 -10q33 -22 37 -25q17 -12 20 -29q1 -7 12 -32q2 10 1.5 15t-2.5 15.5t-2 15.5l6 -2q3 -8 14.5 -26.5t14.5 -30.5q2 -6 0 -11q-4 -44 -22 -93q-7 -20 -47 -55q-29 -26 -70 -42
q-19 -8 -35 -18q-9 -6 -14 2q-3 4 4 11q8 6 13 9q-12 4 -18 -4q-4 -6 -14 -13t-14 -12q-11 -14 -21 -14q-6 -7 -2 -30t4 -28q0 -18 2 -58q4 -50 -4 -85q-2 -10 -2 -13q2 -10 1 -37.5t0 -37.5q0 -10 -5 -18q-4 -5 -6 -19q-3 -12 -12 -23q-3 1 -5.5 5t-5.5 5l-4 -4
q1 -4 -4 -11t-5 -11q-1 -5 -5 -5.5t-6 2.5q-10 15 -28 15q-10 0 -14 11q-5 13 -15 13q-15 2 -22 21q-10 26 -9 41q0 27 2 81q1 87 -6 174q-2 26 1 47q3 25 2 47q-1 17 3 49t4 46l-3 120q0 3 -2 5q-16 -3 -24 5t-10 30q24 4 37 7q2 15 -3 23q-6 9 6 16q20 9 46 6zM31 707
q3 -2 14 -3t16 -7q2 -4 6 -4q6 3 24 1t24 -2q72 2 89 0q70 -6 97 -26q24 -17 41 -39q6 -8 11.5 -23.5t7.5 -19.5q2 -6 1 -10q-1 -15 -0.5 -21.5t2.5 -21.5l3 -22q4 -45 -5 -70q-6 -12 -7 -13q-11 -8 -29 -44q-6 -11 -11 -13q-4 -2 -49 -33q-8 -6 -10 -6q-14 -6 -28 -14
t-32 -19.5t-27 -16.5q-12 -7 -13 -7q-9 -1 -14 -7t-5.5 -10t-1.5 -14q-1 -4 -1 -13q3 -17 1 -55.5t0 -54.5q1 -8 -1.5 -23.5t-2.5 -20.5q0 -42 6 -70q2 -9 0 -13q-2 -12 -12 -8q-11 4 -33.5 8t-33.5 8q-4 1 -11 1q-27 0 -28 25q-2 25 0 38v84v53q0 13 -13 10q-7 -2 -9.5 1
t-0.5 10q7 14 12 14q4 1 6 2t3 3t1 3.5v5v4.5q-1 17 -3.5 67.5t-3.5 78.5q-1 72 0 143q0 12 1 25.5t2.5 29.5t2.5 25q2 25 1 37q-2 14 -4.5 17t-17.5 7l6 3l6 3t4 3.5t3 5.5q1 4 6.5 6.5t9.5 1.5zM646 677q-21 -7 -62 -3q-15 2 -22 1q-20 -2 -28 -10q16 -8 18 -16
q4 -21 9.5 -60t7.5 -49q6 -36 8 -89q3 -35 4 -41q24 4 50 24q28 22 78 74q20 22 19 49q0 8 -2 26q-1 13 -8.5 28.5t-11.5 21t-18 23.5q-4 5 -14 11t-12 7q-8 5 -16 3zM695 668q4 -3 10.5 -14t13.5 -14q2 7 -4.5 14.5t-6.5 11.5q0 1 -2 2t-5 1t-6 -1zM117 666q-1 0 -3 -3
q6 -39 6 -40v-41q-2 -85 3 -127q1 -9 2 -39t4 -46q4 -30 4 -45q0 -12 4 -18q4 3 8 7q16 22 45 40q15 8 22 22q25 51 32 90q1 10 10 11q-9 -46 -11 -61h4q6 8 9.5 16.5t5 21t2 17.5t0 22t-0.5 19q-2 2 -3 2q-1 -1 -1.5 -5t-2.5 -6q-7 7 -3 18q5 14 2 32q0 16 2 24q4 12 -1 20
q-22 41 -30 50q-11 12 -24 16q-7 5 -42.5 4t-42.5 -1z" />
    <glyph glyph-name="Q_Q.liga" unicode="QQ" horiz-adv-x="842" 
d="M196 709q33 3 69 -31q12 -10 12 -23q0 -3 7 -15q11 -25 12 -33q2 -18 16 -27q2 4 0 10t-1 9q7 0 9 -10q14 -60 11 -79q-4 -17 4 -45q10 -37 7 -79q-9 -145 -9 -146q-6 -70 -36 -125q-2 -3 -5 -10.5t-6.5 -13.5t-7.5 -10q-1 -1 -1 -12q2 -13 25 -84q4 -11 16.5 -16t23.5 0
l7 3q8 2 11 -5q5 -5 1 -10l-7 -9q-9 -7 -13 -17q-8 -18 -27 -18q-33 0 -49 22q-12 18 -33 63l-5 9q-5 -1 -13 -6q-15 -10 -32.5 -10.5t-28.5 3t-31 12.5q-8 2 -9 9q-1 19 -25 17q-28 -2 -48 28q-44 65 -44 155l-1 88q-1 88 1 88q5 101 22 176q12 49 39 91q15 23 50 39
q6 3 17 -1q2 0 8 -2t10 -2q23 -2 31 9q4 6 23 8zM629 700q4 -1 9 -3t8 -3q13 -4 18 2q5 4 26 2q15 -2 16 -15q0 -1 10 -8q29 -26 35 -37q3 -5 15 -45q5 -18 10 -50.5t8 -64.5t4 -36q8 -38 3 -88q0 -5 -0.5 -19.5t-1.5 -23.5q-7 -65 -12 -77q-4 -11 -9 -36.5t-11 -38.5
q-7 -14 -10 -16q-6 -3 -2 -15.5t1 -17.5q-9 -16 -20 -21q-6 -3 -10 -8q-9 -14 -9 -19t10 -19q6 -10 19 -27.5t17 -22.5q11 -13 16 -23q2 -4 0 -22q0 -16 -6 -20q-5 -3 -2 -9t1 -9q-2 0 -9 4t-12 3q-4 -2 -8 7q-1 2 -1 3q-5 8 -34 58q-5 9 -15 25t-14 23q-18 -12 -26 -18
q-3 -2 -9 -5.5t-7 -4.5q-14 -6 -25 7l-8 6q-8 6 4 21.5t21 17.5q9 3 20 10q8 8 4 17q-16 34 -36 84q-11 22 -11 24l-5 25q14 1 28.5 -14.5t15.5 -16.5q14 -10 27 -47q2 0 3 1q6 17 16 53q15 47 9 90q-5 48 -1 124q1 19 0.5 67.5t-0.5 67.5q0 20 -3 41q-2 15 -8 25
q-7 8 -13 24q-11 26 -39 37q-2 1 -12.5 4t-15.5 5q-8 2 -9 10q18 18 40 12zM680 686q-3 5 -15 0q11 -7 14 -5q1 1 1 5zM540 682q4 6 21 3t22 -13q6 -10 -2 -16q-18 -15 -22 -54q-1 -8 -7.5 -34t-5.5 -41q2 -67 1 -85q-1 -16 2 -50.5t2 -50.5q-5 -49 -1.5 -92.5t7.5 -62.5
t11 -41.5t8 -29.5l21 -50l-6 -20q-15 -7 -16 -10q11 -27 11 -29q0 -13 5 -23l-7.5 -1.5t-3.5 0.5t-3.5 2.5t-5.5 2.5q-12 4 -20 3q-16 0 -39 21q-19 20 -43 66l-12 24t-13 24q-7 13 -12.5 32.5t-10.5 29.5q-2 6 -5.5 27t-2.5 27q3 14 1 47t-2 47q1 19 0.5 35t0.5 35t4 34
q3 21 3 22q0 13 2 27t5.5 31.5t4.5 26.5q2 7 5 10q9 10 14 28q6 22 21 37q2 2 11 14t17 16q28 18 40 31zM180 661q-3 -1 -8 -6t-7 -6q14 -14 -3 -29q-12 -13 -23 -52q-2 -8 -3 -16t-1.5 -18t-1.5 -15q-2 -18 -4 -51t-3 -46q-2 -35 -1 -43q2 -5 0.5 -34.5t-1.5 -34.5l3 -93
q0 -2 0.5 -6t0.5 -5q4 8 32 22q18 8 36.5 4.5t28.5 -17.5q23 -34 24 -52q1 -8 11 -20q4 12 6.5 25t4.5 30.5t3 24.5q8 70 2 135q-3 35 -11 104t-11 103q-4 37 -32 81q-17 25 -42 15zM290 530q-2 -4 3 -22q0 1 1 6t0.5 9t-4.5 7zM163 194q-13 0 -33 -4q-1 -16 8 -82
q5 -46 7 -53q3 -16 19 -20q13 -5 24 8q6 8 11 13q11 11 6 25q-7 21 -9 44q-1 15 -17 59q-4 10 -16 10zM535 189q-6 -37 15 -67q-3 39 -15 67z" />
    <glyph glyph-name="R_R.liga" unicode="RR" horiz-adv-x="923" 
d="M532 722q16 2 22 -1t11 -16q4 -9 8 -12q9 -6 11.5 -35.5t3.5 -33.5q13 -38 11 -115q-1 -20 2 -45q3 -16 1 -37q-3 -39 4 -89q8 0 15 10q9 10 24 29t28 31q28 24 43 46q12 16 14 56q1 60 -28 113q-2 4 -5.5 6.5t-6.5 3.5l-11 3.5t-12 3.5q-42 13 -65 13q-5 0 7 7q3 2 10 6
q3 1 4 2q3 2 -1 3q-7 1 -7 4q15 4 41 3q10 -1 22.5 -2.5t18.5 -2.5q14 -1 21.5 -2.5t10 -2.5l9 -3.5t14.5 -4.5q37 -4 58 -31q42 -53 22 -115q-2 -3 -4 -20q-11 -51 -41 -74q-6 -4 -15.5 -16t-14.5 -16q-6 -6 -16 -21t-23 -21q-1 -1 -3.5 -2.5t-3.5 -2.5q15 -10 35 -50
q45 -97 67 -132q10 -16 25.5 -44t23.5 -41q14 -22 14 -24t1 -4.5t1 -5t-3 -4.5t1 -9q2 -6 2.5 -16t-4.5 -17.5t-14 -3.5q-8 -24 -8 -30q0 -11 -10 -6q-2 1 -6 5q-6 9 -33 25q-43 27 -66 67q-18 29 -29 40q-24 26 -44 90q-5 16 -25 96q-2 6 -4 22q-5 0 -12.5 -7t-13.5 -5
q-3 1 -3 -8q-1 -6 -4 -52q-2 -83 0 -125q1 -11 -1 -31t-2 -29q0 -3 -1 -8.5t-0.5 -10t2.5 -8.5q3 -5 -4 -19q-8 -16 -9 -27h-8q-3 0 -7.5 5t-7.5 6.5t-10 -5.5q-4 1 -14.5 3t-16.5 4q-15 8 -31 9q-12 0 -17 12q-20 41 -21 78q-4 69 3 163q2 24 2 108q-4 159 -5 235
q0 10 5.5 47t4.5 50q0 15 10 16q3 0 4 1q14 21 51 9h2q1 4 1 12zM106 697l84 -6q62 -4 84 -19q16 -13 46 -24q20 -9 27 -30q24 -60 21 -94q-1 -6 2 -16t3 -15q1 -56 -49 -103q-8 -8 -26.5 -19t-21.5 -13q-10 -8 -17 -10q0 4 5.5 9.5t5.5 10.5q-10 -2 -30 -20q-5 -5 5 -13
q7 -6 40 -39q32 -31 55 -90q6 -15 12.5 -35t13 -36l14.5 -34q0 -1 8.5 -19l16 -34t7.5 -20q7 -26 83 -126q8 -11 6 -22q-1 -3 -4 -1q-12 9 -12 4q0 -3 5 -14q8 -18 4 -18l-4 3q-3 2 -6.5 4t-3.5 1q-6 -10 -14 -2q-2 2 -9 10q-27 31 -27 17q0 -7 5 -22l-16 3q-1 1 -2 1
q-6 3 -24 19t-43 44.5t-37 52.5q-2 5 -22 37.5t-22 35.5q-9 17 -16.5 50t-18.5 48q-10 14 -46 103q-7 17 -14 29q-23 -12 -19 -32v-8q-4 -16 -4 -34.5t2 -41.5t2 -36q2 -82 -1 -106q0 -2 -0.5 -7t-1.5 -7t-4 -4t-9 -1q-2 1 -3.5 -1t-1.5 -5q-2 -5 -4 -15q-7 3 -12.5 7
t-14 12t-11.5 10q-19 -19 -40 -6q-24 13 -25 41q-1 8 1 23.5t2 23.5q-1 23 -2 68.5t-2 67.5q0 5 -1.5 15t-1.5 11q-13 67 -8 155q2 30 3 85t2 73q3 66 2 75q0 12 -2 15q-5 0 -15.5 -3.5t-16.5 -2.5q-1 2 1.5 6t-0.5 6q-10 10 5 15q59 20 112 13zM143 652q8 -117 3 -295
q8 4 9 5q74 74 94 102q19 28 29 86q0 7 -3 13q-6 13 -5 25q2 10 -9 15q-3 1 -8 4.5t-6 4.5q-41 32 -60 37q-11 3 -44 3zM748 600l9 -71q12 44 -9 71z" />
    <glyph glyph-name="S_S.liga" unicode="SS" horiz-adv-x="774" 
d="M212 717q33 0 47 -6q6 -2 7 -2q5 1 9 0t8 -3t6.5 -4l7 -5.5t6.5 -4.5q12 -9 22 -70q6 -31 0 -28q-17 8 -17 0l-9 -27q-1 -3 -4.5 0l-8.5 7t-8 1q-5 -4 -9.5 7.5t-7.5 26t-4 15.5q-3 2 -13 19.5t-20 26.5q-16 15 -40 -3q-17 -12 -25 -23q-1 -2 -5 -7.5t-5.5 -8t-3.5 -7.5
t-3 -9.5t-2 -12t-1 -16.5q0 -40 10 -54q4 -6 5 -9q14 -30 54 -74q47 -51 71 -85q5 -7 20 -26.5t22 -30.5q4 -8 13 -1q57 41 105 102q6 9 1 17q-9 11 -16 23.5t-15 31t-12 26.5q-3 3 0 7q4 2 4.5 11.5t0 21t-0.5 14.5q1 10 4 18.5t10 22l9 17.5q13 27 43 49q3 2 13 7.5
t13 7.5q3 1 6.5 3t5.5 3.5t5.5 2.5t6.5 0q1 1 9.5 2t12.5 4q31 23 99 6q7 -1 21.5 -17t17.5 -23q0 -7 -1 -7q18 -23 4 -40q-2 -13 -17 -31q-20 -15 -26 -22q-6 -9 -20.5 -24t-17.5 -19q-4 -4 -12.5 -13.5t-15.5 -16.5t-14 -11q15 -10 36 -35q12 -14 30 -43t29 -42
q3 -4 8 -13t9 -13q36 -47 49 -113q5 -49 1 -65.5t-19 -48.5q-9 -18 -26.5 -39.5t-32.5 -28.5q-7 -3 -27.5 -11t-28.5 -13q-1 0 -9.5 -4.5t-13.5 -6.5t-14.5 -4.5t-11.5 0.5q-32 -14 -67 0q-9 4 -19.5 10.5t-24.5 17t-19 13.5q-3 2 -1 12.5t-3 12.5q-6 2 -11 22q-1 6 0 7
q1 0 3 -1q11 -8 20 -10l10 -2q23 -15 28 -6q1 1 1 3q-41 20 -43 31q12 0 36 -8q1 0 9 -3t10.5 -3.5t10 -3t11 -2.5t10 -1t10.5 0t9 3t9 5q9 8 23 23t18 19q4 6 7 14q2 5 4.5 12.5l3 9t1 6.5t0 9.5t-1.5 14.5q-1 8 -5 17t-7 14.5t-13.5 21.5l-15.5 24q-7 11 -43 54l-15.5 21
l-15.5 21q-3 -2 -16 -15l-55 -53q-14 -11 -16 -16q-1 -2 -30 -19q-18 -11 -14 -19q5 -9 5 -22t-1.5 -22t-6 -25t-5.5 -22q-1 -10 -10.5 -26t-11.5 -20q-1 -2 -6.5 -10t-7.5 -13q-7 -12 -16 -12q-12 -1 -18 -11q-3 -4 -7.5 -12t-6.5 -11q-3 -3 -8.5 -9t-9.5 -8.5t-12 -3.5
q-11 -1 -19 -6q-40 -22 -42 -23q-12 -6 -31 -9t-25 -5q-38 -11 -57 -9q-23 4 -41.5 22.5t-16.5 41.5q2 12 8 38q0 2 3 5q4 5 -1 7q-2 1 1 9q16 25 59 56q103 70 131 86q-6 15 -20 34.5t-18 31.5q-3 8 -13 21.5t-12 16.5q-4 8 -22 26q-27 27 -68 105q-8 13 -12 40q-4 25 6 67
q8 34 21 47q7 7 17 23t19.5 27t22.5 16q30 12 31 8q0 -2 -4 -7q-6 -6 -1 -5l37 15q6 5 22.5 9.5t24.5 3.5zM560 679q-7 -5 -18 -15.5t-20 -15.5q-7 -4 -16 -14.5t-10 -16.5q-2 -8 -5.5 -20t-4.5 -17.5t2 -15t12 -20.5q4 -5 13.5 -22t15.5 -20q2 1 7 9.5t12.5 19t13.5 16.5
q16 13 37 45q18 25 15 53q-1 13 -4.5 19t-10.5 10l-7 4q-11 10 -32 1zM54 504q-3 -22 7.5 -36t31.5 -13q-9 7 -20.5 24.5t-18.5 24.5zM547 434l55 -78l2 -1l4 -2q-6 26 -11 33q-3 3 -11 12.5t-13 13.5q-2 2 -6 7.5t-8.5 9t-11.5 5.5zM622 316q1 -2 4 -9.5t8 -9.5
q-1 7 -1.5 9.5t-2.5 4.5t-8 5zM192 197q-1 -1 -2.5 -1h-2.5q-4 -3 -14.5 -8l-27.5 -12.5t-29 -13.5q-17 -9 -56 -35q-22 -15 -30 -32q-6 -12 -6 -30q0 -6 1.5 -11.5t3 -8.5t5 -8.5l5.5 -8.5q9 -15 35 -8q12 4 22.5 9t23 12.5t20.5 11.5q19 9 38 34q39 56 16 104v3q-1 2 -2 3
z" />
    <glyph glyph-name="T_T.liga" unicode="TT" horiz-adv-x="791" 
d="M483 726q2 2 6 1t10.5 -7t11.5 -15q7 -4 18 -3.5t31.5 2.5t28.5 2q52 -2 79 2q40 5 90 -3q3 -3 2.5 -7.5t-6 -9.5t-13.5 -7q-29 -5 -32 -7t-28 1q-11 2 -33 -4q-3 -1 -35 -1q-11 0 -17 -4q-2 -2 2 -3q2 -1 5 -1q5 -1 15.5 -1.5t18 -1t7.5 -1.5q-2 -6 -8.5 -10t-9.5 -2
q-4 5 -25.5 2.5t-26.5 -2.5q-8 0 -14.5 -2.5t-12.5 -2.5q-14 2 -15 -1q-1 -2 0.5 -4.5t3.5 -5.5t3 -4q8 -15 12 -5.5t10 1.5q3 -5 8 -17q6 -6 16 -65q5 -15 3 -56t0 -57q1 -4 21 -235q2 -33 -13 -86q-1 -2 0 -22l2 -20q0 -14 -1 -23.5t-2 -14.5t-3 -7.5t-4 -2.5h-3.5h-3
t-3 -3t-1.5 -8t-2 -7q-6 -3 -9 -8t-5 -13.5t-3 -11.5q-2 -1 -7 6t-11 1l-10 7q-6 3 -13.5 11.5t-14 13t-14.5 1.5q-5 -2 -8.5 0.5t-6 10t-4 12.5t-4 15t-2.5 12q-3 13 -1 39q4 57 4 171q0 53 2 79q2 21 -0.5 59.5t-2.5 50.5q2 78 1 118q0 8 1 27t0 29q0 3 1.5 7t0.5 8
q-59 0 -71 1q-42 5 -77 1q-23 -3 -46 3q-5 4 -36 1t-36 -3l-52 -4q-25 -7 -61 -7q-2 0 -7.5 -1.5t-6.5 -1.5q-9 -4 -19.5 -4t-23.5 1.5t-20 1.5q-24 12 -40 17q-9 2 -16 14q2 3 8.5 6.5t8.5 6.5q5 8 21 12q22 6 46 6q14 0 31 -0.5t24 -0.5q10 0 24.5 1.5t22.5 1.5
q11 0 26.5 -1t24.5 -0.5t16 4.5q4 3 12 3.5t30 0.5t44 1q12 1 36 0.5t35 -0.5q67 3 70 3q8 1 24 -3q13 -5 14 1q4 22 8 22zM659 659q17 4 23 -2q-2 -4 -5 -5.5t-8 -2.5t-7 -2q-1 2 -3 4q-4 4 0 8zM167 622q10 -4 28 -26q4 1 3 8t-1 8q0 6 3 7q8 2 8 -2q1 -6 5 -9.5t6 -4
t9 -2.5q18 -2 26 -24q8 -26 8 -80q0 -57 1 -86q1 -46 0 -94q-1 -11 -1 -65q0 -12 0.5 -48.5t1.5 -55.5q3 -40 5 -118q0 -1 3 -61q1 -15 -8 -24q-2 -2 -7 -11t-11 -12q-1 9 -6.5 14.5t-14.5 11.5t-12 9q-1 1 -8.5 8t-9.5 12q-2 3 -4 4t-3 -1q-3 -7 -7 -4.5t-5 6.5
q-3 7 -6.5 18.5t-6 17t-6.5 5.5q-1 0 -3 -10t-2.5 -22t0.5 -22q-10 2 -12 16q-17 85 -14 119q2 17 0.5 59.5t-0.5 59.5q6 154 6 155q1 10 1.5 34t2.5 37v4q-6 18 -6 38t2.5 44.5t2.5 36.5q3 -2 4 -9.5t2 -18.5t4 -17q3 4 4 11.5t1 8.5q4 26 1 56q0 1 -0.5 4t-0.5 5
q3 14 17 10z" />
    <glyph glyph-name="T_i.liga" unicode="Ti" horiz-adv-x="611" 
d="M374 711h11q8 0 13 -10q6 -9 -4 -14q-4 -3 -10 -11t-10 -11q-4 -1 -1.5 -4.5t2.5 -4.5q-13 -6 -26 -5q-34 2 -62 2q-24 2 -49 -2q-16 -1 -20 -15q-1 0 -10.5 3.5t-15.5 2.5q2 -4 3.5 -13t4.5 -14.5t11 -9.5q4 -2 4 -14v-21.5t2 -21.5l3 -22q2 -20 2 -90q0 -19 -0.5 -67
t0.5 -67q1 -18 5 -52q3 -22 3 -87q0 -3 -1 -15.5t0 -19.5q1 -14 -1.5 -40.5t-2.5 -38.5q-1 -10 -7.5 -26.5t-7.5 -24.5q0 -3 -1 -4q-4 -2 -13.5 -3.5t-14.5 -4.5q-3 -2 -11 2l-21 12q-9 4 -17 -1q-10 -6 -22 2.5t-11 21.5l-3 76q-2 38 5 67q6 38 -1 60q-4 16 -3 33
q1 10 -0.5 27t-1.5 22q0 18 -0.5 54t-0.5 54q-2 78 5 116q1 5 1 47q3 34 4 37t-1 20q-2 7 -11 9q-44 2 -58 0q-12 -2 -33.5 -2h-26.5q-9 -2 -17 6q3 4 9 6q9 3 7 12q-1 8 10 11q8 2 56 5q3 0 104 15q11 1 39.5 5.5t49 6t40.5 0.5q44 -3 102 1zM114 642q0 2 -3 -1
q-1 -2 -1.5 -4.5t0 -4.5t1.5 -5t1 -5l6 -1q-1 3 -0.5 11.5t-3.5 9.5zM433 617q16 1 16 -13q-1 -9 11 -19q34 -31 5 -55q-3 -2 -9 -8t-11.5 -8.5t-12.5 -1.5q-4 4 -13 3.5t-14 1.5q-50 26 -15 75q14 20 43 25zM440 420q28 0 35 -29q3 -8 4 -9q8 6 11 5t3 -11q2 -8 -1 -15
q-4 -14 -1 -30q3 -21 5 -126q1 -24 7 -77l3 -27t2 -27q0 -4 0.5 -11t0.5 -9.5t1.5 -6.5t4.5 -2.5t9 2.5q38 18 52 28q34 23 38 24q10 5 15 10q18 14 32 4q-8 -12 -24 -24q-22 -18 -32 -33q-5 -10 -18 -11q-3 0 -18 -12q-3 -2 -9 -5t-9 -6q-9 -12 -11 -13q-4 -3 -18 -8
l-19 -6q-6 -3 -14 -3q-1 0 -4 0.5t-5 0.5q-2 -1 -5 -3.5t-5 -3.5q-4 -1 -12 5q-8 8 -16 9l-7 3.5t-7 3t-8 -2.5q-2 -2 -13 6q-13 13 -19 56q-3 26 -1 80q2 66 5 97q5 50 3 84q-1 8 1 30t-1 31q-1 6 12 19q13 11 33 13z" />
    <glyph glyph-name="U_U.liga" unicode="UU" horiz-adv-x="858" 
d="M746 742q11 -8 22 -40q0 -1 1 -8t3 -10.5t7 -5.5l3 -9q11 -87 5 -145q-1 -23 -0.5 -34t2 -33.5t1.5 -33.5q0 -7 1 -30t0 -36q-1 -23 1 -68.5t1 -67.5q-3 -93 -31 -154q-6 -15 -17 -14q-3 1 -10 -7q-16 -15 -68 -34q-12 -4 -32 2q-1 0 -3 1q-7 2 -7 9q0 3 -3 5t-6.5 1.5
t-5.5 -3.5q-16 -20 -49 -9q-44 15 -73 53q-9 9 -11 10q-18 5 -26 32q-4 18 -4 28q0 19 -2.5 54t-2.5 49q-2 58 2 88q1 9 -2 102q-2 59 4 109q2 23 4.5 66t3.5 57q0 6 -4 14q-5 12 -1 22q6 10 15 9q40 -4 55 -20q5 -5 11 -6q22 -4 27 -29q4 -25 4 -75q0 -8 -1.5 -66.5
t0.5 -67.5q0 -10 3 -12q14 0 11 15q-4 17 -5 37t-0.5 32t2 38t1.5 34q2 9 5 9q4 1 5.5 -1.5t1.5 -6.5q1 -8 1 -24l-3 -83q-1 -11 2 -31t3 -30q0 -57 -1 -85q0 -76 6 -97q9 -32 6 -74q-2 -23 10 -35q1 -1 4 -6q6 -32 28 -51q-5 -2 -11.5 1t-9.5 2q10 -13 27.5 -19t31.5 -1
q17 5 30 20t14 31q0 6 8 36q21 75 11 173q-4 52 -2 77q3 23 0.5 85.5t-1.5 85.5q0 9 2 73t4 93q0 1 2 9zM118 717q11 2 12 -8q10 -39 9 -69q-2 -19 5 -74q2 -13 2 -28t-1 -33.5t-1 -28.5q0 -15 -2 -44t-2 -43q-2 -53 -8 -89q-2 -14 0 -60l3 -57q2 -25 6 -35q3 -8 7.5 -22
l8.5 -25.5t8 -21.5q3 -7 11.5 -18.5l11.5 -15.5q8 -15 29 -15q25 0 35 7q40 28 40 79q0 46 6 91q2 12 1 17q-1 31 -0.5 42t3.5 41t4 41q2 26 -3 65q-6 47 -3 109q0 12 -0.5 25.5t-1.5 29.5t-1 25q0 3 -0.5 9.5t-0.5 10t1.5 8.5t5.5 9q1 1 1 20q0 13 9 14q17 1 21 -11t3 -20
v-30q8 12 5.5 35t0.5 36q8 2 8 -5q2 -9 1 -13q-2 -14 -0.5 -44.5t0.5 -44.5q0 -9 -2 -29q-2 -15 0 -45q9 -73 8 -100q-6 -108 -5 -118q1 -13 -2 -114q0 -7 -8 -47q-4 -16 0 -32q9 -36 -21 -73q-9 -10 -23 -12q-11 -2 -36 -10q-12 -5 -22 -5q-8 3 -10 -2q-4 -9 -23 -7
q-15 3 -29 -1q-30 -5 -63 14q-10 5 -28.5 17.5t-27.5 17.5q-31 18 -42 70q-4 29 -7 40q-1 5 0.5 13.5t1.5 12.5q-2 27 0 137q3 74 -2 159q-3 50 7 152q1 6 3.5 26t3.5 31q1 16 6.5 22.5t20.5 10.5q6 2 9 0q6 -6 24 -4q12 0 13 3q1 2 2 5q2 7 18 9zM572 662q7 -4 6 -19
q-3 -4 -6 2q-9 9 -5 17h5zM565 424q-8 -18 3 -27q5 16 -3 27z" />
    <glyph glyph-name="V_V.liga" unicode="VV" horiz-adv-x="889" 
d="M399 748q0 -1 -7 -22l-7.5 -22t-8 -27.5t-2.5 -22.5t-2 -22.5t-6.5 -26t-5.5 -21.5q-4 -15 -8 -45.5t-7 -45.5l-10.5 -47.5l-13.5 -59.5q-5 -19 -12 -79q-7 -45 -10 -52q-2 -8 -3 -24t-3 -24q-2 -6 -3 -17.5t-2 -15.5q-4 -36 -10 -53q-9 -24 -12 -50q-1 -9 -8.5 -23.5
t-8.5 -18.5q-4 -19 -3 -22q3 -1 5.5 2t4.5 3q2 -11 -5 -27q-8 4 -19 0q-2 4 0 14t-1 14q-7 -3 -8 -8q-8 -30 -36 -35q-3 0 -14 5q-7 4 -14 0q-9 11 -14 25t-9.5 33t-7.5 28q-20 51 -29 87q-4 15 -11.5 46l-14 55.5t-14.5 45.5q-6 18 -6 36q-2 22 -14.5 62t-15.5 56l-17 94
q-2 12 -4 18q-3 11 -2 13q1 9 1 12t-4 11.5t-5 11.5q-5 16 -7 44q0 8 5 10q6 -7 10 -25.5t9 -26.5q3 36 -4 64q-4 17 12 18q23 3 33 -12l3 -6q4 0 9 7.5t8 13.5t9.5 0t15.5 -29q5 -10 11 -32l11.5 -37.5t11.5 -43.5q12 -50 21 -104q4 -21 22 -54q2 -6 2 -9q4 -23 15.5 -66
t15.5 -64q0 -1 29 -125q8 31 18 88q4 32 8 46q2 6 10 72q2 25 4 31q5 16 9 46.5t7 42.5q4 15 7 46t6 46l29 113q11 38 15 43q5 12 11 14q1 -2 0 -10q0 -8 1 -8q2 0 5 4q1 1 3.5 7t4 9t5 8.5t6.5 8.5t7 5.5t9 3.5zM366 743q5 -16 -4 -16q-2 -1 -4 1q-1 6 1 10t4.5 5t2.5 0z
M829 699q6 -3 6 -9t1 -7q5 -1 9 1q3 2 4 -2t0 -12t-3 -17.5t-2 -12.5q-1 -19 -20 -66q-6 -13 -5 -17t-5 -17q-6 -15 -9.5 -29t-6 -29.5l-3.5 -21.5q-5 -26 -14 -47q-8 -25 -20 -88q-3 -17 -12.5 -52.5t-11.5 -55.5q-3 -18 -14 -57.5t-12 -62.5q-3 -33 -7 -43q-4 -9 -5 -17.5
t-0.5 -11.5t3 -15t2.5 -14q3 -15 -2 -28q-4 -12 -14 -4q-8 7 -11 5l-3 -3q-5 -4 -9 0q-8 8 -26.5 10.5t-25.5 6.5q-13 8 -23.5 26t-11.5 36q-2 18 -11 49t-10 37q-24 77 -53 140q-4 8 -8.5 25.5l-5.5 21.5q-28 86 -52 186q-5 31 -15 57q-4 9 -5 20q-1 13 1 15.5t14 5.5
q-15 46 -17 62q-1 8 7 11q28 10 43 -5q12 -8 30 -4q9 2 14 -8q7 -15 33 -59q13 -19 29 -61q27 -56 34 -114q3 -24 38 -115q13 -29 19 -112q7 5 7 16q3 14 16.5 56t13.5 70q0 14 4 29.5t11 33.5t10 27q1 4 8 35t14 49q4 9 7 17t4 12t5 11l11 19q3 5 7.5 18t8.5 19q7 12 14 35
t11 32q4 12 14 23zM243 103q-1 -1 -7 -26.5t-7 -26.5q-1 -2 0.5 -9.5t3.5 -9.5q0 1 2 4t3.5 5.5t1.5 3.5q11 63 3 59z" />
    <glyph glyph-name="W_W.liga" unicode="WW" horiz-adv-x="1132" 
d="M565 744q9 3 13 -1q10 -10 39 -16q26 -4 37 -30q20 -51 27 -102q14 -111 37 -192q8 -27 6 -57q-1 -11 3 -33q6 -28 5 -42q-1 -2 0 -5t1 -4l21 -129q3 -13 6 -17q0 5 2.5 28t3.5 35q5 57 19 133q1 8 2.5 26t2.5 26q6 79 27 184q2 11 0 22l-1 10q0 11 1 11q4 9 11 9
q34 -4 46 -27q5 -10 11 -32l3 -10q2 -6 5 -4q5 2 3 6q-1 3 -2.5 8t-1.5 7q0 4 6 6q3 2 6 -3q0 -1 2 -5q38 -115 45 -197q5 -49 12 -94q2 -18 8 -29q0 -1 10 -27q13 35 7 61q-4 21 0 42q1 7 4 20.5t5 24.5t3 21q2 19 8.5 53t7.5 44q17 112 37 177q4 12 6 38q16 0 21 -14
q0 -1 1 -8t3 -10t7 -5q2 -1 -1 -11q-8 -16 -14 -56q-3 -18 -8.5 -62.5t-11.5 -68.5q-1 -4 -2 -14t-2 -15q-5 -51 -9 -63q-4 -14 -4.5 -39.5t-0.5 -29.5q-9 -114 -24 -197q-1 -6 -5 -26t-5 -31q-2 -18 -13 -41q-4 -7 -9 -6q-8 2 -6 10q2 6 2 18q-1 16 -14 8q-5 -5 -10 1
q-5 5 -9.5 15.5t-6.5 13.5q-1 2 -2.5 6.5t-2.5 7t-3 2.5q0 -1 1 -6.5t1 -8.5q-2 -4 2 -12.5t0 -12.5q-31 31 -34 54q-12 73 -21 112q-5 24 -9.5 67t-6.5 55q-10 65 -17 100q0 5 -5 8q-12 -70 -13 -85q0 -47 -15 -102q-6 -24 -6 -35q-1 -51 -34 -120q-4 -8 -1 -15
q7 -19 11 -47q1 -10 -3 -13.5t-13 -0.5q-36 14 -49 42q-4 10 -7 12t-13 4q-1 -2 2 -9t-2 -10q-8 4 -16 20q-7 14 -10 16q-22 15 -36 61q-9 30 -17 92q-2 18 -7 51t-8.5 60t-5.5 51q-3 29 -19 127q-4 27 -15.5 85t-14.5 75q-1 2 -1 5t-1 4q-5 16 -3.5 21t14.5 15q4 2 5 5.5
t1 7.5t1 6zM489 710q8 0 13 -13q7 -14 1 -43q-17 -97 -20 -121q-16 -120 -27 -180q-3 -15 -5 -43t-4 -40q-2 -21 -6 -40q-3 -16 -4 -33.5t-1 -38.5t-1 -33q-1 -10 -1 -60q0 -16 -4 -21q-3 -5 -1 -15q2 -13 -2 -20q-17 -3 -47 3q-25 5 -34 29q-39 117 -48 163l-15 66t-13 57
q-3 11 -7.5 32l-6.5 31q-13 -77 -11 -108q0 -10 -3.5 -30.5t-2.5 -31.5q1 -27 -8 -100l-12 -93q-2 -6 -5 -12.5t-8 -14.5t-7 -13q-11 6 -33 14q-1 0 -4 1t-4 1t-3.5 -1t-3.5 -5q-3 -5 -8 0l-9 10q-3 -1 -4.5 -6.5t-6.5 -5.5q-2 3 -7.5 9l-8.5 9.5t-5.5 10t-2.5 12.5
q-1 9 -11 11q-20 4 -23 28q-12 100 -17 149q-12 96 -16 165q-1 12 -10 59q-4 16 -19 118q-1 7 -8 29q-6 17 -10 69q2 3 7 3t7 1q3 2 1 7q-3 15 2.5 20.5t20.5 2.5q11 -1 22 -9l3 -3l3 -3t3.5 -2t4.5 1q1 1 12.5 3t14.5 10l2 -1q1 0 1 -1q29 -52 33 -97q2 -29 8 -82.5
t8 -68.5q1 -11 2 -32.5t3 -32.5l15 -104q9 -57 13 -79q1 -4 5 -19q13 28 15 36t2 28q0 19 5 33q10 22 5 30q-1 3 1 7q6 29 13.5 82.5l10.5 73.5q2 9 7 45.5t10 55.5q2 12 2 36q0 8 9 13t14 -1q4 -5 8.5 -6t11.5 0t8 1q13 -1 14 -4q1 -2 2 -9q2 -12 7 -33.5t6 -28.5
q3 -13 9 -47.5t10 -53.5q8 -30 19.5 -87t13.5 -65q5 -29 15 -62q4 1 4 7q1 9 5.5 32.5t4.5 36.5q0 14 10 87q0 1 3 50q2 28 12 53q4 10 16 67q16 88 24 115q3 14 3 26t13 14z" />
    <glyph glyph-name="X_X.liga" unicode="XX" horiz-adv-x="732" 
d="M293 710q11 -38 -10 -88q-9 -20 -25 -63t-23 -59q-35 -86 -33 -92q5 -11 9 -34t7 -29q4 -10 6.5 -23.5t5.5 -21.5q30 -80 37 -113q2 -8 10 -37t10 -46q1 -8 5 -23t5 -17q0 -6 3 -9q5 -8 3 -12.5t-8 -14t-7 -14.5q-2 -12 -4 -13h-5q-1 0 -1 -2v-5q0 -6 -1 -7.5t-7 2.5
q-10 0 -15 5q-3 3 -8 3.5t-8.5 0t-10.5 -3t-9 -2.5q-19 -5 -27 15q-3 9 -20.5 52t-21.5 68q-1 7 -20 70q-1 4 -8 30q-4 -4 -6.5 -8t-4.5 -10t-3 -8q-3 -6 -28 -81q-2 -5 -14 -30l-29 -59q-11 -20 -33 -20q-13 0 -8 11q13 27 29.5 78.5t21.5 65.5l39 107l11 22q5 9 3 15
q-7 19 -16 55.5t-15 52.5q-10 30 -26 68q-22 52 -32 106q-1 5 -3 16.5t-3.5 18t-5.5 15t-9 15.5v6q3 2 7.5 0.5t6.5 -0.5q1 0 3 5q0 10 14 17q14 6 33 -3.5t33 -33.5q2 -2 1 2q-1 2 -3 10q-6 24 -4 25q3 2 20 -16.5t34 -43.5t19 -38q2 -14 25 -88q0 -7 3 -9q5 2 10 18
q7 16 17.5 50t24.5 57q3 5 14 21t14 25t10 21.5t9 18.5t12 9zM365 670q13 1 33 -7q16 -6 33 -9q3 3 1.5 7.5t1.5 6.5q15 12 26 -2q16 -21 27 -45q7 -17 14.5 -50t13.5 -49q4 -10 8.5 -28.5t7.5 -26.5q1 -2 2 -5.5t2 -5.5q5 0 9 9q19 31 27 69q2 6 22 42t26 53q10 27 27 36
q13 6 23 0q0 -4 -4 -9.5t-5 -8.5q-3 -6 -1 -8q11 -10 -2 -27q-16 -24 -26.5 -48t-21.5 -54t-21 -51q-4 -9 -11.5 -27.5t-11.5 -27.5q-2 -9 -1 -12q16 -36 19 -64q3 -36 19 -69q5 -10 7 -28.5t6 -28.5q12 -35 24 -58q17 -41 27 -82l9 -28q5 -13 -2 -25.5t-22 -17.5
q-2 -1 -6.5 -1.5t-8 -1.5t-6.5 -3q-19 -10 -32 6q-10 10 -20 11q-5 -3 -4 -10t0 -10q-7 0 -11.5 1.5l-7.5 2.5t-5.5 5.5t-3.5 6.5t-3.5 8.5t-3.5 9.5l-7 18q-6 17 -6 18q-5 18 -14.5 55.5t-19.5 65.5q-4 12 -15 35q-12 -14 -20 -43q-3 -9 -14 -33t-14 -38t-20 -55
q-9 -23 -21 -43t-16.5 -29.5t-3.5 -16.5q-7 -3 -25.5 -17.5t-28.5 -13.5q-7 0 -4 8q6 25 25.5 70.5t44 97.5t31.5 69l44 98q3 6 -10.5 61t-24.5 87q-40 115 -51 158q-3 13 -7.5 39t-8.5 39q-1 2 -1 6v5q-3 11 13 13z" />
    <glyph glyph-name="Y_Y.liga" unicode="YY" horiz-adv-x="735" 
d="M467 718q16 -3 18 -16q6 -37 24 -87q13 -42 24 -89q1 -5 12 -64t17 -76q0 -2 1 -10t4 -13q3 6 6 16t4 13q4 9 12 50.5t10 47.5q6 20 18 54t18 56q13 53 20 69q6 17 13 16q22 -3 22 -19q-2 -38 -7 -52q-5 -12 -7 -22t-4 -23t-5 -24q-3 -12 -12.5 -32.5t-9.5 -21.5
q-12 -32 -21.5 -97t-16.5 -82q-4 -10 -5 -30t1 -30q8 -18 4.5 -39.5t-2.5 -40.5q5 -103 5 -105q0 -37 -4 -43q-4 -7 -8 -6q-6 3 -9 0.5t-3.5 -5t-1.5 -8.5q0 -3 -12 -9q-4 0 -8 1l-3 1l-1 -1q-1 -1 -1 -2.5t-0.5 -5.5t-2.5 -9q-3 -4 -15 -4t-19 4q-23 14 -25 15q-9 4 -5 13
q4 14 -2 55q-5 46 -5 115q0 5 -0.5 13.5t-1 15.5t-1.5 13q-7 48 -6 61q1 6 -0.5 12t-6 14.5t-5.5 9.5q-36 79 -55 134q-5 14 -1 22q9 -10 20.5 -32.5t14.5 -27.5q-3 21 -20 65q-18 42 -44 128q-13 44 -23 105q0 4 1 6q8 3 26 -4q12 -4 25 4q38 20 53 -13q4 7 6 14zM308 705
q22 -12 14 -35l-12 -37.5t-16 -43.5q-2 -6 -2 -8q0 -18 -5.5 -37t-14.5 -41.5t-13 -35.5q-21 -69 -29 -87q-10 -22 -10 -53q0 -12 2 -37t2 -38q0 -121 -1 -182v-13q4 -41 -9 -62q-10 6 -13 5.5t-12 -7.5q-7 -7 -10.5 -7.5t-11.5 4.5q-12 9 -13 10q-11 9 -16 7q-2 0 -3 1
q-1 0 -5 5.5t-9 3.5q-3 -2 -4.5 -8t-3.5 -8t-4 -3q-3 3 -8 17q-8 47 -2 167q4 49 -3 97q-6 48 -21 67q-7 8 -17 48q-15 54 -42 177q-18 74 -29 95q-4 8 5 30q2 4 6 2q55 -1 86 -48l26 -38q3 16 -5 30q-3 6 4 17q15 -11 16 -24t10 -23q8 -12 12 -32q4 -21 14.5 -60l14.5 -54
q4 -13 21 -56q66 203 111 295zM89 678q7 0 7 -6q4 -8 0 -9q-2 -1 -4 1q-7 2 -7 9q-2 5 4 5z" />
    <glyph glyph-name="Z_Z.liga" unicode="ZZ" horiz-adv-x="883" 
d="M767 739q8 5 15 1t6 -14q-2 -14 6 -23v-9q0 -9 -3 -21t-9 -28.5t-8 -23.5q0 -4 -1 -5q-26 -82 -57 -145q-29 -54 -41 -81v-6q4 -2 32 2q25 4 38 0q4 -1 6 -0.5t7 2t7 1.5q20 6 36 1q10 -3 10 -9q1 -4 -6 -11.5t-12 -7.5q-26 0 -61 -11q-14 -3 -35 -7l-30 -5
q-9 -1 -12 -11q-1 -1 -1 -2q-14 -42 -28 -77q-27 -65 -63 -141q-3 -8 -15 -27q13 1 69 -2q82 -7 99 -10q29 -5 29 -6q1 -2 -5 -4q-3 -2 7 -2h8q9 -1 11 -1q20 -5 21 -5q22 0 28.5 -6t12.5 -31q-68 0 -87 2t-37 0q-14 -2 -42 0q-52 6 -106 -5q-6 -1 -34 -3.5t-42 -8.5h-7
q-14 -1 -18 2t-7 17l-3 7l-2 2q-1 0 -10.5 -7t-17.5 -5q2 9 4.5 24t3.5 19q7 37 25 79q18 44 19 51q2 15 14.5 43t16.5 41q9 33 19 54q4 8 6 14l-20 -1q-5 0 -33 -4q-51 -8 -89 -8q-17 0 -34 -1l-17 -1q-13 0 -39 -3.5t-39 -3.5q-7 0 -11 -11q-11 -36 -39 -77
q-6 -9 -13.5 -26.5t-9.5 -21.5q-7 -15 -22.5 -45t-23.5 -49q-7 -18 -17 -30q15 -2 52 5q19 3 39.5 4t47 0.5t39.5 -0.5q12 1 31 5q4 1 7 1.5t3.5 1t2 0t2 -0.5t3.5 -1.5l7 -3.5l22 -2q8 0 8 -5t-7 -7q-14 -2 -20.5 -8t-19.5 -9h-31q-33 -2 -55 -1t-50 -0.5t-55 -5.5l-9 -1
q-9 -1 -13 -5q9 -2 31 0q26 3 167 7h29q-8 -5 -24 -7.5t-18 -3.5q-5 -1 -16 -2t-17 -3q-13 -6 -38 -6q-9 0 -21.5 -2t-15.5 -2q-36 -4 -69 -10.5t-48 -8.5q-3 0 -15 -3q-29 -7 -29 -4q-1 2 4 6q3 3 -3 4h-10q-12 1 -17 2q-9 2 -12 8.5t-3 24.5q0 26 14 61q55 133 69 182
q10 28 16 42q-13 0 -33 -4q-3 0 -7 -2t-7 -2q-3 -1 -9 3t-8 5t-3.5 3t-1 4t0 4t-1.5 4q-13 21 17 27q11 2 34 2.5t38 4.5q4 1 11 15l61 122l40 78q2 6 10.5 12.5t10.5 4.5q1 -6 -5 -18.5t-7 -18.5q11 16 23 45t19 42q-4 1 -26 -0.5t-39 1.5h-8h-13.5h-8.5q-55 -4 -66 -4
q-8 0 -27.5 3.5t-32.5 3.5q-6 0 -19 -1.5t-19.5 -2t-11.5 1.5q-4 3 6 7q4 2 0 3q-1 0 -11 5q-4 2 -4 5t3.5 5.5t7.5 2.5q67 8 75 8q47 -1 172 8q6 0 18.5 -0.5t19.5 0.5q23 2 29 9q8 10 20 -2q1 -2 6.5 -7.5t6.5 -7.5t4 -9t0 -11q-1 -2 2 -12q5 -14 -3 -29q0 -1 -1 -3
t-1.5 -3.5t-0.5 -2.5q3 -17 2 -24t-6.5 -22.5t-7.5 -22.5q-3 -14 -15 -36.5t-15 -31.5q-43 -104 -44 -107q14 3 33 3t35 4q4 1 55 1q19 0 52 3l37.5 3.5t42.5 3.5q15 2 21 14q7 18 17.5 50t19.5 53q10 25 15 41q10 31 38 87q6 15 2 25q-12 0 -32 2t-33 3q-10 0 -26.5 4
t-31.5 1q-4 0 -14 2q-5 0 -14 -1t-14 0q-28 6 -37 14q-6 4 -5 9q1 4 8 6q15 2 23 9q1 3 11 2t12 -1q10 1 30 2t30 2q15 1 44 -0.5t38 -1.5q11 0 36.5 2.5t39.5 2.5t21 11q2 3 7 8.5t6 6.5q10 10 20 3q7 -3 12 0zM784 352q-3 -5 -8.5 -7.5t-10.5 -3t-11.5 -0.5h-8.5
q0 4 2 5.5t5.5 3t5.5 2.5h26zM532 126q-6 -4 -13 -20q-3 -6 -7 -18.5t-7 -17.5q-7 -9 -7 -17q1 0 17 8q-1 17 18 49q6 9 -1 16zM606 66q-6 0 -17.5 0.5t-18.5 0.5t-16.5 -1.5t-17.5 -6.5l35 3t35 4z" />
    <glyph glyph-name="a_a.liga" unicode="aa" horiz-adv-x="777" 
d="M800 119q10 -2 6 -10v-2q-4 -4 -14.5 -15.5t-19 -19t-19.5 -15.5q-13 -6 -27 -20l-12 -6q-11 -3 -18.5 -11t-16.5 -12q-16 -7 -27 -8t-15.5 2t-8 8t-4.5 6q-7 3 -6 -1q0 -4 6 -12q1 -1 -2.5 -2t-6.5 -1q-10 1 -25 12q-1 1 -6 0l-5 -1q-5 0 -7.5 2t-5.5 6.5t-7 7.5
q-6 5 -14 23q-15 -15 -20 -17q-13 -13 -42 -26q-8 -10 -18 -10q-7 0 -21 -1.5t-16 -1.5q-5 0 -10 1.5t-10 5t-8 6t-8 8.5l-7 8.5l-7 9t-6 8.5q-12 16 -16 35q-25 -31 -31 -36q-28 -24 -43 -33q-26 -17 -66 -16q-9 0 -20 16q-7 13 -15 22q-6 0 -10 -6q-5 -8 -8 -8
q-7 -1 -15.5 -8t-14.5 -9q-4 -4 -18 -2.5t-18 1.5q-5 0 -7 -2l4 -2h2l9 -2q-5 -6 -40 -4h-3q-39 3 -52 19q-18 22 -22.5 32t-5.5 27l-2 39q-2 46 30 88q28 38 78 50q5 2 15 4t18 4.5t15 6.5q5 3 15.5 0.5t16.5 -0.5q4 25 -2 103q0 22 -20 14q-38 -15 -95 -17q-1 0 -4.5 -0.5
t-4.5 -1.5q-12 -6 -18 -4.5t-15.5 6.5t-15.5 5q-1 7 4 7q67 18 79 19q10 1 20 4t22.5 8.5t19.5 7.5q22 7 24 7q18 1 32 -7q23 -12 31 -11q2 4 -3 7.5t-5 4.5t-5 4q-4 2 0 2q25 0 45 -20q25 -27 17 -58v-6q6 -28 0 -72q-1 -5 0.5 -13t1.5 -11q2 -80 1 -103q0 -7 -3 -25
t-3 -23q-1 -13 5 -34q18 -2 36 13q14 5 42 37q0 19 11 85q3 22 27 44q19 16 30.5 22.5t33.5 10.5q1 0 18 3t25 6l11 -1q12 0 23 0.5t11 4.5q5 51 5 63q0 14 4 17q7 7 -1 18q-6 10 0 20l-23.5 -2.5t-26 -3.5t-20.5 -5q-43 -14 -69 -17q-1 0 -14.5 -2.5t-14.5 -2.5
q-15 0 -16 8q-1 5 1 6.5t6.5 2t6.5 1.5t8.5 2t11 3.5t8.5 6.5q3 3 14.5 6t15.5 5q16 7 47 16q28 8 72 10q12 1 35 -3t26 -4q15 -2 15 -17q0 -4 2 -13t2 -13t-2 -13q9 -1 9 8q0 11 -1 16q-2 9 3 11q8 2 12 -4q7 -14 6 -20q-2 -14 -1.5 -33.5t-1.5 -34.5q-2 -20 -2 -30
q1 -28 -3 -81t-4 -64q0 -6 2.5 -17t1.5 -19q-1 -18 3 -28q11 -24 18 -20q10 0 20 6q44 28 59 41q14 12 30 21q8 4 12 3zM562 390q10 -2 17 -8q-2 10 -4 11t-13 -3zM538 72q6 5 5 11q-7 57 -2 156q0 5 -1.5 6t-4.5 -1.5t-7 -3.5t-8 1t-33 -8q-6 -1 -10 -4.5t-8.5 -9.5
t-5.5 -8q-2 -3 -8 -6.5t-9.5 -8t-4.5 -11.5q4 3 20 16.5t26 17.5q4 -8 0 -12q-17 -18 -24 -42q-1 -4 -4.5 -13t-5.5 -16.5t-2 -14.5q1 -13 2.5 -18l3.5 -11.5t4 -17.5q6 -31 28 -23q7 3 17 5t16.5 5t15.5 11zM167 159q1 6 0 20t1 20q1 4 1 31q-11 -3 -14 -7q-6 -8 -10 -8
q-6 0 -11 -4q-4 -3 -10 -8.5t-11 -9.5q-16 -11 -22 -27q-13 -34 -12 -66.5t13 -43.5q1 -1 6 -5.5t5.5 -5t5.5 -3.5t6 -1.5t7 1.5q5 2 20.5 10t19.5 9q7 2 7 16v18q1 7 -1.5 27t-0.5 37zM442 165q4 7 -1 9q-1 0 -2 -1q-5 -3 -1 -14q2 4 4 6zM23 21q2 -1 5.5 -5t7.5 -6t10 -2
q-24 29 -29 38q-8 13 -10 4q0 -2 -1 -5q-2 -6 2 -8t8 -8t7 -8z" />
    <glyph glyph-name="b_b.liga" unicode="bb" horiz-adv-x="760" 
d="M43 620q10 4 15 -4q14 -18 21 -24q3 -2 5 -11q1 -8 3.5 -23t4 -27.5t1.5 -23.5q-2 -23 -0.5 -75t0.5 -75q0 -4 4 -6q39 35 106 54q36 10 50 -18q3 0 4 2l2 4t4 1q7 -4 7 -8q0 -12 4 -20q5 -9 8 -10q11 -2 13 -18q10 -72 3 -133v-5q5 -16 -2 -65q-8 -48 -17 -67
q-11 -25 -35 -54q-15 -18 -42 -26q-10 -2 -13 -1q-8 5 -24 8t-23 7q-4 2 -13 11q-2 2 -8.5 12.5t-12.5 14.5q-4 -8 -3.5 -26t-5.5 -25q-6 -1 -9 5t-5 7q-2 -14 -6 -17q-5 3 -22 17.5t-29 19.5q-2 -2 -2.5 -8t-4.5 -8q-16 9 -15 28q1 11 -1.5 29.5t-2.5 26.5q-4 86 0 144v60
q1 69 1 206v88q0 13 2.5 16t14.5 7q10 2 23 10zM361 613q25 16 38 -5l4.5 -7t2.5 -3.5t3.5 -1t6.5 0.5q11 1 15 -1t9 -13q22 -47 25 -101q1 -17 1.5 -48.5t0.5 -41.5q0 -2 5 -42l56 49q2 2 8 5.5t9 7.5t3 10q0 2 2 2.5t4 -0.5q7 0 14 5q4 6 12 2q4 -2 12 -4.5t12 -4.5
q13 -8 20 -1q5 5 13 -2q19 -10 28 -32q5 -14 19 -40q11 -20 11 -43q1 -47 -6 -95q-8 -51 -11 -83q-5 -50 -33 -89q-24 -33 -61 -37q-3 0 -19 5q-6 2 -32 4q-17 1 -35 14q-7 4 -13 10t-12.5 14t-10.5 12q-6 5 -8 6q-8 -12 -7 -25q0 -12 -7 -19q-2 -3 -13 -6.5t-15 -2.5
q-8 3 -20 25q-11 20 -17 26q-12 12 -14 37q-4 34 -3 67q2 74 0 98q-3 26 2 55q9 66 6 131q-1 21 0 58.5t1 49.5zM544 366l-16.5 -8t-18.5 -10q-20 -10 -31 -22.5t-8 -33.5q1 -8 -1 -24q-7 -55 -6 -117v-46q0 -10 6 -15q4 -4 15 -14t18 -15q14 -12 31 0q22 13 34 43
q1 2 3.5 6t3.5 7t1 7q-1 14 7.5 57.5t2.5 60.5q-2 6 -1 8t4.5 5t4.5 5q1 4 -1 10q-2 10 -6.5 30t-7.5 30q-4 18 -8 29q-8 19 -26 7zM195 368q-36 -5 -46 -12q-23 -17 -41 -38q-14 -15 -14 -37q0 -14 3 -48t2 -53q-1 -11 2 -32.5t3 -32.5v-49q9 -3 26 -12t23 -11q19 28 24 44
q14 35 22 100q9 66 7 140q0 6 -2 17.5t-2 15.5q-2 8 -7 8zM600 204q-6 -14 -13 -42q0 -9 2 -11q2 -4 0 -17t-2 -17q0 -10 6 -13q1 10 5 34t4.5 34.5t-2.5 31.5z" />
    <glyph glyph-name="c_c.liga" unicode="cc" horiz-adv-x="651" 
d="M705 157q3 -6 -3 -10q-4 -4 -14 -10q-20 -12 -46 -36q-3 -3 -8.5 -8t-7.5 -7t-6.5 -5.5l-6.5 -5t-6.5 -4t-9 -4.5t-10.5 -4q-5 -1 -12 -6q-21 -16 -52 -31q-30 -14 -45 -15q-5 0 -9 -4q-13 -14 -27 -1q-7 5 -12 1q-10 -7 -26 1q-19 9 -36 20q-2 2 -8 4t-9 5
q-28 27 -36 59l-3 9q-5 -5 -10.5 -14t-10.5 -12q-4 -2 -7.5 -5.5t-7.5 -8.5t-6 -7q-13 -13 -16 -18q-1 -1 -6 -4q-3 -2 -5 -3q-16 -11 -27 -15q-8 -3 -24.5 -5.5t-26.5 -9.5q-38 -26 -67 -5q-10 7 -20 3t-18 0q-53 30 -61 91q-5 32 -5 56q0 110 7 155q8 44 16 66
q11 30 36 31q2 0 21 11q41 23 80 3q3 -1 9.5 -3.5t9.5 -4.5q4 -3 8 1q10 9 21 -2q6 -3 7 -4q37 -23 38 -67q2 -33 -7 -47q-4 -6 -13.5 -15t-12.5 -13q-4 -4 -7 -2q-7 1 -8.5 0.5t-6.5 -5t-7 -5.5q-11 14 -11 32q2 38 2 57q0 16 -12 28t-27 12q-14 2 -20 -10q-3 -4 -8 -11.5
t-8 -11.5q-9 -12 -6 -24q0 -13 -1 -15q-5 -12 -7 -67q0 -23 6 -37l1 -1v-2q-2 -11 2 -31t4 -28q-2 -43 10 -69q8 -16 14 -22q14 -14 32 -8q37 9 75 27q25 12 62 55l10 10q-4 11 -4 24q2 60 7 106q2 19 10 51.5t10 41.5q0 4 2 12.5t3 13.5q2 11 11 16t19 1q21 -9 24 -16
q6 6 -1 13q-7 5 -7.5 8t6.5 8q40 35 81 17q8 -4 12 -2q8 3 35 -4q27 -5 36 -38q4 -11 6 -44q2 -13 -8 -14q-8 0 -8 -14t-9 -15h-1l-1 -1q-1 -1 -2 -4.5t-1.5 -5.5t-3 -3.5t-5.5 0.5q-22 12 -25 21q-5 14 -9 37t-6 29q-5 17 -21 25.5t-31 1.5q-6 -3 -7 -8q-3 -22 -2 -24
q8 -29 -3 -72q-11 -47 1 -102q5 -24 27 -91q4 -18 20 -16q9 0 9 -12q0 -6 5 -8q4 -2 16 -1t14 -4q2 -2 12 3q7 3 21.5 8t32.5 13q15 6 32 19.5t26 18.5t26 16t30 18q2 1 6.5 2.5t6.5 2.5q6 2 10 -2zM59 300q3 3 4.5 14.5t-1.5 15.5q-3 -3 -4 -14.5t1 -15.5zM410 84
q1 -2 2.5 -10.5t3 -11.5l4.5 -9t8.5 -9t12.5 -5q-25 34 -31 45z" />
    <glyph glyph-name="d_d.liga" unicode="dd" horiz-adv-x="882" 
d="M851 65q-6 -5 -3 -6q2 -1 -4 -5q-36 -24 -40 -29q-5 -7 -12 -8q-5 -1 -7.5 -0.5t-3.5 -1t-2 -7.5l-4 -2l-7.5 -5.5t-2.5 -4.5q-31 6 -36 5q-11 -1 -51 11q-23 7 -32 30l-7 15q-17 -21 -26 -42q-3 -7 -25 -19.5t-28 -10.5q-25 6 -40 0q-6 -2 -16 2q-26 9 -58 30
q-18 13 -26 30q-4 8 -10 26q-16 -19 -30 -30q-8 -6 -31 -31q-11 -10 -40 -16q-51 -9 -79 28q-2 2 -5.5 6.5t-5.5 6.5l-3 11.5t-3 10.5q-5 18 -12 96q-7 87 -4 114q3 32 -9 59q-10 22 -37 43q-9 -20 -22 -19q-6 0 -8 -9q0 -1 -8 -17q-17 -40 -12 -66q7 -26 4 -47
q-2 -10 -3 -29.5t-2 -25.5q-2 -62 7 -87q3 -8 5 -24q5 -33 36 -23q13 4 19 9t18 18q2 3 9 5l2 4q3 -4 0.5 -22.5t-7.5 -29.5q0 -1 -4.5 -6.5t-11.5 -11.5t-12 -7q-45 -3 -92 24q-27 17 -45 69l-11 23q-6 10 -9 22t-4.5 30t-2.5 23q-6 33 2 98q7 51 27 89q24 45 68 52
q2 0 5.5 2t4.5 2q18 6 28 -4q6 -6 9 -7q37 -12 58 -38q10 79 11 133q1 25 7.5 69.5t7.5 53.5q8 2 10.5 2t8.5 -5.5t8 -6.5l2 4q-2 12 0.5 15t13.5 2q10 -2 15 0q11 5 16 -10q8 -29 13 -68q7 -70 7 -81q1 -24 -1 -66.5t-2 -58.5q2 -33 -4 -61q-4 -28 -3 -56q2 -21 0 -41
q-2 -22 2 -38q4 -30 2 -46q-1 -12 3 -38q3 -25 25 -13q10 6 20.5 10t16 8.5t14.5 16.5q5 6 11 11q-1 9 -1 26q0 22 2 61.5t2 61.5q2 33 15 61q18 42 31 60q8 11 12.5 12t18.5 -6q11 15 31 8q9 -4 37 1q35 3 52 -17q3 -5 9.5 -17t12.5 -17q0 24 2.5 111.5t0.5 133.5
q19 7 21 10q6 9 9.5 9t12.5 -7q4 -2 5 -3q4 1 8 6.5t7 7.5q1 1 3.5 4t4.5 4t6 0q1 -1 6.5 -3.5t8 -4t4.5 -5t1 -7.5q-1 -11 3.5 -33.5t2.5 -34.5q-1 -4 0 -8q4 -19 5.5 -41t1.5 -37t-0.5 -42.5t-0.5 -38.5q0 -59 3 -88q4 -50 2 -75q-1 -14 -0.5 -42t-0.5 -42v-24
q-2 -12 1 -17q11 -21 14 -24q3 -7 11 -4l4 2q16 4 44 26q20 16 59 42q1 1 4.5 3t5 3t4 3.5t3.5 6.5q4 10 14 9.5t18 -9.5q-17 -17 -43 -39t-29 -25zM631 106q-2 8 -2 17.5t1 21.5t1 20q2 23 -1 64t-3 56q1 11 -12 26q-8 7 -21.5 23t-21.5 23q-5 5 -6 4q-2 -1 -24 -3
q-4 -1 -6 -8q-9 -27 -17 -43q-4 -6 -2 -18q4 -16 2 -49q-2 -6 -2 -11q7 -73 6 -118q-1 -26 24 -63q4 -6 11 -10.5t11 -3.5q3 1 11 4t13 6t9 7q4 6 10 19.5t13 20.5q8 8 6 15zM299 18q5 2 1 9q-4 6 -9 8q-3 -6 -1 -13q2 -8 9 -4zM103 7q-3 5 -15.5 15t-18.5 11q4 -6 16 -16.5
t18 -9.5zM561 8q1 8 -2.5 13t-8.5 2q-3 -2 -10.5 -0.5t-10.5 1.5q7 -8 11.5 -10t20.5 -6z" />
    <glyph glyph-name="e_e.liga" unicode="ee" horiz-adv-x="643" 
d="M487 424q12 9 23 -3q4 -6 15 -8q25 -5 41 -38q1 -1 2 -4q9 -17 7 -27v-2q-2 -9 -3 -16q0 -3 -10 -34q-2 -8 -17.5 -18t-17.5 -12q-2 -1 -14.5 -12.5t-17.5 -13.5q-14 -6 -27.5 -19t-20.5 -18q-26 -16 -34 -23q8 -10 16 -38q11 -34 36 -59q21 -21 79 -23q8 0 20 7
l12.5 10.5t15 11.5t16.5 10q6 2 28 20q19 14 40 17q6 0 7 -4q1 -6 -3 -8l-32 -25q-5 -4 -19.5 -17l-21.5 -19q-10 -7 -35 -32q-6 -5 -23 -12t-23 -12q-9 -8 -28 -4q-6 1 -17 1.5t-15 0.5q-57 2 -83 33q-4 6 -8 7q-34 20 -43 72l-2 5q0 6 -1 7q-2 1 -4 -1t-4 -4.5t-3 -3.5
q-33 -24 -43 -45q-2 -4 -7 -8t-12 -8t-9 -6l-7 -7t-9.5 -8t-8.5 -2q-8 0 -11 -7q-5 -9 -15 -15t-27.5 -11.5t-20.5 -6.5q-9 -3 -16 -4.5t-16 0.5t-12.5 3t-16 6t-15.5 6q-5 1 -11 7q-41 38 -56 96q0 1 -1.5 5t-1.5 6t-1.5 14t-1.5 17q2 16 2 45q0 62 3 89q5 54 40 100
q8 11 14.5 12t22.5 -6l6 11q5 12 15 5q6 -5 25 1q48 19 83 -3q6 -3 26 -8q12 -3 18 -11q10 -9 7 -18q-2 -3 1 -20q9 -30 -9 -77q-7 -25 -28 -41q-8 -5 -15 -14q-3 -4 -14 -9.5t-15 -8.5l-64 -41q-8 -6 -6 -13q16 -38 19 -42q1 -1 2.5 -4.5t2.5 -4.5q7 -4 18 -12.5t20 -12.5
q12 -5 30 3q14 5 66 41q13 10 28 26t22 22q7 5 8 15q1 13 1 51.5t3 51.5q2 10 8 28t8 25q8 28 11 34q22 43 57 61q17 8 54 9q22 1 -7 -9q-4 -1 -1 -5q2 -1 3 -1q4 2 12 1t11 6zM476 399q-19 2 -23 -12q-1 -3 -4 -7.5t-3 -5.5q-22 -43 -22 -45l-15 -72q-4 -30 -2 -41
q45 42 53 53q6 10 9.5 17t5.5 12.5t4 8.5q0 1 7 24q5 18 -4 52q-4 16 -6 16zM164 382q-4 -1 -11 -1.5t-10.5 -1.5t-9 -3.5t-10.5 -7.5q-18 -17 -17 -41q0 -3 -1.5 -8.5t-1.5 -7.5q-16 -61 -2 -126q8 8 28 21.5t30 24.5q2 2 6 4q2 2 4 6q1 3 2 5q6 9 8.5 31.5t4.5 27.5
q4 7 4 21q0 9 -3 18t-8 19t-7 16q-2 5 -6 3zM211 345v-25q10 12 0 25z" />
    <glyph glyph-name="f_f.liga" unicode="ff" horiz-adv-x="556" 
d="M464 671q9 -6 36 -4q18 0 30 -9q4 -3 -3 -4q-4 0 -10 1q-23 1 -48 -11q61 4 66 -3q3 -5 -6 -7q-1 0 -3 -1q-8 -1 -4 -3q1 -1 4 -2q4 -2 -5 -5q-4 -2 -17 -6q-33 -11 -43 -18q-19 -13 -31 -38q-18 -36 -18 -38q0 -9 -4 -28.5t-6 -36.5q-1 -13 -1 -38q3 -1 13 1q40 6 50 6
q39 0 47 2h2q2 -1 6.5 -1t7 -1t2.5 -5q0 -3 -0.5 -4.5t-2.5 -2t-4 -0.5t-4.5 0.5t-4.5 0.5q-1 0 -4 -1t-5 -1q0 -2 5.5 -3.5t4.5 -4.5q-2 -4 -10 -9t-11 -4q-6 3 -8.5 2.5t-8 -3t-7.5 -3.5q-1 0 -12 -1t-17 -2q-16 -4 -37 -4q-3 -15 4 -59q1 -6 1 -72v-148q0 -10 -2.5 -32
t-2.5 -28q-1 -8 -2 -41t-5 -51q-4 -26 -17 -32q-3 -2 -9.5 -8t-10.5 -9q-3 -1 -6 5.5t-6.5 15.5t-5.5 11q-1 1 -2 -1t-2.5 -6t-2.5 -7.5t-2.5 -6.5t-3.5 -3q-5 0 -7 5q-2 10 -11.5 26.5t-10.5 18.5q-4 9 -4 21q-2 37 4 69q8 38 -2 78q-6 22 -6 92q-2 77 2 131q2 11 -1 22
q-4 1 -13.5 -1.5t-12.5 -2.5q-10 0 -15 -1.5t-7 -1.5l-18 -2q-14 -2 -26.5 -4l-22.5 -3.5t-26 -1.5q-8 0 -11 -5q0 -9 1.5 -31t1.5 -45q0 -10 -0.5 -29t-0.5 -29q0 -34 -3 -50q-3 0 -1 -41l2 -41q0 -50 3 -73q2 -22 -6 -31q-2 -3 -1.5 -8.5t-0.5 -8.5q-7 5 -5 21
q1 4 -0.5 11.5t-1.5 10.5q0 5 -2 27q-3 -12 -2 -36.5t-3 -34.5q-6 4 -9 14.5t-6 14.5l-2.5 -17.5t-1.5 -13.5q-1 -7 -12 -14.5t-17 -5.5q-4 1 -6 5q-2 2 -8 11.5t-8.5 13t-7.5 12t-7 14t-4 13.5t-2 15q0 12 -1 28.5t-1.5 24t0.5 15.5q2 8 -2 56q-7 81 -5 124l2 36t1 36
q-8 1 -30 -2q-19 -3 -20 -1t4 6q4 3 -12 14t-9 19q43 19 68 22q4 8 2 26q-7 52 33 129q12 22 44 62q7 11 18 11q11 1 33 9q7 2 22 2q1 0 13.5 2t13.5 0q26 -10 34 -9t21 -19q7 -11 2 -11q-8 0 -9 -3t2 -7.5t5.5 -10.5t4 -12t-3.5 -11q-7 -3 -33 7t-41 3q-33 -15 -40 -31
q-10 -20 -6 -30q3 -8 -1 -24.5t-4 -19.5v-9.5v-12v-10.5q-1 -6 0.5 -16.5t1.5 -14.5q33 -2 88 3q54 5 67 7q2 17 4 53q4 47 23 95q9 25 31 41q8 6 13 18q8 20 38 31q8 3 21 9.5t23 9.5q13 4 19 2zM117 456h-3q-5 -12 -5.5 -28.5t5.5 -18.5h2q1 5 1 47z" />
    <glyph glyph-name="f_i.liga" unicode="fi" horiz-adv-x="462" 
d="M480 109q18 14 32 4q-8 -12 -24 -24q-22 -18 -32 -33q-5 -10 -18 -11q-3 0 -18 -12q-3 -2 -9 -5t-9 -6q-10 -12 -11 -13q-4 -3 -18 -8l-19 -6q-6 -3 -14 -3q-2 0 -5 0.5t-4 0.5q-2 -1 -5 -3.5t-5 -3.5q-4 -1 -12 5q-8 8 -16 9l-7 3.5t-7 3t-8 -2.5q-3 -2 -13 6
q-13 13 -19 56q-3 26 -1 80q2 66 5 97q5 50 3 84q-1 8 0.5 25.5t0.5 26.5q-114 -9 -119 -11q-13 -5 -13 -7q0 -15 -2.5 -62t-0.5 -73q1 -12 3.5 -53t3.5 -63l3 -180l-2 -4l-2 -4q-3 -1 -4.5 3t-3.5 8.5t-4 4.5q4 -21 -19 -71q-11 13 -26 14q-12 1 -18 18q-2 8 -15 27
q-14 25 -16 61q-4 62 -5 93q-2 62 0 94q1 10 3.5 37.5t2.5 38t-3 38.5q-1 4 -1 41q0 15 -2 20q-19 0 -28 -6q-11 -8 -21 3q-8 10 3 18q3 2 0 13q-4 15 12 17l24 3q10 1 12 3t3 13q0 9 0.5 26.5t0.5 26.5q0 31 14 68q8 21 37 50q26 24 88 42q34 9 48 7.5t36 -11.5q1 -1 6 -3
t9.5 -4.5t5.5 -4.5q-7 -2 -25.5 5t-30.5 1q-7 -3 -4 -5q2 -2 9 0q11 4 21 -1q14 -6 26 -10t14 -5q6 -3 9 -16q-2 -1 -2 -2q-11 4 -33.5 3t-33.5 -3q-19 -4 -38 -18t-25 -29q-13 -36 -20 -66q-5 -19 -5 -54q58 -1 107.5 5t64.5 5q28 0 35 -29q3 -8 4 -9q8 6 11 5t3 -11
q2 -8 -1 -15q-4 -14 -1 -30q3 -21 5 -126q1 -24 7 -77q0 -9 2 -27l3 -27q0 -4 0.5 -11t0.5 -9.5t1.5 -6.5t4.5 -2.5t9 2.5q38 18 52 28q34 23 38 24q10 5 15 10z" />
    <glyph glyph-name="f_t.liga" unicode="ft" horiz-adv-x="493" 
d="M347 403q-14 -2 -15 -6v-10q1 -20 4.5 -41.5t4.5 -38.5q4 -58 3 -70q0 -16 1.5 -34t4 -40t3.5 -34q0 -9 1 -19.5t2.5 -23.5t2.5 -20q2 -17 23 -32q4 -4 10 -1q1 0 13 3t16 7q11 9 20.5 15.5t19.5 11.5t13 6t3 -3q-1 -19 -23 -42q-10 -11 -21 -16q-8 -3 -15 -10t-15 -10
q-7 -2 -14 -7q-22 -18 -66 -15q-2 0 -5.5 1t-6.5 1t-6 -3t-8 5q-2 4 -5.5 12t-5.5 12q-4 10 -10 7q-4 -2 -7 3q-21 28 -26 60q-4 29 -4 87q0 16 -0.5 74t1.5 74q2 29 4 83q-35 -2 -69 -9q-54 -12 -54 -19q0 -97 1 -112q1 -21 0 -71.5t-1 -67.5l3 -180l-2 -4l-2 -4
q-3 -1 -4.5 3t-3.5 8.5t-4 4.5q4 -21 -19 -71q-11 13 -26 14q-12 1 -18 18q-2 8 -15 27q-14 25 -16 61q-4 62 -5 93q-2 62 0 94q1 10 3.5 37.5t2.5 38t-3 38.5q-1 4 -1 41q0 15 -2 20q-21 0 -28 -3q-12 -5 -21 -5q-4 0 -4.5 4.5t2 10.5t5.5 8q9 8 6 10q-12 0 -7 8q4 6 13 8
q4 1 12 3.5t12 3.5q10 1 12 3t3 13q0 9 0.5 26.5t0.5 26.5q0 51 14 88q8 21 37 50q35 32 88 42q31 5 36 4q7 -2 9 -6q-40 -9 -54 -8q-4 1 -14 -4q-3 -1 -19 -20q2 -1 10 4q26 17 49 16q4 0 5 1q10 4 13 4t10 -5.5t10 -6.5q4 -2 8 -9t-1 -9q-5 -1 -14.5 -6.5t-13.5 -6.5
q-27 -9 -39 -37q-5 -14 -23 -93q-2 -8 -2 -50q68 3 119 12l-1 25q2 17 0 33q-2 11 5 46q4 -5 5.5 -16t4.5 -16q8 18 4 46q-2 20 14 29q26 -14 40 -60q4 -12 8 -42.5t5 -33.5q3 0 40 7q36 5 34 3q-1 -1 -10 -4q0 -1 8.5 0.5t19 4t13.5 2.5q32 0 33 -7q0 -3 -5 -5q-4 -2 5 -5
q11 -4 13 -6q-6 -7 -17 -10t-28 -4.5t-22 -2.5q-3 0 -14 -1t-18 -2q-5 -1 -33 -4zM337 28q-11 32 -16 32q-1 0 0.5 -7t3.5 -14.5t2 -8.5q0 -6 6 -6q2 -1 3 0.5t1 3.5z" />
    <glyph glyph-name="g_g.liga" unicode="gg" horiz-adv-x="795" 
d="M785 155q16 13 37 -1q-10 -10 -32.5 -26t-31.5 -25q0 -1 -7 -5t-7 -5q-7 -9 -10.5 -12t-9.5 -7t-11 -9q-7 -4 -17.5 -14t-15.5 -13q-2 -1 -2 -11q0 -39 -11 -98q-3 -18 -2 -32q2 -17 -17 -59q-3 -1 -7 1.5t-6 2.5q-7 -9 -6 -18q1 -8 -4 -16l-27 -33q-9 -9 -17 -10
q-7 -2 -17 -9t-14 -9q-45 -17 -84 4q-4 2 -29 17q-8 5 -17 17q-18 23 -19.5 56.5t13.5 58.5l12 21q3 6 7.5 11.5t7.5 8l10.5 8.5t9.5 8q17 12 52.5 31t43.5 24q8 6 10 6q17 4 14 38v17q-6 -2 -23 -19q-5 -5 -9 -13t-11 -12q-17 -10 -34 -4q-24 0 -28 5q-6 -4 -13.5 0
t-11.5 8q-26 17 -50 59q-1 0 -6.5 -5.5t-9.5 -7.5q-25 -20 -29 -23q-9 -7 -28 -20q-7 -3 -16 -12q-11 -11 -6 -22q9 -27 -2 -51q-2 -5 -2 -17q2 -27 -17 -87q-20 -66 -55 -99q-13 -15 -26 -15q-5 0 -27 -12q-6 -3 -19.5 -11.5t-23.5 -11.5q-15 -5 -21.5 -3t-15.5 17
q-4 6 -11 6q-23 2 -36 31q-3 8 -8 38q-8 39 17 78q23 39 59 75q7 7 19.5 15.5t14.5 9.5q9 6 38 30q2 2 13.5 8.5t13.5 12.5q1 3 -2 33q0 7 -4 25q-13 -7 -16 -15q-3 -6 -11.5 -17.5t-11.5 -18.5q-4 -9 -21 -17l-27 -12q-17 -6 -41 8q-5 2 -16.5 9t-18.5 10q-10 5 -17 19
q-25 47 -33 99q-15 97 29 205q17 36 30 49l3 3q11 13 22 5q1 -1 12 2q24 6 40 -8l12 -6q40 -12 46 -53q0 -3 2 -9l6 -2q2 49 0 61q-3 21 15 15q19 -6 35 -22l6 -6q3 0 4 1.5t1 3t1 3.5t3 3q28 -19 30 -38l3 -53q2 -21 4 -64l3 -65q2 -17 2 -77q0 -16 4 -24q2 0 4 0.5t3 2
t2.5 2.5t2.5 2q29 14 67 44q-11 27 -8 62q1 18 1.5 45.5t2.5 45.5q4 54 22 89q5 10 19 28q1 1 4 4.5t4 5.5q9 23 27 12q4 -2 10 2l10 5q29 12 40 8.5t35 -22.5q19 -17 30 -21q2 6 2 37q0 10 10 12q16 4 21 13q8 16 22 2q18 -20 22 -24q8 -8 8 -21q-1 -18 5 -54q6 -44 0 -89
q-5 -37 -2 -82q2 -16 1.5 -44.5t0.5 -43.5q3 -11 4 -12l22 18t24 18q23 15 58 42zM585 240q0 48 3 109q0 5 -15 13q-3 2 -8 5t-8.5 5.5t-5.5 6.5q-3 5 -10 9q-10 6 -12 1q-36 -88 -40 -113q-1 -6 -4.5 -18.5t-4 -18t0 -15.5t4.5 -21q1 -3 1 -11q0 -23 21 -100
q2 -8 8.5 -16.5t17 -8.5t20.5 17q2 4 9.5 8.5t9.5 6.5l10 14q-1 30 -0.5 43t2 40t1.5 44zM494 384q-3 -6 3 -7l5 10q-8 2 -8 -3zM202 113q8 8 7 20l-3 92q0 12 -4 14q-8 4 -14 23q-4 9 -17.5 34t-17.5 40q-4 16 -20 22q-13 6 -17 -6q-9 -37 -7 -49q5 -39 2 -73
q-3 -42 -2 -47q2 -23 -10 -39q-9 -10 -9 -25q-2 -29 11 -44q0 4 -0.5 12t-0.5 12q0 12 2 18q4 7 8 7q5 -1 5 -9q0 -23 7 -34q8 -14 13.5 -15.5t18.5 7.5q28 17 48 40zM567 -137q4 17 5.5 37.5t1 38.5t0.5 40l-22 -15q-5 -4 -8 -13t-9 -12q-82 -39 -101 -80
q-11 -22 -4.5 -41.5t28.5 -29.5q5 -2 15 -4h16.5t16.5 -1q22 0 31 11q11 13 16 26q0 1 0.5 4.5t1.5 5.5q3 4 5 9.5t4 12.5t3 11zM216 -109q4 14 4 39t1 34q-11 -2 -13 -3t-17 -12t-25 -13q-1 0 -2 -2l-1 -2q-4 -4 -10 -8q-13 -6 -26.5 -23t-18.5 -21q-26 -25 -34 -49
q-13 -40 1 -63q6 -10 24 -17.5t23 -2.5q4 2 6 4l8 10q7 9 10 14q3 6 19.5 25t24.5 36q25 49 26 54z" />
    <glyph glyph-name="h_h.liga" unicode="hh" horiz-adv-x="828" 
d="M876 132q1 0 2 -1.5t0.5 -4.5t-2.5 -5l-12.5 -9t-11.5 -10q-28 -30 -37 -38q-4 -2 -21 -21q-19 -19 -47 -37q-27 -18 -48 -25q-25 -8 -39 7q-4 4 -14 10q-42 31 -45 95q-3 0 -1 75l1 75q0 12 1 18q4 16 4.5 32.5t-0.5 40t-1 32.5q0 2 -1 5t-1 4q-9 29 -31 16
q-28 -17 -51 -42q-19 -20 -17 -54q2 -84 -1 -115q-3 -21 1 -51q6 -57 -7 -137q0 -1 -3 -4q-3 -1 -6.5 2.5t-6.5 2.5q-4 -4 -8 -19q-7 -16 -21 -12q-9 1 -13 -4q-28 26 -35 74q-3 39 -3 62l-1 -2q-11 -14 -14 -15q-10 -2 -27 -21q-3 -3 -11 -10t-11 -12q-10 -15 -25 -25
q-25 -16 -32 -22q-10 -8 -18 -6l-7 1q-2 0 -7 -4t-8 -1q-2 2 -6.5 5l-7.5 5t-6 5.5t-5 7.5l-2 4l-2 4q-13 53 -11 74q4 43 7 61q2 28 -1 41q-3 15 -3.5 29.5t1 38.5t1.5 30q0 15 12 96q4 15 -6 20q-12 6 -18 3q-5 -2 -12 -9l-18 -16q-1 -1 -3.5 -2.5t-4.5 -3.5
q-5 -4 -14 -14.5t-15 -15.5q-4 -3 -6 -9q-15 -34 -15 -71q0 -31 7 -73q8 -47 -1 -91q-3 -13 1 -41q2 -19 -3 -39q-2 -15 -13 -15q-4 0 -6 -6t-7 -6q-17 8 -26 2q-5 -4 -9 2q-25 25 -25 46q-2 15 -5 18q-9 10 -9 35v128q0 44 -5 99q-4 33 -4 123q0 105 1 153q0 22 8 46
q25 5 41 -14q1 1 2.5 4.5t3.5 5t5 0.5q6 -1 6 -10q4 -17 13 -20q3 -1 5 -8q1 -2 7.5 -25.5t8.5 -36.5q0 -5 -0.5 -20.5t0.5 -20.5q6 -26 2 -87q0 -6 2 -24.5t1 -29.5q7 5 30 33q19 24 38 37q33 21 67 7q17 -7 48 -38q4 -5 2 -14q0 -21 -1 -32q0 -5 1.5 -15t1.5 -15
q0 -11 -2 -32.5t-2 -32.5q-1 -22 6 -85q2 -30 1 -44v-19t-2 -24q-2 -12 6 -20q2 -1 9 3q2 1 3 0.5l2 -1t4.5 2t10.5 8.5q11 11 31 23.5t31 21.5l10 8q2 56 -8 168q-4 34 0 85q1 10 -0.5 28t-1.5 25q0 11 4.5 47.5t2.5 56.5q-2 10 -4 16q-4 15 -1.5 19t17.5 6q0 16 1 18
q1 1 15 8q9 3 10 4q9 10 21 0h2q23 -3 34 -39q15 -58 11 -117t-1 -85q25 17 43 31q37 28 77 14q5 -3 8 1q0 4 -6 6t-7 4q0 6 5 4q31 -6 42 -19q35 -45 38 -105q4 -88 0 -116q-6 -50 -3 -74q4 -54 22 -78q6 0 19.5 12t21.5 16q26 17 33 26q37 31 80 43zM677 95
q-10 -28 15 -53q-7 11 -9 41v43q-3 -6 -4 -16.5t-2 -14.5z" />
    <glyph glyph-name="i_i.liga" unicode="ii" horiz-adv-x="463" 
d="M19 607q-50 26 -15 75q14 20 43 25q16 1 16 -13q-1 -9 11 -19q34 -31 5 -55q-3 -2 -9 -8t-11.5 -8.5t-12.5 -1.5q-4 4 -13 3.5t-14 1.5zM283 577q-13 -1 -17 9q-6 17 -1 37t19 31q3 2 14 10q22 17 42 -6q2 -2 12 -8q-12 -16 -7 -24q3 -4 -1 -9q-4 -4 -6 -13.5t-9 -11.5
q-44 -15 -46 -15zM511 124q4 -8 -1 -15.5t-16.5 -17t-14.5 -13.5q-1 -1 -4.5 -2.5t-5.5 -2.5q-1 -1 -4 -2q-3 -2 -4 -3q-1 -10 -14 -18.5t-16 -13.5q-1 -3 -3 -4.5t-5.5 -2.5t-5.5 -2q-5 -2 -7.5 -4.5t-3.5 -4t-2 -4t-3 -4.5q-3 -4 -12 -7t-12 -6q-6 -4 -35 -11
q-35 -14 -67 7q-3 3 -9 10q-8 10 -10 11q-18 9 -22 44v16q-8 -6 -15 -18q-5 -10 -18 -11q-3 0 -18 -12q-3 -2 -9 -5t-9 -6q-9 -12 -11 -13q-4 -3 -18 -8l-19 -6q-6 -3 -14 -3q-1 0 -4 0.5t-5 0.5q-2 -1 -5 -3.5t-5 -3.5q-4 -1 -12 5q-8 8 -16 9l-7 3.5t-7 3t-8 -2.5
q-2 -2 -13 6q-13 13 -19 56q-3 26 -1 80q2 66 5 97q5 50 3 84q-1 8 1 30t-1 31q-1 6 12 19q13 11 33 13q28 0 35 -29q3 -8 4 -9q8 6 11 5t3 -11q2 -8 -1 -15q-4 -14 -1 -30q3 -21 5 -126q1 -24 7 -77l3 -27t2 -27q0 -4 0.5 -11t0.5 -9.5t1.5 -6.5t4.5 -2.5t9 2.5
q38 18 52 28q34 23 38 24l5 3q0 39 -1 59q1 25 4.5 71.5t4.5 66.5q5 79 4 109q-1 20 17 25q15 4 25 -10q7 -7 13.5 -23.5t7.5 -18.5q5 9 1 26t-3 20q22 -10 23 -25l3 -18q2 -11 3.5 -46t4.5 -50q2 -12 0 -37q-5 -50 1 -150q2 -53 -2 -70q-2 -5 4 -14q10 0 18 6q28 17 38 24
q9 7 14.5 12t12 12t14.5 14q3 2 11 6q10 6 30 16.5t30 16.5z" />
    <glyph glyph-name="j_j.liga" unicode="jj" horiz-adv-x="429" 
d="M254 642q-6 0 -9 5q-8 10 -8 26.5t8 26.5q4 4 8 4q7 -1 28 8h1l2 1q14 2 19 -4q5 -1 2 -9t-3 -9q21 -4 13 -21q-3 -7 -12.5 -16.5t-12.5 -15.5q-6 -8 -10 -2q-4 4 -26 6zM0 588q-14 -3 -20 9q-10 13 -2 38q1 8 8.5 16t9.5 11q5 11 24 13q4 1 22 6q9 2 11 -2q3 -7 -3 -11
l-4.5 -4.5t-4.5 -6.5q3 -4 6.5 -5.5t8.5 -2.5t9 -2q-2 -5 -5 -14.5t-7 -17.5t-10 -15q-13 -8 -17 -7q-13 1 -26 -5zM478 192q2 -16 0 -21t-16 -11q-18 -8 -27.5 -16t-20.5 -20t-24 -22q-10 -8 -42 -29q-12 -10 -12 -26v-21.5t2 -27.5q3 -38 -16 -66q-12 -18 -15 -38
q-3 -10 -3 -11q-9 -8 -27 -31t-32 -32q-22 -17 -64 -15q-11 0 -19 4.5t-19 15.5t-14 13q-6 4 -6 13q1 5 2 15.5t1.5 16.5t3.5 15t8 16q38 57 90 99q6 5 9 14q8 33 5 47q-2 12 -4 36l-2 28q-22 -16 -29 -23q-6 -7 -26.5 -20.5t-23.5 -16.5q-31 -27 -45 -35q-9 -6 -10 -15
q0 -6 -1 -19t-1 -20q-1 -18 -5 -52q0 -16 4 -20q2 -2 0 -16q-15 -65 -70 -97q-41 -24 -45 -26q-16 -5 -18 -5t-5.5 0.5t-5.5 0.5t-5.5 0.5t-5.5 2t-4 4t-3 5.5l-5 5q-30 20 -17 70l9 30q8 21 10 24q34 51 50 67q3 4 13.5 10t11.5 7q-2 45 -4 57q-5 53 -4.5 83.5t3 84
t2.5 83.5q0 16 -1 34t-2.5 39.5t-2.5 33.5q0 4 3.5 10.5t7.5 7.5q29 8 57 -1q5 -3 6 -4q1 -5 8.5 -17.5t7.5 -21.5q0 -12 3 -33.5t4 -26.5q9 -89 5 -127q-4 -48 1 -72q2 -10 -0.5 -23.5t-2.5 -19.5q0 -14 5 -19q6 2 9.5 4.5t8 7t8.5 7.5q9 7 14.5 10.5t12.5 6t9 3.5
q13 4 23 19q4 6 23 17.5t21 12.5l1 1q-2 31 1 55v35q-1 30 -1 90l-3 102q0 11 8 12q1 0 4 1t5 0q10 -1 26.5 -5.5t21.5 -5.5q3 0 11 -9q37 -60 37 -124q0 -5 -3 -25t-2 -31q0 -8 2 -23t2 -22q0 -32 -3 -65q-3 -14 0 -36q73 61 137 87zM211 -89q10 28 13 61q-50 -25 -73 -76
q-5 -6 -1 -16q3 -5 6 -15t4 -14q10 -5 13.5 -4t11.5 8.5t12 9.5q9 6 8 15q0 11 6 31zM17 -141q12 35 -4 111q-15 -5 -26 -15q-6 -4 -10 -9.5t-9 -15l-6 -11.5q-19 -31 -24 -57q-5 -25 0 -38.5t25 -27.5q4 -4 7 -2q22 7 26 17z" />
    <glyph glyph-name="k_k.liga" unicode="kk" horiz-adv-x="702" 
d="M357 662q11 6 20 -1q12 -12 16 -18q3 -5 14 -13q1 2 2.5 8.5t4.5 8.5q10 -8 30 -8q9 0 11.5 -3t2.5 -13v-32.5t-1 -32.5q0 -89 -1 -99q-3 -39 1 -117l-1 -26q0 -25 1 -25q5 0 13 10q12 14 32.5 42t28.5 38q6 8 33.5 39t36.5 45l5 5q14 10 20 3q7 -11 -1 -19
q-12 -11 -35 -46t-28 -41l-38 -49q21 -8 45 -48l16.5 -31.5l18.5 -35t17.5 -29t23.5 -30.5q5 -6 11 -20q12 -32 30 -53q6 -8 6 -14q-1 -1 -4.5 -2.5t-3.5 -4.5q0 -1 5 -8t0 -11q-2 -2 -5 -7t-5 -7.5t-6.5 -4.5t-10.5 -1q-37 2 -48 15q-3 3 -10 5q-30 7 -43 37l-31.5 68
t-36.5 82q-3 11 -16 29q-17 -19 -17 -36q3 -96 4 -108q1 -10 -1 -31t0 -33q0 -6 -2 -6q-5 0 -10 -7t-10 -7q-17 -2 -29 5q-10 5 -22 7q-18 4 -27 30q-7 22 -10 53q-5 61 -3 82q3 33 -3 95q-3 52 -1 88q1 15 1.5 41.5t1.5 48.5t3 42q5 39 3 125q0 5 -2 11q0 13 4 15zM44 614
q5 -2 13 -8t12 -7q3 1 4.5 5.5t3.5 5.5q16 -3 20 -19q17 -51 8 -105q-1 -12 2 -24q7 -41 4 -99q-1 -9 2 -84q6 -2 11 6q11 13 32 35.5t37.5 42l30.5 37.5q8 7 21 20t22 19q23 17 23 12q0 -2 0.5 -10.5t-0.5 -15t-6 -8.5q-8 -4 -15 -12t-14.5 -19t-11.5 -16q-9 -12 -32 -37.5
t-34 -40.5q13 -7 21.5 -17t20.5 -30.5t14 -23.5q11 -16 31.5 -55t34.5 -58q7 -10 17.5 -29.5l14.5 -26.5q2 -4 20.5 -30t21.5 -29q8 -8 25 -34.5t19 -35.5q-11 -5 -19 -7q-23 -5 -31 8q-6 8 -15 0q-1 -1 -2 -6.5t-2.5 -6.5t-6.5 2q-2 2 -4 0t-4.5 -5.5t-4.5 -4.5
q-9 6 -32 33t-37 48q-4 5 -19 30l-15 25q-37 56 -68 139q-4 12 -16.5 32t-16.5 28q-7 -6 -6 -13q0 -12 1 -35t1 -34q1 -20 -6 -79q-2 -30 -1 -39q3 -27 -14 -51q-7 -9 -12 -2q-13 16 -15 12q-8 -18 -16 13q0 2 -1 5q-1 4 -7 -3q-4 -5 -6 -5q-3 0 -6 -2.5t-6 -1.5q-2 1 -8 11
t-7 10q-12 8 -13 33q-1 41 1 250q0 15 3 51.5t3 56.5q-3 87 -3 88q-1 11 -1.5 32t-0.5 28t2 9q5 1 7.5 4t2.5 5t-0.5 7t-0.5 6q2 28 29 20zM144 268q-3 -6 2 -8q1 -1 3.5 -5.5t5 -7.5t4.5 -2q0 1 -2 5.5l-3.5 8t-4 6.5t-5.5 3z" />
    <glyph glyph-name="l_l.liga" unicode="ll" horiz-adv-x="510" 
d="M351 697q10 2 20 -3t13 -13q2 -7 9.5 -22t9.5 -23q15 -50 9 -102q-1 -9 -3.5 -26t-4.5 -25q0 -1 -1 -10.5t-4 -14.5q-3 -6 -11 -43q-1 -4 -9 -26t-9 -36q-1 -8 -10 -24.5t-11 -22.5q-1 -3 -1.5 -13t0.5 -13l2 -12t1.5 -9.5t0.5 -6.5q-3 -16 -2.5 -41.5t-0.5 -40.5
q-3 -51 19 -130q5 -16 12 -17q3 0 6 1q4 0 12 -6q16 -12 33 -1q24 12 37 25q7 7 48 41q20 15 41 21q5 -6 0 -13q-5 -5 -8 -7q-10 -6 -20.5 -18t-19.5 -18q-3 -2 -13 -13t-19.5 -19.5t-16.5 -11.5q-6 -2 -12 -7q-6 -14 -33 -14q-9 -9 -25 -6q-25 6 -48 22q-43 30 -55 47
q-15 20 -25 62q-5 28 -10 38q-10 -15 -11 -17q-4 -7 -14 -30.5t-16 -30.5q-6 -9 -17 -27.5t-21 -28.5q-1 -1 -3.5 -2.5t-3 -3t-0.5 -3.5t-3 -4t-7.5 -3t-5.5 -2q-21 -8 -32 -8t-27 12l-15 12q-9 9 -22 10q5 -4 14 -15.5t16 -15.5q-11 -9 -19 -1q-20 18 -25 25q-28 37 -31 94
q-3 34 -5 154q0 23 -1 64.5t-1.5 75.5t-0.5 64v109q0 3 0.5 7.5t1 8.5t1.5 8q0 13 4 18q3 2 8 1.5t8 0.5q5 1 24 13q13 10 26 6t18 -20l3.5 -7t2.5 -7.5t-2 -8.5q-2 -4 2 -8q13 -20 17 -64q7 -126 6 -169q0 -7 -1 -21t-1 -22q0 -54 4 -98q1 -9 -1 -39q-1 -7 -1 -35.5
t-3 -43.5q-2 -12 14 -39q2 -5 14 -3q9 1 16.5 6.5t10.5 10l10 15.5q13 21 31.5 56.5t24.5 43.5q9 10 7 26q-2 12 -2 28.5t-1 24.5q-6 57 -3 87q2 28 2 77t1 77q3 49 -2 105q0 4 2 12t2 12q0 12 9 18q5 4 10.5 13.5t9.5 13.5q29 21 59 18q3 0 9 0.5t9 0.5zM322 683
q-19 0 -25 -6q8 -4 25 6zM354 661q-6 -2 -11 -1.5t-11 -2.5q-8 -3 -7 -10q2 -9 2 -40l1 -19q2 -16 10 -101q4 -42 -1 -68q-7 -37 2 -53q8 12 12.5 27.5t8 36.5t5.5 29q13 52 16 90q0 11 -2 71q-1 14 -20 39q-3 3 -5 2zM324 233q-4 -21 -1.5 -52t6.5 -38q3 18 1.5 50t-6.5 40
z" />
    <glyph glyph-name="m_m.liga" unicode="mm" horiz-adv-x="986" 
d="M484 448q2 1 7 -4q2 -3 7 -8q9 13 30 7q8 -2 13 -2q34 -1 51 -38q8 -17 18 -33q32 -45 63 -132q5 3 10 16q9 23 27.5 54t28.5 54l18 35q3 8 27 27q7 5 13 2q12 -6 25 -1q9 4 16 -13q2 -5 5 -5q3 -1 6 -7q2 8 -0.5 11t-2.5 10q8 4 16 -1q30 -20 29 -55v-2q-5 -25 1 -66
q2 -6 0.5 -19t-1.5 -16q-1 -13 -1 -39v-39q0 -20 4 -55.5t5 -48.5q2 -39 -1 -48q-2 -3 0 -8q2 -13 -7 -16l-5 -5q-5 -5 -11 -2q-4 1 -5.5 -0.5t-2.5 -6t-1 -5.5q-8 2 -9 3q-12 13 -42 17q-5 0 -8.5 3t-8.5 12l-5 8q-1 1 -1 4q-2 14 -8 42t-7.5 42t0.5 44q1 5 1 49
q0 23 -2.5 56.5t-3.5 49.5q0 1 -2 9q-8 -9 -13 -21q-6 -14 -26 -48t-27 -62q-4 -13 -15.5 -43t-15.5 -47q-2 -10 -11.5 -13.5t-15.5 2.5q-4 6 -5 10q-3 12 -14 16q-16 9 -22 29q-3 13 -23 67q-2 6 -4 8q-7 7 -32 55q-11 23 -14 52q-1 17 -15 34v-219q0 -8 2 -27t1 -29
q0 -4 0.5 -14t-1 -17.5t-5.5 -13.5v-15q5 -24 0 -44q-5 -11 -12 -12q-10 -1 -14 12q-6 18 -5 35q2 22 -1.5 61.5t-3.5 48.5q-1 2 -1 7q3 22 1 97t-2 96l3 54q0 6 -1.5 23.5t0.5 23.5v5q0 7 6 9zM332 428q8 9 19.5 6.5t21.5 -14.5q13 -15 11 -39q0 -33 5 -50q3 -10 3 -42
q-1 -38 0.5 -107t1.5 -90q0 -77 -5 -112q-3 -1 -6 2.5t-6 2.5q-1 -2 -1.5 -5t-0.5 -4q-9 -15 -19 -15q-3 0 -7.5 -2t-8.5 -2t-9 4q-5 5 -9 0.5t-6 -12.5q-24 9 -33 45q-8 31 -8 100q0 20 -0.5 57.5t-0.5 67.5t1 57q0 2 -0.5 4t-0.5 4l-3 -3q-19 -68 -59 -157q-9 -18 -6 -35
q1 -6 -2 -8t-8 1q-13 5 -16 5q-1 -5 0.5 -17t-0.5 -17q-41 -5 -58 35q-6 14 -17.5 43.5t-18.5 44.5q-21 46 -25 90q-4 24 -11 35q3 -61 -5 -173q-2 -28 -4 -86q-1 -11 -11 -69q-6 -3 -11 2q-13 18 -15.5 26.5t-3.5 34.5q-1 58 6 148q1 13 1.5 39t1.5 39q2 21 0 60.5t-1 57.5
q0 23 4 25q12 8 30 3q13 -4 22 2q20 13 41 7q4 -1 6 -2t1 -4q-4 -8 7 -17q12 -12 17 -35q2 -12 27 -71q24 -63 31 -76q2 -5 3.5 -15.5t2.5 -14.5q3 4 4.5 8t2.5 9t2 8l52 160q11 32 25 53q2 4 7 4q5 -29 22 -51q0 10 -3.5 26t-3.5 17q18 6 24 12z" />
    <glyph glyph-name="n_n.liga" unicode="nn" horiz-adv-x="839" 
d="M871 125q1 1 3 1.5t5 1t5 1.5q-4 -9 -13.5 -21.5t-11.5 -16.5q-4 -6 -8 -7q-12 -5 -19 -13.5t-14 -13.5q-37 -23 -44 -27t-17 -11.5t-16 -11t-12 -3.5q-4 -3 -7 -2q-4 0 -5 1q-4 2 -11.5 -4t-11.5 1q-3 3 -17 8.5t-17 7.5q-27 27 -32 43q-8 21 -8 30q0 10 -1 30t-1 30
q-1 18 0.5 36.5t4 41t3.5 36.5q7 82 7 104q0 14 -1 21q0 10 -10 17q-12 7 -18 0q-5 -5 -23 -19.5t-25 -27.5q-13 -23 -29 -59q-11 -26 -10 -40q2 -20 2 -55.5t2 -55.5q3 -42 -1 -78q-3 -40 6 -75q1 -2 -2 -3.5t-7 -3l-8 -3t-5 -3.5t1 -5q5 -6 -2 -9.5t-15 -3.5
q-14 0 -28.5 12.5t-22.5 26.5q-10 19 -15 59q-20 -16 -27 -28q-8 -13 -30 -24q-12 -12 -32 -18q-16 -11 -26 -12q-46 -3 -67 34q-21 35 -23 84q-3 44 -1 98q0 96 12 151q3 14 -1 41q-2 11 -9 14.5t-17 -5.5q-52 -49 -78 -121q-12 -35 -6 -88q1 -18 0 -36q-7 -101 -5 -140
q0 -14 -16 -18q-1 0 -11 -7q-21 -15 -35 8q-8 13 -12 15q-3 -2 -3 -6.5t-1 -5.5q-8 3 -14 20q-15 44 -14 75q0 23 -0.5 68.5t-0.5 68.5v176q0 10 2 12t12 0t15 0q13 6 24 -4q5 -3 14 -9.5t14 -9.5q14 -12 13 -31t7 -59q6 5 11 16q11 29 44 72q28 34 75 26q10 -1 19 -5
t19.5 -10t16.5 -9l4 -4q1 -5 9 -26.5t9 -34.5q0 -96 -4 -143q-1 -11 -0.5 -36t0.5 -35q0 -8 10 -52q1 -7 17 -13.5t22 -1.5l62 41q-1 23 -1 61q1 41 3.5 111t3.5 96q1 19 1 56q0 18 11 20q23 5 28 -7q7 -13 27 -15q12 -1 15 -16q1 -7 1 -27.5t2 -29.5q15 20 18 27
q15 34 62 64q33 22 65 -2q4 -4 8 -5h3q1 2 0 6t1 6q11 5 16 -6q3 -5 12 -17t12 -20q8 -5 13 -13.5t6 -14.5t1.5 -18.5t0.5 -15.5q6 -39 3 -78q-1 -21 -11 -151q0 -6 1 -12.5t3 -14l3 -11.5q0 -2 8 -7q18 -5 32 4q10 5 23.5 15.5t25.5 17.5q20 14 54 32z" />
    <glyph glyph-name="o_o.liga" unicode="oo" horiz-adv-x="718" 
d="M92 422l25 7q10 4 16 -2q-3 -7 -11 -11q-2 -1 -4 -1t-4 -0.5t-4 -1.5t-3 -3q5 -2 24 5q9 2 12 -2q4 -3 -1 -10q-15 -33 -23 -103q-1 -1 -1 -3.5t-1 -3.5q-8 -17 -6 -58q7 -75 8 -133q0 -37 27 -64q6 -6 15.5 -6.5t15.5 6.5q5 7 15 10q30 12 32 37l6 24q13 42 13 128
q0 10 -10 13q-11 4 -20 5q-23 5 -39.5 28t-14.5 46q2 32 4 48q0 2 15 34q2 4 8.5 5t10.5 -3q20 -13 25 -21q30 -37 41 -80q1 -4 5 -11.5t5 -12.5q0 -2 6 -4q9 0 27 5q17 5 45 36l55 64q3 3 7 9q20 21 45 6q11 -7 2 -14l-5 -6q4 -5 7 -16.5t7 -16.5q2 -1 0 -7l-21 -156
q-7 -52 8 -114q5 -20 32 -39q17 -13 46 6q26 15 38 52q15 42 13 90q-3 102 -4 123q-2 24 -4 36q-2 21 -16 32q-9 9 -17 7q-26 -5 -32 -11q-2 -2 -7.5 -2t-7.5 -1q-2 1 -2 5v4q-3 12 -1 16t12 9q39 21 76 0q42 -24 52 -84q1 -8 8.5 -40t8.5 -50q2 -45 0 -60q-1 -6 -1 -19
q-3 -44 -30 -91l-14 -24t-15 -24q-2 -3 -8 -8t-10 -5t-8.5 -2t-6.5 1q-12 4 -14 5t-11 -5t-12 -7q-32 -13 -50 -1q-49 29 -52 31q-61 47 -60 103q0 11 -3.5 31t-3.5 24q-2 11 -1 17q1 4 4 44t10 61q-6 -1 -10.5 -6t-7.5 -7l-6 -4t-6 -4.5t-6 -4.5q-15 -12 -28 -13
q-7 0 -7 -1q1 -3 -2 -4h-4q-9 0 -9 -7v-13q3 -23 -5 -69q0 -3 -0.5 -7t-0.5 -6q1 -18 -13 -54q-14 -34 -15 -43q-1 -18 -17 -30q-12 -8 -20 -18q-16 -16 -40 -14q-5 0 -10 2.5t-10.5 6.5t-8.5 6q-2 1 -4.5 3t-5.5 5t-5 4q-5 -10 -7.5 -11.5t-11.5 2.5q-56 20 -77 65
q-1 2 -4 8.5t-4.5 9t-4 8.5t-3.5 9.5l-2.5 9t-2 10t-0.5 10t1 10.5q-5 8 -9 39q-5 6 -4.5 17t-0.5 20q3 9 4.5 26t2.5 22q9 46 36 102q15 32 55 45zM110 389q-28 -51 -32 -94q24 41 32 94zM208 378q-4 5 -11.5 4t-7.5 -6q0 -2 -1.5 -6t-2 -6t1.5 -6q3 -4 3 -27
q-1 -21 4 -27.5t27 -11.5q7 0 10 2q2 27 0 42q-4 21 -23 42zM627 198q-7 -14 -1 -36q6 20 1 36z" />
    <glyph glyph-name="p_p.liga" unicode="pp" horiz-adv-x="788" 
d="M606 436q8 0 9 -1q4 -4 10 -6t13 -3.5t11 -2.5q27 -12 38 -32q6 -11 21 -24q10 -10 12 -28q4 -80 1 -111q-2 -26 -2 -39q2 -14 -5 -25q-3 -4 -5 -24q-2 -21 -15 -33q-4 -3 -6 -9q-5 -13 -17.5 -35.5t-15.5 -28.5q-2 -5 -7 -11q-2 -2 -5 -1q-3 3 -3 5t1 5t1 5.5t-2 5.5
q-11 -3 -17 -19q-7 -14 -23 -11q-48 7 -76 37q-3 3 -25 28v-30q0 -8 -0.5 -34.5t-1.5 -40.5q-2 -33 4 -95q0 -12 -3 -24q-6 -16 -4 -25q3 -6 0 -8.5t-10 -0.5q-16 3 -25 15q-7 7 -13 2q-2 -2 -9 2q-4 2 -12.5 9t-15.5 9q-5 2 -7 15q-1 8 -5.5 40.5t-4.5 43t1 41.5q5 29 0 78
q-1 12 0 36t1 36q-2 26 -2 74t-1 74q-2 56 -1 84q1 8 -3 24q-1 12 10 15q7 2 9 1q30 -4 43 -12q13 -10 17 -24q6 -19 14 -26q6 2 23 19q24 24 32 30q29 24 71 30zM29 428q19 -2 22 -10q1 -7 12 -7q16 -1 21 -20q2 -5 4 -15t4.5 -18t6.5 -16q32 29 35 33q48 55 133 31
q10 -3 20 -17q40 -51 40 -87q0 -47 6 -71v-9q-2 -12 -2.5 -26.5t0 -26.5t-0.5 -27q-1 -20 -12 -45q0 -3 -1 -4q-14 -11 -30 -40t-19 -33q-12 -15 -14 -16q-4 10 6.5 21.5t7.5 20.5q-4 -4 -9.5 -13t-11 -15t-12.5 -10q-1 -1 -3 -5q-1 -2 -1 -9t-6 -8q-10 -3 -31 -3
q-31 1 -56 30q-6 6 -30 35q-3 -13 -4.5 -35t-2.5 -29q-2 -18 -1 -49.5t0 -49.5q-2 -40 -8 -55q-2 -4 -2 -12.5v-10.5q-2 -14 -6 -18q-4 4 -14 10t-17 13.5t-10 19.5q-5 -15 -8 -27q-17 12 -25 34q-4 15 -5 43t-2 35q-5 43 1 146q2 17 3 52t2 53q3 19 2 76.5t0 76.5l3 43
q2 25 -1 45q-3 19 16 19zM572 403q3 -2 15.5 -15t16.5 -16q-8 40 -32 31zM570 389q-9 7 -12.5 7t-12.5 -7q-12 -12 -36 -34q-27 -25 -18 -53l6 -24q13 -59 9 -141q0 -10 -1 -15q-1 -14 9 -24l8 -8q8 -9 11 -14q7 -13 27 -28q3 3 12 10.5t14 10.5q5 4 7 14.5t2 11.5q1 2 5 13
t5 17q0 10 3.5 29t3.5 27q5 91 2 101q-1 6 -1.5 18.5t-1.5 18.5q-3 20 -5 24q-3 4 -10 14.5t-13 18t-13 13.5zM192 374q-23 -4 -35 -11q-23 -12 -53 -61q-2 -2 -2 -7q5 -48 7 -107q3 -71 1 -86q0 -13 6 -20q26 -34 42 -47q9 -8 24 -11q6 -1 10 4q31 53 34 110v45
q2 22 -2.5 61t-4.5 55q0 8 -1.5 17.5t-4 21.5t-3.5 18q-1 9 -7 14.5t-11 3.5z" />
    <glyph glyph-name="q_q.liga" unicode="qq" horiz-adv-x="761" 
d="M624 434l7 -3q21 -6 25 -10.5t7 -25.5q5 -29 -1 -77q-1 -8 -3 -27t-4 -30q0 -5 4 -7q2 1 6 8.5t11 6.5q-5 -31 -3 -79q0 -70 -3 -142q-2 -19 -4 -116v-48q-1 -18 -7 -33q-2 -7 -11.5 -15.5t-10.5 -10.5q-2 -5 -12 0q-3 1 -8 6t-8 6l-2 -1q-1 0 -1 -1q-1 -6 -4 -9.5
t-8 -2.5q-4 1 -9 14q-2 4 -4 16q-2 10 -7 13q-22 17 -24 58q-2 72 4 121q0 12 -1 13q-26 -26 -38 -39q-8 -8 -30 -11q-8 -2 -9 -6q-2 -8 -7.5 -8.5t-10.5 2.5l-8 4q-36 24 -43 29q-46 32 -55 84q-15 72 -9 119q1 6 2.5 38.5t5.5 49.5q4 19 13 30q7 10 8 13q3 10 11 18.5
t12.5 11.5t20 10t16.5 7q5 2 22 0t26 1q31 10 53 -20l18 -27q8 -11 13 -12v30q0 4 0.5 13.5t1.5 13.5q4 3 15 3h5q1 8 12 11t13 8q3 7 13 3zM85 396q5 -5 16 -1q17 6 58 -7q6 -2 6 -6q0 -6 2.5 -10t9.5 -10l7 -6q10 -8 10 -17q0 -8 9 -14q5 9 5 33v23q0 9 6.5 13.5t15.5 0.5
q17 -8 18 -10q2 -3 6 -3q12 1 16 -1t7 -12q9 -24 8 -47q-1 -17 -0.5 -59t0.5 -59q-1 -24 1 -73t1 -74q0 -7 1 -41.5t-2 -40.5q-3 -10 -1 -35.5t1 -34.5q-4 -67 -7 -104q0 -5 -2.5 -10.5t-6 -12.5t-4.5 -11q-2 2 -5 6.5t-5 6t-4 2.5t-3.5 -2.5t-2.5 -10.5q-5 -5 -17 -1.5
t-15 9.5q-18 34 -20 54q-1 9 -3.5 25l-3.5 22q-3 18 -1 97v35q-4 1 -13 -4q-8 -6 -38 -11q-31 -7 -54 16q-9 9 -16 4q3 -6 13.5 -13.5t14.5 -13.5q-24 -2 -34 14q-11 13 -19 13q-9 -1 -18 14q-20 35 -20 69q-1 20 -3.5 58t-3.5 51q-4 50 16 102q10 27 30 52l9 11.5t11 13
t11 9.5q9 5 13 1zM488 374h-2q-1 -1 -2 -1q-10 -1 -17 -7.5t-9.5 -11t-7.5 -16.5q-4 -9 -4.5 -18.5t0.5 -23.5t1 -19t-0.5 -44t2.5 -44q4 -29 1 -43q-2 -10 1.5 -28t3.5 -22l3 -9q6 -4 10.5 -9.5t9 -13.5t7.5 -12q7 -10 16 -6q20 10 33 34q2 6 9 11q14 8 14 28q-2 110 8 202
q0 16 -2 19q-5 0 -7 -3t-3 -7.5t-3 -7.5q-10 16 -41 49l-5 5q-5 5 -13 0q-2 -1 -3 -2zM129 352q-9 2 -16 -9q-3 -6 -11 -41q-9 -40 -2 -77q7 -39 -1 -69q-3 -10 -2 -18q9 -54 13 -74q4 -25 28 -13q2 1 11.5 4.5t12.5 5.5q12 12 26 8q4 131 9 176q2 33 -11 52q-15 22 -17 33
q-4 17 -40 22zM656 243q1 -5 -0.5 -15t-0.5 -16q5 11 1 31z" />
    <glyph glyph-name="r_r.liga" unicode="rr" horiz-adv-x="588" 
d="M544 437q-13 -3 -4 -6q18 -4 18 -8q1 -1 -1 -3q-2 -3 -3 -10t-6 -10.5t-18 -4.5q-13 0 -18 -12q-2 -5 -6.5 -7.5t-12 -5t-9.5 -3.5q-9 -4 -15 -10.5t-14 -17l-11 -14.5l-18 -26q-6 -8 -9 -16q-2 -3 -4 -13t-5 -13q-9 -10 -12 -21.5t-2.5 -28t-0.5 -22.5v-10
q-4 -24 -5.5 -70t-4.5 -68v-14q0 -3 -0.5 -9t-1.5 -9.5t-3.5 -7.5t-7.5 -7q-3 -1 -5 -16q-3 -14 -6.5 -16t-18.5 3q-15 7 -45 28q-13 8 -11 28q3 39 4.5 81.5t1.5 98t1 81.5q0 18 1 55t1 56q0 7 -3 15q-6 21 16 21q30 -2 38 4q7 4 16 -5q27 -25 30 -41q1 -7 9 -10
q6 8 12.5 14t15.5 13.5t14 12.5q17 17 46 23q52 12 61 4q1 -1 -2 -2q-1 -1 -2 -1zM52 422q14 -8 19.5 -12t13 -13.5t7.5 -22.5q0 -3 2 -7l2 -4l18.5 15.5t19.5 15.5q34 26 76 16q27 -7 44 -28q-7 -14 -22 -7q-10 4 -15 -2q-3 -3 -11.5 -5.5t-11.5 -8.5l-6 -5
q-44 -17 -63 -57q-2 -4 -4 -16t-7 -18q-8 -10 -7 -26q2 -36 2 -55q1 -20 3.5 -59.5t2.5 -58.5q1 0 1 -25l-1 -25q0 -6 -7.5 -24t-11.5 -22q-18 23 -39 2q-3 -5 -9 -2t-7 3q-3 -1 -2 -4.5t1 -4.5h-4q-29 29 -29 73q2 41 -6 127q-2 23 1 56q5 30 3 75q0 5 1 16t1 17
q2 33 -5 58q-5 7 3 9q2 1 3.5 0t2.5 -3t2 -3q6 3 6 22q3 2 12 5.5t12 7.5t9 0zM371 377q-8 -43 1 -100q1 7 2 20t2 23.5t2 19.5q2 24 -7 37zM215 365q12 5 18.5 2.5t13.5 -14.5q-3 -3 -3 -1q-21 8 -40 -3q-13 -11 -26 -12q1 4 3.5 6t6 4t4.5 3l6 5q3 0 5.5 2l5.5 4.5t6 3.5z
" />
    <glyph glyph-name="s_s.liga" unicode="ss" horiz-adv-x="591" 
d="M369 431q11 -2 16 -1q10 0 40 -6q1 -3 -5 -4h-7q-10 -2 -10 -3q0 -2 2 -2q23 -2 29 -5q5 -2 5 3q0 3 -4 6l16 -5q14 -8 16 -10q17 -11 17 -26t-18 -25q-4 -2 -20 -13t-28 -13q-4 0 -8.5 -3l-10 -7t-9.5 -6q40 -29 81 -73q10 -11 50 -63q7 -8 8 -17q9 -38 5 -55l-4 -21
t-6 -23q-15 -39 -86 -60q-54 -19 -102 0q-39 15 -62 55q-5 10 4 20q8 -2 30 -20q3 1 3.5 5.5t2.5 5.5q6 -3 16 -12t17 -12q2 -1 8 -3.5t9 -3.5q17 -3 29 8q29 25 37 44q4 12 3 20q-4 17 -17 38q-2 3 -12.5 23t-19.5 29q-6 8 -10 11q-33 18 -58 51q-105 -74 -112 -80
q16 -41 19 -59q4 -26 -2 -54t-23 -43q-3 -2 -5 -5q-8 -23 -43 -31q-14 -3 -39 -12.5t-36 -12.5q-50 -13 -94 17q-9 7 -9 22q-3 58 8 74q15 22 28 32q28 23 52 33q32 16 33 17q-5 6 -12 17t-14 19.5t-16 13.5q-4 2 -6.5 5.5t-6 9t-5.5 7.5q-2 3 -24 38q-15 24 -19 38t0 45
q7 37 37 49q8 3 22.5 13t31.5 16q16 5 18.5 6t8 -0.5t17.5 -1.5q15 5 41 -1q12 -2 20 -11q2 -2 -1 -3q-9 -3 -5.5 -8t10 -10t-0.5 -12q-12 3 -18 3t-15.5 -2.5t-12.5 -2.5q-15 0 -37 -15t-22 -25q0 -18 20 -41l11 -13t7 -8q3 -3 6 -7t5 -6q7 -6 16 -15l19.5 -20l15.5 -16
q3 -3 15 1q3 1 11 4t11.5 4.5t9 5t9.5 8.5q20 22 56 37q-21 26 -25 37q-11 30 -1 54q13 31 32 41l16.5 8.5l13.5 7t11.5 5t12 2t13.5 -1.5zM406 402q-26 -2 -35 -12q-5 -5 -13 -7q-18 -8 -16 -21q4 -20 18 -26q9 -4 16 -1q31 19 49 38q9 10 6 17.5t-15 9.5q-8 2 -10 2z
M452 397q0 -7 3 -9t5 2q0 5 -8 7zM22 355q0 -3 -3 -10t-2.5 -13.5t7.5 -14.5q-1 4 2 19.5t-4 18.5zM360 276q-1 1 -2.5 0.5t-2.5 -1.5q-3 -3 2 -8q7 -5 25 -25q4 -4 13 -11.5t13 -11.5q6 -5 10 -1q2 4 -1 9q-5 7 -12.5 14t-13.5 11.5l-16 12zM109 124q-11 -9 -28 -18
q-18 -10 -28 -13q-13 -4 -43 -32q-4 -4 -7 -12t-5.5 -21t-2.5 -14q-1 -6 3 -10q14 -14 33 -5q5 3 15 1q1 -1 -0.5 -4t0.5 -5q1 0 6 1t7.5 2.5t3.5 6.5q1 2 11 7q14 8 34 16q14 6 15.5 11t-0.5 30q-1 11 0 21q1 21 -14 38zM281 95q4 4 10 -2q7 -7 4 -14q-8 -1 -12 4
q-6 8 -2 12z" />
    <glyph glyph-name="t_i.liga" unicode="ti" horiz-adv-x="460" 
d="M254 607q-50 26 -15 75q14 20 43 25q16 1 16 -13q-1 -9 11 -19q34 -31 5 -55q-3 -2 -9 -8t-11.5 -8.5t-12.5 -1.5q-4 4 -13 3.5t-14 1.5zM478 109q18 14 32 4q-8 -12 -24 -24q-22 -18 -32 -33q-5 -10 -18 -11q-3 0 -18 -12q-3 -2 -9 -5t-9 -6q-10 -12 -11 -13
q-4 -3 -18 -8l-19 -6q-6 -3 -14 -3q-2 0 -5 0.5t-4 0.5q-2 -1 -5 -3.5t-5 -3.5q-4 -1 -12 5q-8 8 -16 9l-7 3.5t-7 3t-8 -2.5q-3 -2 -13 6q-14 15 -18 49q-22 -20 -44 -44q-6 -6 -9.5 -8.5t-11.5 -5t-12 -3.5q-7 -2 -14 -7q-25 -21 -63 -18q-2 0 -5.5 1t-6.5 1t-6 -3t-8 5
q-2 4 -5.5 12t-5.5 12q-4 10 -10 7q-4 -2 -7 3q-21 28 -26 60q-4 29 -4 87q0 16 -0.5 74t1.5 74q2 29 7 129q0 17 -2 21q-35 -7 -49 -1q-3 1 -2 3q5 0 19.5 3.5t20.5 4.5q-11 2 -16.5 2t-17 -2t-14.5 -2q-16 0 -21.5 4t-5.5 17q10 1 38 6t39 6q5 0 5.5 1t0.5 7q2 17 0 34
q-2 11 5 46q3 2 4 -3.5t2 -15t4 -13.5q8 18 4 46q-2 20 14 29q26 -14 40 -60q2 -7 13 -67q12 1 29 2t21 1q24 3 54 3q9 0 41 4.5t40 4.5q3 0 22 2.5t24 0.5t24.5 1t20.5 3q19 0 34 -10q8 -6 -1 -10q-4 -2 8 -8q8 -4 10 -6q-31 0 -39 -9q-2 -3 2 -5q3 -2 -7 -3q-4 -1 -18 -2
q-9 -1 -13 -1q-1 0 -11.5 1t-27.5 1.5t-45 -1.5q-27 -2 -49 -2q-41 -2 -57 -4q-29 -6 -43 -4q-11 1 -13.5 -1.5t-1.5 -14.5q1 -20 4.5 -60t4.5 -55q4 -70 3 -92q0 -16 1.5 -34t4 -40t3.5 -34l6 -63q2 -17 23 -32q4 -4 10 -1l20 10q13 7 20.5 12t15.5 12.5l12 11.5q2 1 14 9
q0 39 1 58q2 66 5 97q5 50 3 84q-1 8 1 30t-1 31q-1 8 12 19t33 13q27 3 35 -29q3 -8 4 -9q8 6 11 5t3 -11q2 -8 -1 -15q-4 -14 -1 -30q3 -21 5 -126q1 -24 7 -77q0 -9 2 -27l3 -27q0 -4 0.5 -11t0.5 -9.5t1.5 -6.5t4.5 -2.5t9 2.5q38 18 52 28q34 23 38 24q10 5 15 10z
M99 36q3 -7 13 -8q3 -1 4 1q1 1 -4 6t-10.5 14.5l-9 16t-5.5 6.5q-1 0 0.5 -7t3.5 -14.5t2 -8.5q0 -2 3 -3.5t3 -2.5z" />
    <glyph glyph-name="t_i_t.liga" unicode="tit" horiz-adv-x="733" 
d="M264 607q-50 26 -15 75q14 20 43 25q16 1 16 -13q-1 -9 11 -19q34 -31 5 -55q-3 -2 -9 -8t-11.5 -8.5t-12.5 -1.5q-4 4 -13 3.5t-14 1.5zM714 67q3 2 3 -3q1 -18 -18 -40q-5 -5 -11 -9q-11 -7 -31 -15q-7 -2 -14 -7q-39 -13 -80 -10q-2 0 -5.5 1t-6.5 1t-6 -3t-8 5
q-2 4 -5.5 7t-5.5 7q-4 10 -10 7q-4 -2 -7 3q-11 15 -19 73q-3 -3 -11.5 -12.5t-15.5 -14.5q-4 -3 -9 -7.5l-8 -7t-7 -2.5l-10.5 -7t-9.5 -7l-20 -17q-4 -3 -18 -8l-19 -6q-6 -3 -14 -3q-2 0 -5 0.5t-4 0.5q-2 -1 -5 -3.5t-5 -3.5q-4 -1 -12 5q-8 8 -16 9l-7 3.5t-7 3
t-8 -2.5q-3 -2 -13 6q-14 15 -18 49q-15 -9 -29.5 -23.5t-24.5 -20.5q-21 -12 -33 -17q-7 -2 -14 -7q-25 -21 -63 -18q-2 0 -5.5 1t-6.5 1t-6 -3t-8 5q-2 4 -5.5 12t-5.5 12q-4 10 -10 7q-4 -2 -7 3q-21 28 -26 60q-4 29 -4 87q0 16 -0.5 74t1.5 74q2 29 7 129q0 17 -2 21
q-26 -6 -48 -1q-4 1 -3 3q5 0 19.5 3.5t20.5 4.5q-11 2 -16.5 2t-17 -2t-14.5 -2q-16 0 -21.5 4t-5.5 17q10 1 38 6t39 6q5 0 5.5 1t0.5 7q2 17 0 34q-2 11 5 46q4 -5 5.5 -16t4.5 -16q8 18 4 46q-2 20 14 29q26 -14 40 -60q2 -7 13 -67q9 1 26.5 1t23.5 2q17 8 64 3
q9 -1 42 4t39 5q3 0 22 2.5t24 0.5q4 -1 40.5 1t74.5 4.5t41 2.5v4q0 3 2.5 15t1.5 18q-1 11 6 51l14 20q0 6 9 -1q13 -9 19 -5q18 -10 22 -14.5t9 -22.5q3 -11 2 -32t1 -33q8 1 19 1t17 2l30 2q-2 -1 -7 -2q2 -1 9 0t18.5 2.5t14.5 1.5q22 0 32 -9q4 -3 -4 -7q-4 -2 5 -5
q11 -4 13 -6q-5 -8 -14.5 -13.5t-15 -7t-21 -4t-16.5 -2.5h-14t-18 -1q-25 -5 -33 -4q-11 1 -13.5 -0.5t-1.5 -7.5q2 -16 9 -138q4 -70 3 -92q0 -16 1.5 -34t4 -40t3.5 -34t3.5 -33t2.5 -26q2 -17 23 -32q1 -1 10 -1q2 0 20 -1t20 3q15 8 23 15.5t19 12.5zM472 99q12 8 14 9
l-3 18q-3 6 -1 40t2 40q0 15 2 50t2 51t-2 50q-3 27 1 101q0 14 -1 18l-33 -3q-145 0 -186 -3q-27 -2 -49 -2q-4 0 -26 -2.5t-41 -1.5q-1 0 -19.5 -2.5t-23.5 -1.5q-11 1 -13.5 -1.5t-1.5 -14.5q1 -20 4.5 -60t4.5 -55q4 -70 3 -92q0 -16 1.5 -34t4 -40t3.5 -34l6 -63
q2 -17 23 -32q4 -4 10 -1l20 10q14 8 30 19t28 17l14 8q0 39 1 59q2 66 5 97q5 50 3 84q-1 8 1 30t-1 31q-1 8 12 19t33 13q27 3 35 -29q3 -8 4 -9q8 6 11 5t3 -11q2 -8 -1 -15q-4 -14 -1 -30q3 -21 5 -126q1 -24 7 -77q0 -9 2 -27l3 -27q0 -4 0.5 -11t0.5 -9.5t1.5 -6.5
t4.5 -2.5t9 2.5q35 17 51 28q34 23 38 24zM574 135q1 0 2 3t1.5 8t0.5 8.5v5.5q0 1 -2.5 14.5t-5 25.5t-4.5 12q-1 -3 -0.5 -12.5t1.5 -23.5l1 -14q0 -27 6 -27zM94 24q2 -1 3 0.5t1 3.5q-11 32 -16 32q-1 0 0.5 -7t3.5 -14.5t2 -8.5q0 -6 6 -6z" />
    <glyph glyph-name="t_t.liga" unicode="tt" horiz-adv-x="544" 
d="M321 660q21 -3 28 -23q20 -65 24 -97q1 -13 4.5 -15t17.5 1q16 2 24 2q64 2 90 -3q18 -5 21 -16q-36 -6 -40 -5q-18 4 -34 -7q-12 -8 -24 -8t-34 -4q-19 -4 -18 -24q1 -12 -3 -151q-3 -48 -2 -58q1 -12 -1 -37.5t0 -38.5q0 -3 0.5 -9.5t1.5 -9.5q8 -41 6 -78q-1 -9 1 -16
t5 -11l9 -11.5t9 -12.5q7 -8 23 -3q37 13 39 15q4 2 25 14.5l29 17.5q5 3 5 -5q2 -20 -12 -34q-2 -3 -5 -4q-10 -4 -23 -13q-1 -1 -13.5 -8.5t-17.5 -11.5q-13 -11 -21.5 -13.5t-29.5 -2.5q-14 2 -21 1q-21 -2 -53 20q-23 17 -27 22q-11 10 -17 44q-3 22 -3 46q0 16 -1 48
t-1 48q0 14 -3 18q-2 2 -2 5q-1 11 -4.5 45.5t-4.5 52t2 45.5q2 4 2 42v42q1 5 -1.5 8t-7.5 2q-40 0 -42 4q2 4 20 6.5t20 4.5q-7 6 -26 2q-48 -12 -57 -12q-6 0 -17.5 -4t-19.5 -3q-14 0 -12 -14q4 -41 1 -160q-1 -31 2 -89.5t3 -84.5q0 -2 9 -82q5 -36 -14 -53
q-8 -7 -16 -24q-10 1 -12.5 0.5t-3 -9.5t-1.5 -11q-6 4 -10 9t-7.5 11.5l-5.5 10t-3.5 12.5t-2 11t-2 13t-1.5 12q-2 14 -6.5 41t-6.5 40q-7 -18 -2 -45q9 -44 6 -80q-11 2 -11 11q1 8 -9 45q-6 25 -6 89q0 8 -1.5 24.5t-0.5 25.5q0 21 -6 67t-5 71q4 76 6 89q3 25 1 54
q-10 1 -27 -2.5t-22 -3.5t-10.5 -0.5t-8.5 -1t-6.5 0t-8 1.5t-10.5 4q-2 1 -7 12t-4 13q9 11 18 11t20 2t21 1q16 -1 31 4q11 3 13 5.5t3 12.5q2 55 2 59q0 9 5 23t6 17q3 12 15 4q5 -5 6 -7q9 -24 19 -27q21 -6 27 -12.5t8 -23.5q0 -1 1 -6t2 -9t2 -6t2.5 -6t2 -4t2.5 -2
t4.5 -1t7.5 0q32 3 56 3q11 0 25 2.5t25 1.5q14 0 26 4q3 8 0 27q-2 14 0.5 21t7.5 3t10 -18q2 13 1 26q-2 13 6 22q12 15 12 48q0 10 1.5 11.5t12.5 -0.5zM501 498q-8 -5 -11.5 -5.5t-14.5 3.5q11 5 26 2zM527 496q-7 -5 -15 -1q0 7 15 1zM361 125q-3 -6 -5 -13.5t-2.5 -12
t0.5 -14t1.5 -12t3.5 -14t3 -12.5q-1 11 0 39t-1 39z" />
    <glyph glyph-name="u_u.liga" unicode="uu" horiz-adv-x="843" 
d="M892 111q1 -6 1 -8t-5.5 -6.5t-6.5 -5.5q-18 -20 -21 -22q-10 -7 -21 -16.5t-21 -16.5q-27 -23 -51 -32q-43 -14 -63 -8h-2q-13 -8 -24 8l-2 2q-15 17 -18 26q-5 9 -10 12q-4 -6 -15 -12t-16 -10q-3 -2 -7 -4t-5 -3q-14 -17 -40 -31q-23 -10 -66 1q-1 0 -3.5 1t-4.5 1.5
t-3 0.5q-7 -2 -13 1t-13.5 11t-9.5 9q-10 7 -14 32l-2 8q-2 -2 -15 -7.5t-22 -16.5q-18 -11 -19 -11q-6 0 -8 -3q-5 -9 -26 -17q-8 -4 -13 -9q-7 -7 -38 -7q-9 4 -23.5 8.5t-21.5 7.5q-13 6 -22 17q-16 20 -19 46q0 1 -2 5q-5 0 -9 -2.5t-8 -8.5t-5 -7q-22 -26 -34 -38
q-23 -24 -61 -18q-29 5 -56 29q-9 7 -12 23q-19 73 -12 139q0 14 -4 25q-5 14 -5.5 28t0.5 35t1 28q0 12 4 44t2 49q-2 23 12 23q5 0 20.5 1.5t23.5 0.5q14 -1 32 -21q19 -21 22.5 -50.5t-1.5 -53.5q-2 -60 -2 -71t-1.5 -33t-0.5 -33q3 -36 2 -44q-1 -16 19 -34
q5 -5 18 -2.5t21 10.5q15 15 32 37q5 5 5 19q2 21 0.5 78t-1.5 78q0 10 1 32t0.5 38.5t-2.5 32.5q0 9 8 9t24 6t22.5 5t20.5 -11q2 1 7.5 6t10.5 3t5 -19v-23.5t2 -30.5q1 -8 5 -29q6 -33 1 -50q-1 -3 -1 -28q1 -20 0 -58.5t-1 -57.5q1 -13 0 -37.5t-1 -32.5q0 -18 7 -26
t20 -2q9 2 11 4q25 18 82 54l-1 3q3 2 4 5.5t0.5 6t-2 7t-1.5 6.5q0 1 -1 11.5t-2 16.5q-4 23 -1 51q3 33 3 185q0 8 -3 20.5t-2 19.5q1 11 4.5 14t15.5 2q24 -3 41 -24l2 4t1 3q16 14 25 -2q2 -3 4 -9t5 -9q4 -3 4 -15q0 -35 1 -40q1 -2 0 -9l-1 -7q2 -17 0 -57t-1 -55
q1 -13 1.5 -53t6.5 -66.5t22 -46.5q11 -11 21 -7q8 3 15 8t13 8q16 10 30 27q12 13 5 51q-5 31 -3 80q1 18 1 55q-1 41 2 92q1 9 -1 27q-3 8 4 17q7 5 19 -3q2 -1 6 -4t6 -4q9 6 23 4t21 -11q20 -26 19 -42q-1 -24 1 -68q2 -16 -1 -99q-1 -29 6 -69q1 -8 4.5 -15.5t9 -18
t8.5 -15.5t13 -3q16 4 37 16q14 14 52 42q16 12 25 3zM635 76l-5 -5zM476 20q8 -16 27 -10q-5 7 -23.5 20t-23.5 26q-5 -11 5 -20q13 -13 15 -16zM88 17q13 -4 28 7q-10 4 -13.5 3.5t-14.5 -10.5z" />
    <glyph glyph-name="v_v.liga" unicode="vv" horiz-adv-x="616" 
d="M581 459q7 -2 5 -9q-1 -5 -5 -20q-3 -11 -5 -32t-4 -30q-11 -44 -19 -73q-5 -18 -5 -35q0 -14 -15 -74q-2 -6 -4 -16q-8 -58 -29 -122q-1 -4 -2.5 -12t-2.5 -12q0 -1 -1 -4.5t-1.5 -5t-2 -3.5t-4 -3t-6.5 0q-2 0 -3 -1.5t-1.5 -3t-1.5 -2.5q-4 -5 -25 -9t-25 -1
q-13 9 -16 17q-2 4 -11 25t-15 32q-2 4 -4 10q-5 23 -21 74t-21 79q-3 15 -13 41.5t-13 36.5q-2 7 -21 80q-1 6 -1 15.5v15.5q13 -3 37 -1q16 0 32 -18q21 -21 24 -46q1 -12 6.5 -39t6.5 -42q0 -5 2 -7q8 -13 25 -53q5 4 3 12l-37 158l-3 15q-2 9 6 10q8 3 11 -6
q5 -13 8 -23q3 -13 8.5 -45.5t9.5 -49.5l17.5 -58.5t18.5 -69.5q3 -11 2 -20q-3 -12 13 -30q2 11 10 43.5t10 50.5q4 26 16 73t16 67q3 13 10.5 38.5t10.5 38.5q1 8 10 20.5t10 20.5q1 5 10 3zM-32 434q20 5 30.5 4.5t31.5 -8.5q7 -3 10 -10q9 -21 11 -26q2 4 1.5 12t1.5 13
q13 -7 24 -37l21 -73q3 -12 10 -35.5t12 -42.5t8 -37q4 -27 16 -81q4 -1 7 7q17 38 21 70q7 47 39 158q8 22 12 45q2 7 13 29q6 12 20 7q7 -3 0 -25q-5 -25 -19 -75l-3 -12q-1 -16 -11 -48q-3 -9 -7.5 -26.5l-6.5 -25.5q-4 -14 -8 -30l-8.5 -35.5t-7.5 -30.5q-4 -18 -4 -29
q0 -9 -2 -13q-9 -13 -13 -41.5t-10 -40.5q-1 -1 -1 -4q0 -2 1 -6t0.5 -7t-4.5 -5q-4 -1 -6.5 0t-6 3.5t-5.5 3.5q-20 6 -29 1q-5 -4 -14 1.5t-11 13.5q-9 31 -13 40q-2 4 1 11t3 11q7 -6 13 -18.5t9 -16.5q-10 44 -29 57q-21 14 -26 44q-7 45 -27 117q-7 24 -16.5 68.5
t-14.5 62.5q-4 20 -14 27q-10 8 -6 26q0 5 7 7zM380 430q9 2 10 -5q1 -4 -3 -6q-8 -2 -10 6q-2 5 3 5z" />
    <glyph glyph-name="w_w.liga" unicode="ww" horiz-adv-x="908" 
d="M408 453q8 -2 6 -10l-3 -14.5t-4 -14.5q-7 -22 -13 -82q-4 -37 -26 -107q-16 -55 -22 -94q-2 -12 -6 -25.5t-9.5 -30l-8.5 -25.5q-2 -8 -9 -23t-9 -24q-1 -5 -3.5 -7t-15.5 -9q-25 12 -42 35q-3 -2 -2.5 -5t-1.5 -5q-27 13 -36 41q-5 18 -10 70q0 2 -6 107q0 10 -4 13
q-7 -7 -11 -23l-19.5 -64.5t-21.5 -85.5q-1 -11 -8 -34t-8 -36q0 -7 -5 -12q-10 4 -12.5 3t-9.5 -9q-7 -10 -11.5 -11t-16.5 5q-26 11 -34 44q-4 14 -11 70q-9 61 -9 62q-7 23 -24 123q-12 74 -20 110q-3 10 -1 13q5 -2 6.5 -10.5t5.5 -10.5q2 5 -1 13.5t-2 13.5
q7 -3 17 2.5t15 5.5q2 8 6.5 10.5t14 2t10.5 -0.5q12 1 21 -7t11 -21q4 -26 8 -40q5 -23 7 -51q1 -15 5 -42t5 -39q4 -52 10 -78l3 -20q4 4 12 26q16 54 25 81q1 3 13.5 38t17.5 54q3 12 2 22q-2 8 -4 26q-3 32 26 24q23 -5 42 -15q8 -6 11 -10q22 -28 31 -79
q13 -76 15 -156q0 -8 4 -10q1 1 7 15l44 119q2 5 7 33q2 14 11 42.5t11 42.5q1 3 2 9.5t2 11.5t2 9v5t0.5 6t3 4.5t7.5 1.5q2 4 2 6q2 10 2 13q2 9 9 8zM465 423q18 -2 24 -15q1 -3 3.5 -8l3.5 -7q22 19 32 -9q5 -13 12 -53q3 -19 13 -64t13 -70q1 -9 2.5 -19.5l3.5 -23.5
l3 -20l3 -8q4 0 5.5 2t2 3.5t1 5t0.5 4.5q3 21 7 63q2 15 10.5 43.5t10.5 41.5q2 12 9.5 35t9.5 35q1 7 6.5 11.5t12.5 2.5q11 -4 24 3q16 9 36 -2q7 -4 14 -4q15 -1 18 -16q23 -84 24 -91q7 -37 18 -80q3 -13 6.5 -38.5t4.5 -31.5q2 -14 6 -18q2 20 8 56l33 211q2 15 7 19
t22 4q-2 -9 -4 -26t-4 -25q-11 -62 -25 -186q-1 -5 -3.5 -21t-3.5 -24q0 -9 -3.5 -27t-3.5 -28q0 -25 -16 -57q-2 -4 -8 -7t-7 -6q-11 11 -20 10q-15 -3 -27 14l-6 9q-3 4 -10 15.5t-12 16.5q-11 9 -14 28q-2 13 -10 34q-5 12 -9 36l-10 71q-2 10 0 31q0 5 -7 13.5t-7 13.5
q0 4 -2 10t-2 10q-2 15 -7 18q-5 -3 -5 -17q-2 -24 -26 -126q-1 -3 -5.5 -25t-6.5 -34q-3 -15 -10 -42.5l-8 -31.5q-2 -8 -5 -9.5t-13 -0.5q-3 -1 -1 -4.5t2 -5.5q-7 -13 -13 -11q-1 1 -7 2t-9.5 3.5t-4.5 7.5q-5 20 -10 23q-6 -4 -6.5 -13.5t-2.5 -12.5q-8 0 -15 13
q-32 67 -42 113q-2 7 -13 104q-1 5 -15 140q-2 10 -2 15q0 6 2.5 10t8.5 3q5 -1 8 0.5t2 7.5q0 6 9 6zM870 417q2 -1 2.5 -4t1.5 -4q7 -9 0 -12q-12 -5 -19 4q-2 4 2 7q9 4 13 9zM676 351q-1 -2 -1 -3q0 -16 5 -16q1 0 1 2.5t-1 7.5v4q0 5 -4 5zM505 146q-1 0 -5 -2
q3 -3 -0.5 -7.5t-3.5 -6.5q5 -20 19 -46q5 7 1 28.5t-4 27.5q0 4 -7 6z" />
    <glyph glyph-name="x_x.liga" unicode="xx" horiz-adv-x="609" 
d="M316 455q1 4 7 3.5t8 -4.5q2 -3 3.5 -6l3.5 -7t3 -7q1 1 4.5 5.5t6 5.5t6.5 0q2 -1 15.5 -2.5t18.5 -7.5q2 -2 6.5 -7t6.5 -7l5.5 -8.5t7.5 -9.5t9 -6q4 -1 12 -20l35 -75q18 25 53 68q5 6 15 16.5l13 13.5q9 9 20 5q-2 -3 -1.5 -6t2.5 -5.5t-2 -10t-15 -18.5
q-12 -12 -22.5 -26.5t-22.5 -34t-18 -28.5q-7 -10 -3 -21l8.5 -20.5t6.5 -17.5l22 -57q5 -14 16.5 -38t15.5 -33l9 -24.5t8 -22.5q-13 -4 -14.5 -7t0.5 -13q1 -3 -0.5 -9.5t-1.5 -10.5l-35 19q-15 8 -20 4q-4 -2 -12 4q-23 16 -34 43q-18 42 -26 63q-4 10 -10 17
q-8 -7 -19.5 -22t-15.5 -19q-34 -35 -61 -93q-3 -6 -4 -7.5t-4.5 -5.5t-6 -2.5t-9.5 2.5q-4 2 -12 -9q-6 -10 -14 -6q-3 2 -5.5 11t-0.5 11l9 11q6 6 6 7q1 8 4.5 14t12 15.5t9.5 10.5l13 16l70 106q4 7 1 21q-10 32 -61 133q-6 12 -10.5 25.5t-9.5 32.5t-8 27q-2 5 2 12.5
t4 11.5zM281 416q8 -8 3 -18q-46 -84 -86 -129l-18 -24.5t-14 -19.5q-7 -9 0 -17q5 -10 5 -14q0 -25 15 -53q7 -13 13.5 -38.5t9.5 -34.5q6 -19 11 -25q2 -2 12 -23q3 -7 -2.5 -15.5t-11.5 -8.5q0 -4 -3 -7t-7 -3t-8 1q-3 0 -19 11q-7 5 -7 0q1 -4 6 -17q-1 -1 -10 2
q-31 10 -49 47q-4 9 -19.5 38t-21.5 46q-4 1 -11 -6l-18.5 -21l-20 -22.5t-17 -21t-16.5 -23.5q-4 -6 -9 -9t-16 -4.5t-12 -1.5q5 8 13.5 26.5t13.5 27.5q9 14 20 28l25.5 31t21.5 26q10 11 5 24q-34 75 -46 138q-2 13 -8.5 36.5t-8.5 32.5q-3 18 5 27.5t25 7.5
q47 -6 72 -46q28 -46 31 -55l15 -40l4 -1q15 26 36 50t52.5 54t44.5 44zM385 290q1 -2 3.5 -8.5t4 -11.5t1.5 -6q0 -2 3 -5q4 -4 5 -6l5 -17q0 1 2 7t2 10q0 11 -6 15q-2 2 -6.5 8.5t-8 11t-5.5 2.5z" />
    <glyph glyph-name="y_y.liga" unicode="yy" horiz-adv-x="603" 
d="M-2 411q21 -9 28 -8q3 1 4.5 -1t1.5 -5q1 -7 9 -10q24 22 39 -8q35 -75 52 -158q2 -13 16 -55q1 -3 5 -18t9 -24q1 4 2 9t2 9t1 7q15 94 33 143q11 28 23 86q4 17 7 20q8 0 10 -6q0 -7 4.5 -19.5t4.5 -19.5q3 -64 -20 -127q-16 -46 -25 -113q-2 -23 -16 -63
q-5 -15 -7 -32q-2 -21 -14 -59q-3 -12 -7.5 -34.5t-6.5 -29.5q-2 -12 -4 -14q-10 -14 -16 -46q-7 -35 -24 -53q-2 -2 -3.5 -7t-2.5 -7q-3 -10 -14 -10q-3 0 -4.5 1.5t-2.5 5t-2 5.5q-7 16 -1 31q4 11 6.5 23t4.5 27t4 23q6 29 31 124q6 17 -8 24q-4 -13 -14 -17
q-20 21 -28 45l-16.5 44.5l-18 48t-14 44t-12.5 48.5q-3 12 -12 34.5t-11 30.5q-20 70 -21 84q1 2 4 1t4 0q0 2 -1 6t-1 6q0 24 22 14zM318 401q18 -2 29 -1q6 0 10 -4q33 -45 39 -69q3 -15 12 -41t11 -34q17 -55 26 -104q2 -14 5 -21q7 0 7 -47q3 13 12 64t17 90t16 63
q8 26 7 40q0 5 2 7q5 4 7 8t4.5 12l3.5 11q18 -29 17 -39q-4 -43 -32 -198q-11 -66 -14 -92q-3 -16 -10 -36q-3 -9 -7.5 -32t-10.5 -35l-6 -32q-1 -5 -8 -35t-8 -46q0 -6 -2 -16q-2 -9 -9 -8q-2 0 -3.5 -1t-3 -3.5t-2.5 -3.5q-13 -11 -23 -6q-11 4 -12 14q0 8 5 56
q1 10 8 31.5t8 33.5q0 1 3 18.5t-1 18.5q0 1 1 9t-4 12l-2 3q-2 4 -4.5 8.5t-3.5 6.5q-4 8 -11 19t-11 19.5t-6 17.5q-16 78 -50 148q-15 31 -35 95q-5 15 0 60q-9 17 3 20.5t27 -0.5q1 3 -1 9t0 10z" />
    <glyph glyph-name="z_z.liga" unicode="&#x7a;&#x7a;" horiz-adv-x="657" 
d="M549 424q13 1 18 1t17 -3.5t17 -4.5q8 -2 6 -12q-1 -11 -6 -22q-16 -29 -42 -85t-36 -76q-10 -19 -46 -71q-18 -28 -26 -45q-14 -32 -25 -48q19 4 26 5q45 5 82 -8q12 -5 32 -5q25 -3 35 -26q-26 -7 -70 -5q-29 0 -39 -3q-8 -3 -19 -1q-8 2 -34.5 1.5t-34.5 -0.5
q-14 0 -19 -12q-11 -26 -30 -31q-1 2 -5 9l-5.5 9.5t-4 9.5t-2 10.5t0.5 11.5q-2 4 -6.5 1.5t-6.5 -2.5q-17 12 -7 33q4 9 13 32t17 39t17 30q2 2 4 5.5t2 4.5q7 15 76 140q8 11 10 20q3 7 12 17t12 15q1 2 2.5 4.5t2.5 5t1 5.5q-11 7 -25 2q-9 -2 -20.5 -3t-20 -1
t-21.5 0.5t-20 0.5h-2q-45 11 -65 7q-1 8 -0.5 11t3.5 9.5t4 9.5q0 2 6 2q38 2 57 1q26 -1 103 6q61 6 62 6zM208 409q7 1 21 -1t20 -2q4 0 4.5 -4t2.5 -5q9 -5 10.5 -12t-0.5 -10.5l-8 -13.5q0 -1 -1.5 -2.5t-1.5 -2.5q-2 -4 -9 -16t-11 -21.5t-5 -19.5q-2 -13 -11.5 -36.5
t-10.5 -28.5q-19 -56 -40 -90q-2 -3 -22 -58q-1 -2 -3.5 -10t-4 -11.5t-5 -9t-8.5 -9.5q24 -1 74 5q46 7 85 -10q-2 -3 -11.5 -10t-8.5 -14l-3 -2q-38 -12 -56 -10q-9 2 -40 1.5t-40 -0.5q-24 0 -66.5 -10t-62.5 -11q-26 -1 -36 28q5 3 14.5 3.5t13.5 1.5v10t2 12q1 5 -5 8
t-6 8q117 194 164 321q-4 3 -13 1q-38 -9 -81 -4q-10 2 -15 0q-11 -5 -19 1q-9 6 -28 11.5t-26 8.5q35 11 50 11q24 -1 73 -1q61 0 92 1q16 0 32 3zM543 396h-5.5t-5.5 -0.5t-4.5 -1.5t-3.5 -3q-15 -22 -30 -63q9 9 17.5 20t17.5 26t14 22zM164 377q2 -10 10 -7q2 1 3 3t0 3
q-5 6 -13 1zM124 99l-4 1l-13 -26t-16 -30q6 -4 8 -2q22 42 25 57z" />
    <glyph glyph-name=".notdef" horiz-adv-x="500" 
d="M0 0v700h500v-700h-500zM250 395l170 255h-340zM280 350l170 -255v510zM80 50h340l-170 255zM50 605v-510l170 255z" />
    <glyph glyph-name=".null" horiz-adv-x="0" 
 />
    <glyph glyph-name="nonmarkingreturn" horiz-adv-x="333" 
 />
    <glyph glyph-name="space" unicode=" " horiz-adv-x="210" 
 />
    <glyph glyph-name="exclam" unicode="!" horiz-adv-x="200" 
d="M87 720q34 -6 40 -34q12 -62 4 -106q-10 -57 -10 -113q0 -9 0.5 -35.5t1.5 -40.5l-3 -21q-6 -39 -3 -78q2 -21 -9 -82q-5 -26 -10 -34q-4 -8 -10 -6q-2 1 -3.5 -1t-3 -5.5t-2.5 -4.5q-5 -5 -9 8q-2 6 -2 10q0 2 -1.5 4t-2.5 1q-8 -5 -10 4v2q-3 12 -10 22q-11 17 -9 47
q0 5 1 8q-2 32 -10 43q-5 7 -5.5 14t0.5 17.5t1 14.5q-1 19 -3.5 55.5t-3.5 48.5q-3 51 -5 59q-2 6 -2 19l-3 53q0 9 1.5 34t-0.5 34q-1 8 9.5 17.5t12.5 15.5q2 8 8.5 8t7.5 -6q4 -20 10 -21q9 -3 4 31q-2 14 6 17t23 1zM78 91q6 4 14 -1q18 -9 39 -34q4 -4 3 -8
q-3 -8 0 -20t-10 -18q-6 -2 -16.5 -8.5t-19 -9.5t-17.5 0q-4 0 -10.5 -1t-11 -1t-7.5 3t-4.5 7.5t-1.5 10.5t-1 8q-1 3 -2.5 8t-1.5 7q-5 19 9 30q19 18 38 27z" />
    <glyph glyph-name="quotedbl" unicode="&#x22;" horiz-adv-x="318" 
d="M41 714q6 -3 19 -4t15 -1q28 -4 30 -36q1 -9 -0.5 -19t-4.5 -21.5t-4 -17.5l-10 -67v-6q3 -21 -12 -36q-7 -9 -13 0q-1 3 -9 8q-35 35 -34 80q-2 30 -6 63q0 3 -4 9.5t-3 10.5q2 14 9 17q4 1 5.5 4t2 6.5t1.5 5.5q6 7 7.5 7.5t10.5 -3.5zM202 713q11 -2 14 -7q6 -6 14 -7
q27 -3 22 -29q-1 -8 -5.5 -29.5t-5.5 -33.5q-5 -46 -7 -56q-2 -12 -11 -18q-7 -7 -7 -14q1 -4 -6 -18q-6 -8 -16 -2q-5 3 -8.5 6.5t-6 6.5t-5 8t-3.5 8t-2 9t-1.5 7.5t-1.5 8.5t-1 8q-1 12 -9 95q0 3 -0.5 9.5t-1 11.5t-1.5 10q0 4 4 8t5 6q2 7 10 4q2 -1 3 -1q11 -4 12 6
q2 7 8 3h7z" />
    <glyph glyph-name="numbersign" unicode="#" horiz-adv-x="543" 
d="M182 719q24 -3 29 -29q0 -4 2 -7q2 3 1.5 9.5t1.5 8.5q13 -5 20 -18t4 -27q-2 -9 -8.5 -48.5t-11.5 -59.5q-4 -18 -2 -29q9 -1 19 0q9 1 83 1q11 1 11 10q0 6 1.5 12t4 14t3.5 12q3 14 6.5 39.5t8 45.5t12.5 37q4 -12 4 -47q3 0 5 5q1 4 6.5 27.5t6.5 36.5q0 6 4.5 7.5
t8.5 -2.5q12 -10 20 -14q6 -4 8 -19q0 -21 0.5 -25.5t-2.5 -25.5t-4 -26l-3 -35q-1 -7 -4.5 -24t-4.5 -27q7 1 20.5 -1t20.5 -1q5 0 19 -2q3 0 3.5 -2t1 -4.5t1.5 -4.5q1 -1 -5 -4q-13 -5 -13 -18q0 -5 -4 -6t-13.5 -4t-15.5 -4q-21 -6 -22 -6q-5 0 -5 -8q0 -1 -6 -31
q-9 -32 -15 -68q-8 -43 -9 -52q2 1 31 4q12 0 24 -6q5 -2 5 -9q-2 -7 -6 -9q-2 0 -10 -2q2 -2 14 -2q15 -1 9 -15q-2 -5 -2 -6q-1 -4 0.5 -6t-2.5 -3t-4.5 -1h-5.5q-9 0 -13 -5q-2 -3 -10 -3q-10 2 -39 -3q-4 -1 -4 -4q-1 -10 -5.5 -28t-5.5 -27q-1 -25 -8 -53
q-3 -10 -4.5 -28t-2.5 -24q-1 -9 -11 -46q-3 -7 -9 -19.5t-8 -18.5q-2 -4 -22 -24q-1 1 -1 3t-2 3q-6 -5 -8.5 -6t-4.5 1t-5 10q-3 6 -12 15l-3.5 -7l-3.5 -7q-4 -6 -8 -5q-5 1 -2 9q1 2 1.5 5.5t1.5 6.5t3 6q-12 0 -12 15q-2 7 0 22l3 22t5 21.5t5 21.5q2 10 7.5 28t9 33
t4.5 29q0 5 3.5 16.5t1.5 18.5q-39 -9 -65 -8q-7 0 -21 -2t-18 -2q-10 0 -8 -10q1 -7 -6 -35q-3 -11 -5 -34q-6 -40 -7 -60q-2 -36 -4 -54q-5 -32 -26 -52q-4 -4 -8 2q-6 9 -6 21q-10 -4 -12 -3t-5 11q-1 2 -6.5 15.5t-5.5 21.5q0 33 3 50l9 48q1 4 12 70q-7 3 -18 -1
q-8 -3 -39 -3q-8 0 -15.5 8t-7.5 16q0 14 13 14q10 1 12 12q2 5 8 11q-1 1 -3 2t-3 2.5t0 3.5q1 4 9 4q1 0 5 1t6 0t4.5 -0.5t0.5 5.5q-1 1 1 1.5t4 0.5q20 0 30 -2q6 0 6 5l9 37.5t10 44.5t5 38q2 20 5 29q1 6 -5 6q-20 1 -41 -5q-10 -2 -23 7q-5 5 0 9q6 5 3 13
q-9 20 3 34q2 2 0 9q26 4 40 2q4 0 14 1t14 1q4 -1 5.5 1t2.5 7q6 35 22 105q3 11 5.5 33t5.5 33l3 23q1 5 6 4zM303 398l12 66q-8 2 -15 -1t-21 -6.5l-18 -4.5q-18 -6 -56 -8q-6 0 -8 -7q-2 -27 -5 -33l-15 -60l-3 -17.5t-4 -20.5t-6 -17q-2 -3 0 -4.5t5 -0.5t7 2.5t6 1.5
q58 8 87 11q14 0 14 12q0 3 1.5 8.5t1.5 7.5q11 42 17 71zM265 282q-7 0 -22.5 -4t-24.5 -4q-37 0 -47 -3q20 -2 55.5 1t39.5 3q9 0 8 5t-6 3q-2 -1 -3 -1z" />
    <glyph glyph-name="dollar" unicode="$" horiz-adv-x="358" 
d="M124 734q5 2 11 -7q1 -2 4.5 -5t4.5 -5q12 -18 6 -31q0 -19 2 -22q6 -6 13 -8l9 -3q31 -4 70 -39q19 -16 12 -42q-1 -3 -1.5 -8.5t-0.5 -8.5q-23 9 -31 22q-3 6 -12.5 14.5t-12.5 12.5t-8 4q-14 -4 -38 8q-2 -9 -2.5 -23.5t-0.5 -15.5q-1 -8 -2.5 -22.5t-2.5 -26
t-1 -21.5q0 -8 1 -31.5t0 -36.5q-2 -14 10 -22q20 -13 66 -55q4 -3 13 -10.5t13 -10.5q55 -49 60 -111q1 -12 -2.5 -42t-3.5 -41q0 -10 -1.5 -18t-3.5 -12l-7 -14t-8 -15q-10 -19 -37 -31q-1 0 -5 -3t-5 -3q-6 4 -7 2.5t-3 -7t-6 -7.5q-33 -11 -47 -10q-21 1 -21 -20
q-1 -11 -1 -35q-4 2 -12 0t-11 1q-15 11 -12 29q2 11 0 14t-14 5q-28 6 -55 33q-5 5 -30 28q-5 5 -9.5 11t-9.5 16.5t-7 13.5q-1 2 2.5 13t5.5 13q4 3 12.5 1t12.5 -8q5 -7 17.5 -18.5t17.5 -17.5q17 -24 51 -26q8 74 8 80q-1 11 -5 31t-5 30q-3 29 -5 89q-2 15 -11 20
q-38 19 -77 72q-5 8 -13 25t-13 25q-12 18 -4 30q2 -2 7.5 -9t10.5 -12t9 -5q3 7 -5 17q-34 70 -15 118q16 42 80 61q7 2 47 16q-4 17 -2 50q0 11 10 14zM116 593q-13 -3 -21 -11t-10 -14.5t-3.5 -17.5t-2.5 -13q-3 -11 -0.5 -23t8.5 -26.5t8 -21.5q4 -19 19 -19
q-2 21 0.5 74.5t1.5 71.5zM157 325q19 -22 34 -30q-13 24 -34 30zM141 291l-2 -4q5 -79 6 -159v-39q0 -5 2 -7.5t6 -1.5q24 4 31 15q19 27 16 53q-6 62 -13 91q-3 13 -11 23.5t-14.5 15t-20.5 13.5z" />
    <glyph glyph-name="percent" unicode="%" horiz-adv-x="500" 
d="M340 705q14 -14 12 -36q-1 -15 -14 -50q-24 -73 -27 -79q-2 -4 -3 -12t-2 -10q-4 -12 -9.5 -25.5l-12.5 -30l-11 -25.5q-2 -7 -8 -25.5l-9 -27.5q-2 -10 -9 -27.5t-9 -27.5q-10 -35 -33 -93q-7 -18 -17 -60t-19 -63q-6 -14 -14 -45.5t-15 -47.5q-7 -12 -14 -16t-14 -4
q-7 1 -7 12q-2 14 1 26l12 44.5t16.5 55.5t16.5 43q3 6 8 34q18 78 45 153l23 65.5l27.5 77t24.5 64.5l25.5 64.5l19.5 50.5q5 12 16 15zM117 691l24 -6q43 -11 51 -58q8 -51 8 -56q3 -72 -15 -127q-8 -27 -40 -47q-9 -5 -13.5 -5t-17.5 3q-2 -3 1 -6t2 -6q-32 0 -42 11
q-5 5 -19 14t-20 15q-19 22 -22 39q-19 87 3 161q6 17 19 39q10 17 33.5 26t47.5 3zM119 662q-13 11 -19 -2q-11 -24 -11 -41q0 -8 -2.5 -46.5t-1.5 -59.5q2 -27 -4 -43q-1 -4 0 -8q4 -6 7.5 -18.5t6.5 -17.5q10 -20 27 -6q18 15 18 40q0 13 2 45t1 49l1 16q0 16 -1 16
q0 4 -1 15.5t-2 17t-3.5 14.5t-6.5 16t-11 13zM339 332q14 5 25 -6q10 -10 20 -14q20 -7 28 -27q33 -73 19 -144q-2 -8 -4 -33t-7 -38q-28 -73 -97 -61q-18 4 -23 11q-1 2 -6.5 3t-8.5 4q-16 16 -26 41q-14 29 -12 67q2 86 29 146q18 38 63 51zM350 286q-2 -2 -7 -6t-8 -7.5
t-4 -7.5q-14 -36 -17 -55q-2 -28 -2.5 -37.5t2.5 -37.5t3 -37q0 -4 2 -10l12 -21q9 1 10.5 -3t1.5 -14q16 7 27 23.5t9 31.5v15q0 8 1 22t1.5 25.5t0.5 21.5q0 29 -25 92q-3 5 -7 5zM295 221q-4 -3 -6.5 -8t-3 -8t-0.5 -8v-7t-2 -9.5t-1.5 -11t2.5 -12.5q4 10 11 64zM364 39
q-1 0 -10 -6q2 -2 7 0t3 6z" />
    <glyph glyph-name="ampersand" unicode="&#x26;" horiz-adv-x="588" 
d="M222 702q17 -7 16 -21q0 -3 2.5 -10.5t0.5 -11.5q-2 -2 -8 -2q-19 1 -32 -13q-10 -14 -10 -31q0 -13 -10 -31q-16 -29 3 -74q7 -18 30 -39q18 26 19 28q8 19 31 47q16 20 24 46q12 38 -20 70q-2 2 -7.5 7t-8 7.5t-5 7.5t-2.5 11q8 3 20 -9q10 9 22 2q46 -27 58 -62
q6 -21 -1 -50q-7 -39 -17 -65q-5 -17 -20 -31q-8 -9 -23 -33t-30 -39q-5 -5 0 -12q39 -64 43 -69q13 -16 17 -27q12 -27 33 -53q2 1 15 27q5 12 24 42q4 9 9.5 9t8.5 -10q10 14 21 19q1 -2 1.5 -4t0 -3t-1.5 -3.5t-1 -3.5q-7 -23 -28 -62l-9 -23t-12 -26q-2 -4 9 -15
l17.5 -17l21.5 -20t18 -17q24 -20 51 -60q3 -5 11 -12t11 -11l5 -5t4 -5q-1 -3 -6.5 -3t-7.5 -5q-3 -13 -2 -15q1 -5 -2.5 -7t-8.5 1q-4 2 -7 5l-9 5q5 -14 -6 -29q-43 1 -77 28q-3 3 -10.5 8t-12.5 9.5t-9 10.5q-5 5 -7 6q-7 1 -12 4.5t-10.5 11t-7.5 9.5q-9 9 -10 9
l-7.5 -11t-7.5 -13q-7 -22 -27 -39q-38 -29 -69 -36q-34 -8 -84 8q-28 8 -36 4q-7 -4 -18 7q-30 26 -43 41q-20 21 -20 57q0 65 1 71q6 44 33 78q6 8 16.5 23.5t19.5 27.5t19 21q6 5 25 26q2 2 5 7t6 8q-7 6 -10.5 11.5t-7 13t-6.5 12.5q-9 15 -20 31t-17.5 27.5t-11.5 23.5
q-5 17 -5 32q1 52 16 84q16 37 38 59t58 25q12 1 23 8q19 9 34 2zM154 308l-15 -17q-6 -5 -14.5 -39.5t-4.5 -39.5q1 6 17.5 49.5t16.5 46.5zM181 301q-10 -12 -14.5 -25.5t-7.5 -34t-5 -27.5v-2q0 -8 0.5 -23t0.5 -23q0 -23 6 -65q2 -9 10 -18.5t14 -8.5q10 3 29 -10
q14 -12 28 -1q17 13 37 47q8 14 7 19t-11 16q-7 7 -28 45q-7 14 -24 43t-25 45q-6 12 -17 23zM205 47q6 -7 8.5 -8t11.5 4q-14 7 -20 4z" />
    <glyph glyph-name="quotesingle" unicode="'" horiz-adv-x="170" 
d="M54 713q11 -2 14 -7q6 -6 14 -7q27 -3 22 -29q-1 -8 -5.5 -29.5t-5.5 -33.5q-5 -45 -7 -56q-2 -12 -11 -18q-7 -7 -7 -14q1 -4 -6 -18q-6 -8 -16 -2q-5 3 -8.5 6.5t-6 6.5t-5 8t-3.5 8t-2 9t-1.5 7.5t-1.5 8.5t-1 8q-1 12 -9 95q0 3 -0.5 9.5t-1 11.5t-1.5 10q0 4 4 8
t5 6q2 7 10 4q2 -1 3 -1q11 -4 12 6q2 7 8 3h7z" />
    <glyph glyph-name="parenleft" unicode="(" horiz-adv-x="264" 
d="M184 732q2 1 12 -6q6 -8 -1 -15q-6 -4 -18 -28q-18 -30 -19 -57q0 -2 -1 -3q-6 -6 -8.5 -14t-4.5 -20t-3 -16q-9 -45 -6 -59q1 -3 -0.5 -8.5t-1.5 -8.5q0 -5 2 -17t1 -19q0 -5 -1 -17.5t-1 -18.5v-6q-6 -7 -5 -19t0 -19q-2 -7 -1.5 -20t-0.5 -20q-2 -12 -2.5 -33.5
t-1.5 -29.5q-3 -17 6 -38q4 -10 -5 -47q-1 -5 -0.5 -7.5t2 -7t1.5 -6.5q6 -26 5 -39q-1 -8 1.5 -21t2.5 -16q2 -28 2 -43q-2 -35 18 -60q21 -28 27 -34q2 -2 3 -5t2.5 -6.5t2.5 -5.5t-1 -5q-6 -6 -3 -13q1 -4 -2.5 -7.5t-7.5 -3.5q-17 2 -22 7q-32 30 -40 39
q-3 4 -13.5 15.5t-15 17.5l-11.5 16t-11 19.5t-6 19.5q0 3 -2 5q-12 10 -22 43q-1 4 -4.5 9.5t-4.5 8.5q-13 40 -16 73v8q-3 16 -3 43t-1 34q-3 70 7 135q9 71 19 97q3 7 12 33.5t16 40.5q19 39 30 51q3 3 5 7t4 9t3 8q7 15 12 16q-1 4 4 7.5t5 6.5q5 16 22 19q1 0 5 4
q2 3 9 9.5t9 11.5q1 2 4 2.5t7 1.5t6 2z" />
    <glyph glyph-name="parenright" unicode=")" horiz-adv-x="252" 
d="M40 739q6 -3 11 -7t11 -10.5t9 -8.5q8 -7 15 -16.5l15 -21t13 -17.5q9 -12 22 -48q2 -5 7 -16t7 -17q12 -35 17 -60q1 -4 4 -14.5t4 -16.5q7 -40 8 -73q0 -6 -2 -31.5t0 -30.5q1 -11 2.5 -32.5t2.5 -32.5q2 -40 -2 -55q-1 -2 -4.5 -15t-4.5 -20q-1 -6 -2 -17t-1 -12
q-1 -3 -1.5 -8t-1.5 -9t-3 -7q-7 -9 -7 -17q1 -16 -11 -67q-4 -16 -20 -48q-5 -10 -9 -28q-7 -28 -22 -43q-1 -1 -2.5 -4.5t-3.5 -4.5q-5 -2 -8 0q-2 1 -1 3l2 2q3 10 3 11q3 1 -1 5q-4 1 -6 -2q-3 -7 -11.5 -18.5t-10.5 -15.5q-4 -8 -21 -17q-11 -3 -12 7q-3 27 8 44
q15 25 23 58q4 18 9.5 53t7.5 45q5 25 5 32q-4 26 -3 51q0 12 -1 35.5t-1 35.5q0 10 -1 31t-1 32q0 17 2 53q1 11 -0.5 30.5t-1.5 27.5q0 9 -0.5 19.5t-1.5 23t-1 19.5q-1 25 -9 73q-3 30 -4 35q-3 10 -20 61q0 4 -4 3q-5 -2 -5 3q-12 22 -18 38q-3 7 -3 24q0 8 9 3
q8 -5 13 2q4 5 13 1zM155 496q-2 -18 1 -24q8 -19 8 -43q0 -12 4 -15q0 53 -13 82zM163 293q-10 -16 -3 -34q0 4 1.5 11.5t2 11t-0.5 11.5z" />
    <glyph glyph-name="asterisk" unicode="*" horiz-adv-x="277" 
d="M93 713q8 2 11 -5q8 -10 11 -22q7 -33 7 -44q-2 -9 3 -15q5 3 18.5 15t25 18.5t23.5 6.5q3 -2 2 -5l-2 -4q5 -16 0.5 -23t-16.5 -17.5t-15 -16.5q-1 -2 -7 -6q-10 -11 1 -19l32 -23q11 -8 22 -20q9 -12 -6 -14q-6 -1 -7 -7q-5 -19 -22 -14q-8 2 -26 16q-1 1 -6 5.5
t-9 5.5q-5 -8 -1 -28q0 -3 2 -11t2 -13q0 -12 -7 -14q-3 -2 -5.5 1.5t-4.5 3.5q-3 0 -3 -2q-2 -11 -10 -11q-9 0 -12 12q-7 23 -4 42q0 3 1 13.5t1 13.5l-7 -6q-26 -33 -67 -48q-9 12 -7 41q1 9 10 16q6 6 22.5 20l24.5 21q-28 28 -31 30q-12 7 -15 20q0 4 -3 8t-7.5 9
t-6.5 8q8 7 19 1q26 -10 59 -31l3 58q0 3 -1 10.5t0 12.5q0 8 8 11z" />
    <glyph glyph-name="plus" unicode="+" horiz-adv-x="432" 
d="M177 438q3 -2 19 -2q17 0 27 -17q0 -1 0.5 -1t0.5 -1q-3 -8 0 -23.5t3 -21.5q0 -7 1 -15t2.5 -17.5t2.5 -14.5q0 -3 1 -10t1 -11q0 -10 12 -10q6 0 17 -1t20 -1.5t17 -0.5q8 -1 28 3q12 1 28 -4q8 -4 2 -11q-1 -1 -5 -4t-6 -5q3 -1 8.5 -1t6.5 -2q13 -9 -5 -16
q-3 -1 -5 -7q-1 -12 -17 -12h-23q-9 0 -9 -6q0 -1 -5 -1q-9 1 -25.5 1h-25.5h-4t-2 -1.5t-1 -3.5q0 -5 -0.5 -18t0.5 -17q3 -10 5 -44q1 -14 -6 -57v-7q-1 -8 -3 -12q-3 -6 -4 -6q-4 0 -6 6q-4 9 -11 6q-4 -1 -4 -5v-5q-5 2 -6.5 -0.5t-0.5 -6.5q3 -13 4 -15q-19 9 -34 -11
q-21 28 -25 53q-3 22 3 78q1 13 1 39v7q2 11 -0.5 13.5t-12.5 0.5q-7 -1 -23.5 -0.5t-23.5 -1.5q-5 -1 -13 2t-12 3q-8 -2 -22.5 1t-18.5 3q-8 1 -13 8l-5 6q-12 10 0 20q1 1 5.5 2.5t4.5 3v7.5q1 1 6 6.5t9 7.5t9 2q8 0 22 2l70 3q1 0 5 -0.5t6 -0.5q-1 8 -4 46q-1 26 2 58
q0 6 6 7q3 0 3.5 -4t2.5 -4q3 7 -1 20q-5 10 1 15q1 1 3 3.5t3 3t3.5 1.5t5 0.5t5.5 -2.5z" />
    <glyph glyph-name="comma" unicode="," horiz-adv-x="175" 
d="M75 88q4 0 4 -2q27 -6 31 -42q1 -27 -15 -56q-2 -4 -9 -16.5l-11.5 -20.5t-11 -17.5t-12.5 -14.5q-6 -6 -8 0q-2 5 -5 -1q-2 -5 -9 -2q-3 2 -5.5 8t-1.5 9q2 4 0 9q-2 7 1.5 17t3.5 18q0 2 1.5 4l3.5 4.5t3 4.5q4 4 3 6q-1 1 -2.5 -1t-2.5 -2q-5 4 -11.5 14.5t-10.5 14.5
q-7 7 -5 18q2 13 7 18q3 3 7 9.5t6 9.5q12 11 25 4h5q6 13 19 7z" />
    <glyph glyph-name="hyphen" unicode="-" horiz-adv-x="294" 
d="M96 285q22 -2 63 -3.5t58 -2.5q10 -2 11.5 -4.5t-3.5 -11.5q-1 -3 0 -10t-1 -10q-11 -6 -23 -6q-65 1 -129 -3q-3 0 -15.5 -2t-19.5 -2q-19 0 -30 21q-6 13 6 18q52 19 83 16z" />
    <glyph glyph-name="period" unicode="." horiz-adv-x="178" 
d="M55 99q5 5 16.5 0t12.5 -12q4 -21 23 -21q8 0 6 -10q-2 -6 -3 -18.5t-2 -16.5q-1 -12 -11 -19.5t-22 -6.5q-8 1 -20 -2t-18 -1h-5t-6 2l-6.5 9.5t-7 10.5t-5 9.5t-2.5 11.5q0 25 20 42q3 3 14 10t16 12z" />
    <glyph glyph-name="slash" unicode="/" horiz-adv-x="358" 
d="M254 732q12 5 20 -0.5t6 -18.5q0 -3 4 -1.5t7 0.5t0 -12l-1 -5q-1 -5 -2 -7q-12 -33 -17 -60q-5 -25 -35 -106q-32 -91 -35 -101q-2 -8 -8.5 -23t-8.5 -22l-28 -98l-32 -114l-16 -63t-21 -73q-5 -13 -7 -16q-12 -27 -16 -47q-3 -15 -26 -57q-6 6 -13.5 17.5t-13.5 16.5
q-8 7 -4 29q11 42 22 69q6 16 26 92q1 2 1 5t1 4q12 31 27.5 90t23.5 82l40 113q6 15 11.5 43t7.5 35q5 22 24.5 72.5t23.5 63.5q6 16 20 46.5t19 45.5z" />
    <glyph glyph-name="zero" unicode="0" horiz-adv-x="423" 
d="M198 716q2 1 17 -4q32 -14 46 -24q12 -9 23 -11q22 -3 34 -29q20 -46 28 -83q5 -21 4.5 -60.5t2.5 -60.5q2 -16 5 -97q0 -13 -2.5 -40.5t-1.5 -42.5q1 -4 0 -8q-6 -22 -4 -96q1 -11 -13 -36q-4 -8 -11.5 -29t-13.5 -32q-8 -19 -34 -39l-9 -9q-13 -25 -43 -25h-5
q-22 -13 -59 10q1 5 12.5 5h12.5q-8 13 -11.5 14t-18.5 -5q-19 -7 -42.5 0t-39.5 25q-5 6 -16.5 21.5t-18.5 23.5q-7 7 -16 40q-8 32 -8 86q0 21 -6 59q-5 48 -4 76.5t4.5 76.5t3.5 77q0 18 10 51.5t11 40.5q2 6 4 6h6t3 2t1.5 3.5t0.5 4.5v4q6 44 36 74q6 6 14 3q8 -4 16 1
q42 23 85 16q1 3 -1.5 6t-1.5 5zM160 673q-4 -1 -9.5 -4.5t-7.5 -4.5q-5 -2 -6.5 -3t-0.5 -3.5t4 -7.5q1 -2 2 -3q2 5 9 13t9 13zM171 664q-4 -3 -11.5 -11t-12.5 -11q-8 -7 -7 -15q2 -7 2 -45q1 -15 -4 -47.5t-3 -49.5q1 -12 -3 -35t-5 -28q-1 -21 -0.5 -32t2 -32t1.5 -31
q0 -6 -2.5 -37.5t2.5 -37.5q0 -3 -1 -5q-1 -4 0 -25t1 -25q-1 -12 1.5 -34t2.5 -27q1 -23 11 -47q11 -28 29 -36q38 -19 54 11q10 24 10 29q-3 0 -8.5 -4t-10.5 -5q0 10 9 21q17 28 18 47q2 19 0 56q-1 27 3.5 81.5t3.5 81.5q-5 101 -4 131q2 75 -13 125q-6 18 -18 33
q-7 10 -21.5 11t-25.5 -7z" />
    <glyph glyph-name="one" unicode="1" horiz-adv-x="281" 
d="M160 702q7 -5 8 -12q2 -11 1 -16q-2 -15 1 -43.5t3 -32.5q1 -15 8.5 -73.5t6.5 -90.5q0 -28 6 -82v-18.5t1 -18.5q0 -59 1 -88q1 -23 -1 -67q-4 -56 -1 -78q1 -5 1 -45q0 -7 -6 -10l-18 -6q-2 -4 -2 -12v-10q-2 -14 -14 -8q-19 10 -40 6q-10 -2 -19 6t-13 22
q-10 43 -6 111q2 34 1 52q-7 82 -3 144q0 7 -1 20.5t-1 20.5q1 37 -1 112q0 10 -1 31t-1 31t-3 13q-11 -3 -31 -15q-15 -11 -41 -7q-16 3 -12 19q0 1 1 3q2 4 2 6q3 17 19 16q15 -2 34 17q31 30 43 61q14 44 58 36q6 -1 9 2q1 0 3 2.5t3 2.5t5 -1z" />
    <glyph glyph-name="two" unicode="2" horiz-adv-x="375" 
d="M208 698q13 -4 15 -8q2 -5 5.5 -8t10 -6.5t8.5 -4.5q1 4 -5 10q-5 7 -5 10q1 0 1 0.5t1 0.5q10 5 14 1q3 -5 16.5 -8.5t16.5 -13.5q9 -28 10 -48q1 -9 2.5 -28t2.5 -29q3 -42 -14 -87q-9 -24 -23 -72q-12 -36 -27 -72q-39 -86 -68 -119q-7 -9 -8 -15q-4 -28 -25 -62
q-19 -32 -44 -87q0 -3 -1 -7q5 0 21 -3t25 -2q28 2 52 -4q11 -2 32 1t24 3q23 2 37 -5q4 -2 23 -2q1 0 6 1.5t6 -0.5q11 -4 12 -6q1 -1 1 -3q0 -3 -1.5 -4.5t-4 -3t-3.5 -2.5q-7 -6 -14 -8t-19.5 -1.5t-15.5 0.5q-11 0 -30.5 0.5t-36 0t-31.5 -3.5q-33 -5 -58 1
q-25 5 -48 -1q-54 -9 -70 -6q-5 0 -7 1q-6 1 -6 9q0 5 5 6q2 1 6 2.5t6 2.5q12 7 3 12q-16 14 -10 43q14 55 37 91q22 34 56 106q6 14 30 56q39 75 57 144q15 57 0 148q-2 14 -7 17.5t-20 2.5q-4 0 -11 0.5t-11 0.5q-53 -7 -89 -46q-8 -8 -17 -7q-11 2 -14 10q-3 7 5 15
l28 29q-8 -1 -16.5 -9.5t-12.5 -10.5q3 31 43 46q11 4 23 11q60 39 132 21zM256 664q2 -7 7 -22t7 -23q0 4 -0.5 12t-1 12.5t-3.5 10.5t-9 10zM64 658q-13 -4 -20 -14q11 4 20 14zM188 627q-1 -10 3 -20q12 -27 11 -53q0 -12 8 -24q9 38 0 87q-1 7 -5.5 9t-16.5 1z" />
    <glyph glyph-name="three" unicode="3" horiz-adv-x="375" 
d="M131 708q52 4 74 -5q6 5 13 3.5t10.5 -3.5t9.5 -6.5t9 -6.5q25 -14 35 -50q0 -1 0.5 -3.5t1 -4.5t1.5 -4q21 -58 8 -133q-7 -48 -23 -85q-10 -24 -26 -25q-6 -1 -18 -13q1 -3 3.5 -5.5t4.5 -4t5 -3.5t5 -3q44 -29 57 -80q11 -41 9 -93q-2 -31 -6 -59q-10 -71 -49 -111
q-6 -6 -21 -10q-4 0 -5.5 1t-2.5 3.5t-2 3.5q-3 0 -5 -2q-24 -30 -60 -15q-6 2 -17 0q-85 -9 -140 51q-2 3 -7 8q-10 10 -10.5 13.5t4.5 17.5q7 16 20 5q4 -3 8 -6.5t8.5 -8t7.5 -6.5q17 -17 57 -34q23 -10 55 6q49 26 59 92q15 74 0 135q-10 42 -41 61q-2 1 -17 11
q-9 5 -16 4q-2 -4 -23.5 -1.5t-23.5 2.5q-8 0 -8.5 2t3.5 10q-2 2 -7 3.5t-7 2.5q-8 6 -6 12q3 10 10 8q4 -2 13.5 -0.5t13 2.5t12.5 5t13 5q32 11 42 39q2 6 7.5 15.5t6.5 12.5q11 25 15 67q1 23 -5.5 48.5t-12 38.5t-20.5 43q-4 6 -8 7q-2 0 -13.5 2.5t-15.5 2.5t-12.5 -1
t-14.5 -5l-16.5 -8t-19.5 -11.5t-11 -14.5q-10 -4 -17.5 -18.5l-8.5 -16.5q-4 2 -10 11.5t-14 10.5q17 27 37 45q18 18 25 23q27 17 77 23zM202 319q7 -16 12 -35.5t7 -29.5t5 -36.5t4 -31.5q0 48 -1 58q-1 11 -10 51q-2 16 -17 24z" />
    <glyph glyph-name="four" unicode="4" horiz-adv-x="369" 
d="M214 701q1 0 16 -3q14 -2 18.5 -3t9 -6t5.5 -16t3.5 -34.5t4 -41.5t0.5 -35q-2 -47 2 -139q0 -16 -1.5 -51t-0.5 -53q1 -5 1 -14q1 -12 13 -6q20 8 32 -10q5 -8 -3 -11q-7 -3 -15.5 -12.5t-14.5 -12.5q-5 -3 -5 -14q1 -12 2.5 -33t3 -38.5t3.5 -33.5l6 -56q2 -20 -5 -33
l-3 -14q0 -12 -7 -19q-4 1 -9 6.5t-8 7.5q-6 -15 -10 -27q-1 -4 -3 -6.5t-4 -4t-7 -3.5t-8 -4q-10 -6 -15 -4.5t-12 11.5q-5 7 -15 23q-7 11 -7 27q-4 88 -4 131q0 9 2 33.5t1 37.5q-5 4 -12.5 4.5t-17.5 -1t-14 -1.5q-10 0 -46.5 0.5t-54.5 1.5q-18 2 -32 -4q-10 -4 -14 -5
q-7 -1 -12 4t1 12q7 4 12 24t4 31q-1 14 5 38l21 89q2 11 4 38.5t7 41.5q9 29 15 58q2 9 2 43q0 3 5.5 5.5t9.5 2.5q2 0 7 -5q7 -7 9 -38q4 -50 -13 -111q-3 -10 -6.5 -33t-7.5 -35q-2 -4 0 -7q3 -18 3.5 -24t-2.5 -24t-3 -23q0 -11 -1 -12q-4 -5 -3.5 -10t4.5 -5h118
q6 0 9 2v50q-5 43 -5.5 90.5t1.5 108.5t2 91v6q-1 12 0.5 16t11.5 13q6 6 7 13q1 19 20 16z" />
    <glyph glyph-name="five" unicode="5" horiz-adv-x="379" 
d="M312 288q3 -31 -5 -179q-2 -14 -4 -17q-10 -16 -14 -46q-4 -20 -28 -30l-39 -18q-8 -4 -28 -6q-6 -1 -18 -4.5t-18 -3.5q-24 -3 -38 -1t-36 13q-29 15 -60 38q-6 4 -10 9.5t-8.5 15.5t-5.5 12q-2 5 -1 7q2 11 10 7q2 -1 6 -4l4 -3q1 0 4 -3t4 -2.5t5 3.5q1 1 8 -3
q7 -5 25 -26q36 -40 75 -20q4 2 8 10q16 21 24 27q12 8 18 29q16 56 8 153q-4 31 0 52q5 27 -3 49q-15 39 -47 50q-12 4 -27 -4q-9 -5 -13.5 -9t-10.5 -11.5t-9 -10.5q-2 -2 -6 -5.5t-6 -5t-5 -5t-4.5 -6t-3 -6.5t-1.5 -8q0 -10 -6 -15q-24 11 -36 4q-6 -4 -11 9
q-6 16 -5 25t2 36t3 42l3 102q0 7 0.5 20t1 24t1.5 21q1 11 -2 30t-3 24q0 10 -10 18q-2 1 -5.5 4t-4.5 3q3 7 16 11q8 3 9 5q2 6 12 6l56.5 2.5t55.5 1.5q6 1 36 -2l51 3q21 1 59 -9q11 -4 8 -12q-1 -9 7 -15q7 -7 2 -18q-7 -10 6 -16q-61 -19 -77 -20q-42 -3 -96 -1
q-28 -8 -92 0q-3 1 -7 -1q-1 -3 -0.5 -4t3.5 -2l3 -2q6 -3 3 -7q-4 -5 -3.5 -7.5t1.5 -3t5 -0.5l5 -1q13 -2 15 -6q1 -2 1 -9q13 -125 13 -145q0 -9 4 -18q8 6 15 14t13 12t17 7q15 5 27 5q11 -2 13 5q0 6 5 3q6 -2 34 -2q48 -3 73 -38q31 -40 27 -74q0 -7 2 -47zM212 205
q0 5 2.5 30t2 30t-2.5 30q-8 -7 -5 -45t3 -45z" />
    <glyph glyph-name="six" unicode="6" horiz-adv-x="399" 
d="M216 703q37 -6 73 -23q12 -6 12 -19q0 -17 -16 -13q-10 2 -24 11q-19 12 -41 16q-7 1 -13 -3l-20.5 -18t-19.5 -19q-30 -32 -36 -74q-13 -99 -16 -117q-1 -10 -2 -31t-3 -32q47 37 62 46q30 16 58 3q10 -4 18 -2q18 5 28 1t17 -21q4 -10 13.5 -28t15.5 -33.5t8 -31.5
q12 -92 -2 -141q-3 -12 -5 -37q-4 -48 -16 -80q-3 -9 -5.5 -11.5t-15.5 -8.5q-1 0 -3 -2q-3 -5 -6.5 -9t-9.5 -8t-9 -5.5t-11 -5t-10 -4.5q-1 0 -2 -1q-3 0 -5 -6.5t-6 -4.5q-4 3 -18 -2q-4 -1 -10 -0.5t-9 0.5q-20 -6 -44 9q-4 3 -15 16q-6 4 -8 2q-5 -5 -2 -8q4 -4 1 -9
q-7 -5 -12 -2q-39 24 -51 40q-7 10 -19 31.5t-19 30.5q-9 13 -13 52q-7 58 -3 93q5 37 2 84q-4 35 5 82q5 23 13.5 69t13.5 69q11 48 49 94l3 5q4 5 4.5 4.5t5.5 2.5t7 0q3 -1 6 6q11 20 20 29t15 2q7 -7 16 1q19 16 54 11zM185 681q-11 0 -18 -8q13 0 18 8zM191 401
q-19 -7 -22 -10q-30 -22 -44 -35q-17 -15 -19 -24q-2 -14 -4 -42v-23v-27v-23v-86q5 -43 29 -70q14 -14 13 -19q-1 -4 0 -6.5t2 -3.5t4 -2t4 -2q10 -5 46 -7q-3 4 -13 4q-2 1 -6.5 1h-6.5q-4 1 -5.5 4.5t1.5 6.5q8 6 16 9q18 5 31 29q5 10 7 28q7 47 7 55q0 18 10 54
q3 11 1 25l-5.5 34.5t-4.5 32.5q-7 52 -28 91q-6 8 -13 6z" />
    <glyph glyph-name="seven" unicode="7" horiz-adv-x="383" 
d="M333 719q10 -27 -5 -62q-13 -31 -31 -95q-32 -116 -44 -152q-7 -21 -18 -43q-4 -9 -7 -19t-6 -22.5t-5 -19.5q-11 -38 -35 -133l-20 -73q-4 -13 -13 -52q-1 -8 -10 -19q-1 -2 -22 -35q-6 5 -19.5 6t-18.5 3q-13 5 -15 15q0 2 -8 17q-5 -2 -7 -10t-5 -10q-24 30 -12 69
l14 45.5l17 53.5t17 44l27 57q5 9 4 12q6 6 16 38q-15 -18 -16 -38q-8 6 -2 18q3 7 12 29.5t16 33.5q6 9 20 47q10 22 24 65t22 62q1 3 4 10.5t4 11t2.5 11.5t-0.5 12q0 1 0.5 2t2 3t1.5 3q17 31 20 45q-10 3 -15 -2q-6 -8 -26 -12q-13 -3 -88 -11q-6 0 -22 2q-50 3 -66 1
h-10l-15 1.5t-8.5 5t-4.5 6.5t-3 12.5l-3 15.5q-6 26 10 26l145 -4q45 -1 135 9l9 3q20 7 24 7t25 -6q2 2 4 8t5 8zM260 652q-13 5 -14 -7q-2 -13 -8 -49q12 18 22 56z" />
    <glyph glyph-name="eight" unicode="8" horiz-adv-x="401" 
d="M178 710q20 1 39 -11q41 -22 53 -44q2 -4 9 -6.5t9 -7.5q14 20 22 42q6 10 10 9q5 -2 5 -12q-1 -2 -3 -12t-3 -16q-8 -46 -23 -65q-5 -5 -7.5 -12t-4.5 -17.5t-3 -13.5q-30 -87 -52 -115q-7 -9 -7 -12.5t8 -11.5q5 -6 14.5 -16.5l18 -19.5t16.5 -16q63 -48 66 -133
q0 -56 -1 -63q-5 -27 -10 -35q-1 -2 -4 -21q-3 -27 -18 -48q0 -1 -2 -4t-2 -5q0 -6 -2 -11t-6.5 -9t-7.5 -6t-9.5 -5.5t-8.5 -4.5q-4 -2 -42 -16q-24 -4 -37 -2q-6 2 -28 -3q-18 -3 -56 8q-8 3 -11 13q2 2 11 2q6 -2 16 -4q8 0 9 4q2 7 -7 8q-8 2 -13 2q-55 4 -94 53
q-29 35 -22 97q8 68 63 133q10 11 27 32.5t26 31.5q-1 7 -10 11q-8 5 -21 15t-21 14q-47 27 -63 86q-18 79 26 156q15 28 45 42q19 10 53 1q3 -2 9 -3q0 4 0.5 8t1 5.5t0.5 3t1.5 1.5t2.5 0.5t4.5 0.5h6.5q9 0 27 2zM166 674q-12 -2 -17 -2q-36 -4 -36 -41q0 -5 -2 -17
q-2 -10 -4 -58q-1 -10 6 -24q4 -7 16 -23.5t16 -27.5q2 -4 9 -11l27 -21q23 27 43 68q4 7 10 20.5l11 24t11 19.5q9 17 -2 34q-23 33 -47 49q-1 0 -6 4t-6 3t-8 -4q-2 -1 -6 3q-5 8 -15 4zM83 609q-3 -8 -6 -22t-5 -20q-2 -9 0.5 -10.5t11.5 -2.5q0 48 -1 55zM71 549
q0 -20 5 -24q2 15 -5 24zM199 337l-11 14q2 -11 11 -14zM173 336q-7 9 -16 -1q-5 -6 -16.5 -22.5t-18.5 -24.5q-7 -7 -13 -23q-7 -22 -17 -33q-4 -6 -6 -13q-15 -68 -3 -112q8 -26 25 -42q18 -15 46 -20q6 -1 13.5 6t9.5 8q2 0 5 3q12 5 31 24q11 18 17 23q7 7 9 18
q10 80 -2 122q-1 7 -11 42q-4 -2 -5 -6t-3 -5q-5 5 -13.5 16.5t-12.5 15.5q-6 10 -19 24zM57 131q-3 -16 5 -24q0 11 -5 24z" />
    <glyph glyph-name="nine" unicode="9" horiz-adv-x="416" 
d="M152 706q20 -2 34 -8q16 -4 35 -14q5 -3 9 -2q3 1 6.5 1.5t6 0.5t5.5 -1t5.5 -2t5 -3t4 -3t4.5 -3.5t4.5 -4l4.5 -4.5l4 -4q5 -5 10 -12t7.5 -12t6.5 -14t6 -13q25 -48 30 -88l4 -21t4 -23.5t2 -20.5t0.5 -23.5t-3.5 -21.5q-1 -8 -1 -23q0 -59 -21 -111q-19 -58 -30 -81
q-31 -65 -42 -80q-9 -11 -6 -17q2 -4 -6 -10q-10 -7 -26 -27q-30 -35 -56 -49q-2 -1 -5.5 -4t-4.5 -4q-22 -19 -57 -21q-8 -1 -31 13q-3 1 -7.5 4.5t-8 5t-7.5 1.5q-5 1 -9 7t-6 7q3 5 4 5q15 0 61 16q16 5 29 24l17.5 22t16.5 24.5l14 23t14 26l11.5 24l12.5 26.5l12 25
q18 38 12 88q-13 -4 -16 -17q-2 -16 -15 -23q-6 -4 -19 -19q-9 -11 -17 -11q-9 -1 -24 -5t-18 -5q-19 -4 -37 12q-13 11 -36 29q-39 26 -47 78q-14 73 -13 98q0 12 3.5 36t4.5 37q4 57 46 118q16 20 25 29q4 4 7 2q12 -5 24 7q15 9 21 7h5q4 7 8 9t12.5 0.5t10.5 -1.5z
M185 659q-17 0 -19 -2q-4 -4 -14 -13t-16.5 -17t-10.5 -17t-18.5 -33.5t-17.5 -40.5q-10 -60 -10 -71q-1 -20 4.5 -55.5t5.5 -40.5q4 -23 18 -56q1 -1 1 -2.5v-2.5q-2 -1 -5 0t-4 0q2 -12 5.5 -16t11.5 -3q32 3 59 27t37 48q6 15 10 32t7 37.5t6 32.5q4 17 2 51q-2 24 -6 36
q-3 8 -7 24t-8.5 28.5t-12.5 22.5q-5 5 -9 19q0 1 -1 5t-2.5 5.5t-5.5 1.5zM204 653l6 -16q0 -1 2 -7t6 -7q1 18 -1.5 23t-12.5 7z" />
    <glyph glyph-name="colon" unicode=":" horiz-adv-x="179" 
d="M84 416q2 -2 8.5 -7.5t9.5 -9t6.5 -9t4.5 -10.5q5 -25 -12 -45l-12.5 -12.5t-12.5 -15.5q-4 -5 -16 -2.5t-15 9.5q-9 19 -27 16q-4 -1 -5.5 1.5t-1.5 7.5t-1 17t-1 18q-1 12 7.5 21t19.5 11q8 0 19 5.5t18 4.5q1 0 5.5 0.5t5.5 -0.5zM55 99q5 5 16.5 0t12.5 -12
q4 -21 23 -21q8 0 6 -10q-2 -6 -3 -18.5t-2 -16.5q-1 -12 -11 -19.5t-22 -6.5q-8 1 -20 -2t-18 -1h-5t-6 2l-6.5 9.5t-7 10.5t-5 9.5t-2.5 11.5q0 25 20 42q3 3 14 10t16 12z" />
    <glyph glyph-name="semicolon" unicode=";" horiz-adv-x="179" 
d="M80 416q2 -2 8.5 -7.5t9.5 -9t6.5 -9t4.5 -10.5q5 -25 -12 -45l-12.5 -12.5t-12.5 -15.5q-4 -5 -16 -2.5t-15 9.5q-9 19 -27 16q-4 -1 -5.5 1.5t-1.5 7.5t-1 17t-1 18q-1 12 7.5 21t19.5 11q8 0 19 5.5t18 4.5q1 0 5.5 0.5t5.5 -0.5zM79 88q4 0 4 -2q27 -6 31 -42
q1 -27 -15 -56q-2 -3 -11 -20t-16 -28t-14 -17q-6 -6 -8 0q-2 5 -5 -1q-2 -5 -9 -2q-3 2 -5.5 8t-1.5 9q3 5 0 9q-1 4 -0.5 7.5l1.5 11t1 12.5q0 2 1.5 4l3.5 4.5t3 4.5q4 4 3 6q-1 1 -2.5 -1t-2.5 -2q-5 4 -11 14.5t-11 14.5q-7 7 -5 18q2 13 7 18l6.5 9.5l6.5 9.5
q12 11 25 4h5q6 13 19 7z" />
    <glyph glyph-name="less" unicode="&#x3c;" horiz-adv-x="465" 
d="M371 430q-5 -5 -12 -19q-4 -4 -2 -13.5t1 -13.5v-2q0 -2 -1 -3q-4 -2 -10.5 -9.5t-11.5 -9.5q-3 -1 -5.5 -3t-5 -5t-4.5 -4q-4 -4 -17 -12t-19 -15q-6 -8 -21 -17t-20 -14q-7 -6 -19 -6q-6 0 -12 -3t-8.5 -5t-10 -9t-8.5 -8q-18 -17 -51 -27q-16 -7 -20 -13
q27 -13 54 -24q75 -30 84 -32q64 -16 113 -41q3 -2 15 -6.5t17 -9.5q7 -8 -1 -16q0 -1 -13 -10q-7 -5 -20 -1q0 -16 -10 -16q-3 0 -9 0.5t-9 0.5q-19 -1 -59 18q-51 27 -90 35q-9 2 -25 9.5t-24 9.5q-6 1 -22 7t-25 7q-3 1 -14 6q-4 3 -31 11q-22 6 -35 22t4 29q10 8 7 17
q-2 7 10 21q15 17 35 24q8 3 20.5 11t18.5 11q18 8 51 24.5l41 20.5q15 7 42 21.5t36 18.5q28 14 53 33q15 12 28 6q3 -1 7.5 1.5t7.5 2.5z" />
    <glyph glyph-name="equal" unicode="=" 
d="M226 363q27 4 75 -1q3 0 8.5 -1t10 -1.5t8.5 -0.5t14 -9.5t11 -14.5q1 -2 -8 -16.5t-12 -15.5q-21 -3 -43 -3q-94 -2 -107 -3q-3 0 -42.5 -2t-48.5 -5q-20 -5 -34 -2q-4 1 -12.5 0.5t-12.5 1.5q-16 8 -23 13q-10 10 2 14q5 1 7 2.5t1.5 3t-1.5 3t-3.5 4l-3.5 3.5
q7 0 15 7t12 8q22 8 53 6q5 0 12.5 1t24.5 3t39 3q8 1 21 1h21q6 0 16 1zM325 241q3 -1 11.5 -1t12.5 -2q16 -8 23 -14q10 -10 -2 -13q-13 -3 -4 -13l3 -3q-7 0 -15 -7t-12 -8q-21 -6 -54 -4q-4 0 -12 -1t-25 -2t-39 -2q-8 -1 -22.5 0t-19.5 1q-26 2 -46 -1q-15 -2 -58 3
q-3 0 -12.5 2t-14.5 2q-4 0 -13.5 10t-10.5 15q-1 2 8.5 16t12.5 15q14 2 43 2h60q60 -1 60 0q5 0 26 0.5t39.5 1t26.5 2.5q17 4 34 1z" />
    <glyph glyph-name="greater" unicode="&#x3e;" horiz-adv-x="466" 
d="M53 427q3 0 9 -0.5t9 -0.5q19 1 59 -18q51 -27 90 -35q9 -2 25 -9.5t24 -9.5q6 -1 22 -7t25 -7q3 -1 14 -6q4 -3 31 -11q22 -6 35 -22t-4 -29q-10 -8 -7 -17q2 -7 -10 -21q-15 -17 -35 -24q-8 -3 -20.5 -11t-18.5 -11q-18 -8 -51 -24.5l-41 -20.5q-15 -7 -42 -21.5
t-36 -18.5q-28 -14 -53 -33q-15 -12 -28 -6q-3 1 -7.5 -1.5t-7.5 -2.5q5 5 12 19q4 4 2 13.5t-1 13.5v2q0 2 1 3q4 2 10.5 9.5t11.5 9.5q3 1 5.5 3t5 5t4.5 4q4 4 17 12t19 15q6 8 21 17t20 14q8 6 19 6q6 0 12 3t8.5 5t10 9t8.5 8q18 17 51 27q16 7 20 13q-27 13 -54 24
q-75 30 -84 32q-64 16 -113 41q-3 2 -15 6.5t-17 9.5q-7 8 1 16q0 1 13 10q7 5 20 1q0 16 10 16z" />
    <glyph glyph-name="question" unicode="?" horiz-adv-x="357" 
d="M183 702q2 0 37 -13q44 -16 61 -63q13 -35 10 -75q-4 -50 -5 -75q-3 -28 -16 -59q-17 -39 -44 -77q-4 -5 -15 -13q-42 -24 -42 -50q0 -15 -4 -27q-4 -13 0 -35q0 -4 -2.5 -14t-1.5 -15q-6 -2 -22.5 -11.5t-25.5 -11.5q-6 -1 -14 11t-12 24q-7 24 -9 47q-2 27 -5 35
q-5 15 3 35q8 22 13 32q11 25 40 50q32 27 39 82q5 31 -6 78q-12 48 -14 53q-1 6 -8 14q-1 2 -5 6.5t-5 5.5t0 1q2 1 3 1q3 2 5 0l7.5 -7.5t7 -7.5l6 -7t5 -9t2.5 -11q1 -7 3.5 -10.5t3.5 -9.5q2 -9 5 -11q0 13 -2.5 24.5t-3.5 19.5t-5.5 15t-8.5 10t-12 8.5t-11 8.5h-4
q-4 0 -13.5 1t-15 0.5t-13 -3t-14.5 -8.5q-28 -25 -19 -76q10 -59 3 -62q-7 16 -24 18q-1 0 1 -3t-6 -2q-2 0 -5 1q-10 2 -16.5 36t-1.5 58q10 43 19 52q21 28 64 35q1 0 8.5 1.5t11.5 1.5q8 -2 13 1q7 5 15.5 6.5t14.5 0.5t15.5 -3.5t14.5 -3.5zM122 98q4 5 15.5 0
t12.5 -12q4 -21 24 -21q7 0 5 -10q-2 -11 -4 -35q-2 -12 -12 -19.5t-21 -6.5q-8 1 -20.5 -2t-18.5 -1h-5t-5 2q-2 3 -7 9.5l-7.5 10t-5 9.5t-2.5 12q0 26 21 42q4 4 14.5 10.5t15.5 11.5z" />
    <glyph glyph-name="at" unicode="@" horiz-adv-x="730" 
d="M373 697q33 2 58 -5q11 -2 16 -5q17 -14 52 -21q12 -3 55 -29q5 -3 15.5 -11t16.5 -12q5 -2 9 -6t6.5 -7t6.5 -9.5t6 -8.5q30 -42 37 -73q1 -7 5 -22.5t5.5 -23t3 -23t-1.5 -22.5q-6 -34 -27 -65q-1 9 5 25.5t3 25.5q0 1 -2 1q-2 1 -3 2q-14 -64 -32 -95q6 -1 13 7.5
t9 8.5q8 -10 -11 -37q-26 -33 -53 -54.5t-37.5 -26.5t-34.5 -15q-9 -4 -14 -5.5t-7 -2t-10.5 1l-14.5 2.5q-29 3 -38 12q-1 1 -25 28q-4 -1 -6 -7q-7 -25 -37 -32q-34 -8 -60 2q-7 3 -14 5q-34 12 -45 45q-23 66 -13 98q2 7 6 52.5t13 70.5q21 55 70 59q7 4 14.5 4.5t12 0
t15 -4.5t13.5 -5q29 -9 50 -33q2 1 10 21q4 13 14 11q9 -2 14.5 -8t6 -9t4.5 0q6 8 7.5 9t6.5 -2q7 -7 10.5 -15.5t4 -16t0.5 -16v-15.5q2 -34 -6 -74q-1 -8 -1.5 -33t-1.5 -33q-1 -4 -0.5 -17t1.5 -16q6 -10 15 -10q8 0 32 13.5t30 28.5q21 47 23 69q4 0 5 4t0.5 12t1.5 13
q0 7 1 14q7 49 -14 112l-4 12q-2 0 -10 17q-2 5 -11 13t-11 13q-17 31 -72 45q-2 1 -25.5 10t-35.5 8q-8 0 -26 2q-8 1 -16.5 -0.5t-20 -5t-16.5 -4.5q-4 -1 -15 1t-16 0q-45 -17 -96 -59q-22 -18 -52 -67q-3 -4 -3 -13q0 -26 -12 -31q-9 -5 -13 -23q-8 -42 -10 -63
q-6 -56 16 -140l3 -9q9 -49 47 -81q4 -3 18 -19q11 -14 34 -25q7 -4 26.5 -18t30.5 -18q13 -4 27 -6l82 -10q24 -3 54 -1q8 1 22 9l71 40q61 35 77 60q5 8 18.5 21.5t19.5 22.5q6 -20 9 -23q10 -13 0 -23q-5 -6 0 -6h5q2 -1 -3.5 -6t-12 -11.5t-7.5 -12.5q0 -2 -4 -4
q-15 -11 -37.5 -36.5t-29.5 -32.5q-8 -7 -33.5 -16t-30.5 -12q-36 -19 -75 -27q-55 -13 -98 -1q-53 13 -72 11q-3 -1 -9 1q-76 28 -128 65q-39 28 -64.5 70t-34.5 83q-1 3 -2 13t-2 13q-17 58 -12 98q9 69 25 117q29 82 97 133q0 2 -2.5 3t-3.5 2q40 36 99 57q26 11 51 18
q23 7 100 14zM249 462l-6 -50q0 -36 -3 -41q6 9 11 27q3 7 4 30.5t2 27.5l5 23zM348 474q-4 -2 -6 -6q-9 -16 -15 -53q-13 -80 -4 -127q4 -19 16 -23q4 -1 8.5 -4.5t7.5 -4.5l12 9q18 10 15 31q-2 24 3 60q2 14 6 90q1 3 -3 8t-5 7q-4 8 -15 11.5t-20 1.5zM565 257
q-21 -9 -24 -20q21 11 24 20zM119 137q-8 -25 34 -43q-7 14 -23 27q-2 2 -5 8t-6 8z" />
    <glyph glyph-name="A" unicode="A" 
d="M145 713q11 -5 32 -1q3 1 6.5 -6t6.5 -15t4 -13q0 14 1.5 21.5t5.5 4.5t11 -21q20 -52 21 -55q2 -8 8.5 -30t8.5 -35q1 -6 2 -9.5t2 -5t3.5 -4.5t4.5 -8q6 -11 9.5 -24.5t6 -30.5t4.5 -26q14 -53 45 -131q9 -22 25 -102q1 -4 1 -14t1 -15q16 -60 37 -110q17 -40 15 -71
q-2 -25 -19 -27q0 -10 -9 -11l-7 5q-7 5 -10 11q-1 2 -5 3t-5 4q-2 5 -6.5 8t-8.5 2t-5 -5q-2 -8 -7.5 -9.5t-14.5 -0.5t-13 0q-12 -4 -15 8q-23 69 -30 97q-3 11 -13 38t-13 42q-3 13 -18 13q-11 -1 -48.5 -1t-60.5 -3q-3 0 -10.5 0.5t-13 -0.5t-8.5 -4t-4 -7t-2 -10t-2 -9
t-6 -23.5t-6 -31.5l-8 -69q-2 -18 -4 -25q-3 -16 -22 -11q-1 0 -5 6q-7 12 -10 1q-1 -6 -5 4q-5 13 -4 22q8 75 24 131l3 15q2 6 0.5 9.5t-2.5 4.5t-9 3q-16 4 -19 11q1 3 4 5t5 2t6 0.5t5 0.5q19 5 20 7t3 17t11 54t11 57q7 62 26 138q11 47 17 88q10 60 14 89q2 15 -1 22
q-5 16 7 21q3 1 10.5 5.5t10.5 5t11 -1.5zM133 555q-8 -6 -6 -11q1 -28 -9 -62q-3 -11 -5.5 -37.5t-7.5 -39.5q-11 -36 -16 -77q-4 -34 -16 -102q16 1 50.5 2.5t50.5 2.5q6 0 18 4q11 2 13 5.5t-2 13.5q-5 13 -11 38.5l-8 33.5q-3 9 -6.5 30.5t-7.5 32.5q-12 33 -17 78
q-5 47 -20 88zM272 431q-3 -2 -1.5 -10t4 -14t6 -13.5t3.5 -8.5q2 5 -3 24.5t-9 21.5z" />
    <glyph glyph-name="B" unicode="B" horiz-adv-x="486" 
d="M13 689l163 21q60 6 112 -14l29 -10q56 -20 47 -80q-9 -44 -21 -57q-36 -41 -63 -61q-5 -4 -15.5 -10.5l-15.5 -9.5l-5 -2q-4 -2 -6 -4t-2 -6q0 -9 -8 -7q-10 1 -22 -9t-15 -11t-5.5 -8t-6.5 -10q60 -4 91 -7q57 -7 72 -14q48 -19 87 -55q16 -19 10 -43q-4 -18 -22 -55
q-8 -16 -18.5 -30t-26 -31.5t-21.5 -25.5q-26 -35 -63 -65q-4 -3 -8.5 -6l-10 -6.5l-8.5 -5.5q-75 -60 -91 -70q-10 -6 -27.5 -18t-21.5 -15q-5 17 -5 18q-2 9 -7 10q-15 0 -23 21l-2 2q-1 2 -2 3q-4 -2 -14.5 -15t-22.5 -14l-4 28l-15 100v6.5t1 6.5q7 24 7 106
q0 85 -1 128l-3 114q-2 20 3 41q3 8 3 33q0 13 0.5 38.5t1.5 38.5q-1 10 -3 12t-11 4q-21 0 -28 -3q-10 -4 -16 9q0 1 -1.5 7.5l-2.5 10.5q-2 12 10 15q4 0 13 2t14 3zM161 649q-12 -3 -11 -14q-3 -131 -4 -146q-3 -24 -1 -29q39 16 47 32q1 2 7 5q14 11 28 26t21 25
t21.5 32.5l18.5 28.5q14 22 -12 25q-24 0 -55 14q-20 11 -60 1zM200 368q-26 5 -53 -7q2 -2 9 -3t8 -6q-2 -3 -9 -4t-9 -2q-2 -11 1 -68q-1 -13 1 -36t2 -33q0 -12 5 -67q0 -4 1 -29t4 -38q3 2 23 18t32 21q11 3 14 14q1 3 2.5 6l3 6t2.5 4l25.5 42.5t29.5 54.5l6 18
t7.5 21.5t7.5 17.5q5 11 4 16.5t-12 15.5q-7 9 -23 12q-17 5 -72 5q-9 1 -18 8q8 0 26 -1.5t25.5 -2t26.5 1.5q-7 12 -22 8q-22 -1 -48 7z" />
    <glyph glyph-name="C" unicode="C" horiz-adv-x="478" 
d="M228 714q64 12 129 -25q29 -18 31 -55q7 -154 -13 -149q-3 1 -6 5q-6 7 -7.5 5.5t-1.5 -8.5v-6t-1 -5t-2 -4q-3 -3 -4.5 -9t-3.5 -8q-9 9 -15 21.5t-8 21t-4.5 25.5t-3.5 23q-7 35 -10 78q-2 28 -29.5 42t-54.5 1q14 -2 15 -2q3 -3 0 -5q-21 -14 -30 -44
q-2 -7 -7.5 -20.5t-9 -24.5t-4.5 -21q-2 -16 -11 -46t-11 -45q-8 -36 -10 -55q-3 -19 -2 -71.5t0 -61.5q-2 -15 -2 -18q3 -13 1 -48q-1 -6 6 -17.5t7 -16.5q5 -53 23 -83q17 -30 48 -26l41 3q6 0 18 8q40 24 58 40q23 15 27 19q5 5 17 15.5t19 17.5q12 12 25 14q2 -4 -3 -15
t-1 -14v-3l-1 -2q-4 -5 -13 -11t-11 -10q-3 -4 -5.5 -9.5t-4.5 -9t-5 -7.5q-3 -3 -6 -5.5l-7.5 -6t-6.5 -5.5t-5.5 -6.5t-4.5 -6.5q-32 -35 -48 -43q-23 -11 -52 -32q-8 -6 -56 -23q-9 -3 -21.5 -1.5t-19.5 -2.5q-1 0 -10 3q-10 4 -14 0q-1 -3 -5 -3l-24.5 8t-25.5 9
t-24 22.5t-19 30.5q-25 55 -28 90q-2 52 -7 66q-2 5 -2 16t-3 17q-7 11 -2 27q3 11 3 33q5 123 8 138q2 11 2.5 33.5t3.5 34.5q17 89 73 176q2 2 4 3q1 0 2 -1t2 -1q10 -10 16 2q12 19 35 36q8 5 10 4q18 -2 21 -2.5t20.5 3t20.5 3.5zM56 497q-1 0 -6 -31.5t-5 -33.5
q-2 -3 -2 -38q-4 -7 7 -15q4 -3 4 1q1 2 0 6q-1 5 2 35t4.5 50.5t-4.5 25.5z" />
    <glyph glyph-name="D" unicode="D" horiz-adv-x="505" 
d="M93 720q12 -3 34.5 -5.5t31.5 -4.5q12 -2 116 -21q4 -1 16 -2t18 -3q68 -19 92 -77q8 -20 12 -40q2 -9 9 -9q5 0 9 -11q20 -60 12 -122q-6 -42 -4 -64q0 -3 -2 -9q-22 -92 -59 -155q-6 -8 -6 -11q-2 -19 -24 -42.5t-24 -26.5q-3 -5 -9 -3q-4 1 -3.5 5.5t-1.5 7.5
q-19 -29 -23 -33q-34 -40 -46 -52q-29 -26 -52 -39q-12 -7 -14.5 -12.5t-1.5 -19.5q-40 0 -52 -4q-24 -11 -35 9q-3 -1 -4.5 -2.5t-3 -4t-2.5 -3.5q-2 -1 -5.5 -4t-5.5 -4.5t-6.5 -2.5t-8.5 1q-20 7 -19 26q1 15 0 47.5t1 47.5q5 54 -1 103q-7 64 -7 140q1 17 0 47t-1 39
q0 101 4 130q2 11 0 32t-1 31q2 18 6 22t4 29v21h-22q-8 1 -9 3t4 11q9 19 41 17q20 -2 29 1q2 1 2 5q-3 11 -1 13t13 -1zM137 668q-20 -2 -11 -16q6 -10 7.5 -31t5.5 -29q-1 -65 4 -158q0 -8 1 -55t4 -72q1 -5 3 -44.5t8 -59.5q1 -1 1 -3q-2 -17 1.5 -48t3.5 -38
q0 -15 4 -23q5 5 43 63q-4 1 -10 -2t-10 -2q1 3 6 8l11 8.5t12.5 10.5t9.5 11q55 92 89 189q6 20 6 31q0 2 1.5 30.5t1.5 42.5q2 24 -1 36q-17 62 -55 109q-3 3 -10 9q-41 29 -71 27q-1 0 -5 2q-4 0 -22 2.5t-28 1.5zM306 624q-2 -3 2 -7q1 -1 2.5 -3.5t2.5 -3.5q4 14 -7 14
zM421 531q-2 -14 3.5 -39t5.5 -33q4 21 -9 72z" />
    <glyph glyph-name="E" unicode="E" horiz-adv-x="400" 
d="M113 706q26 -10 33 -20q2 -2 7 0q21 4 63.5 7t63.5 6q4 0 15.5 2t17.5 2q15 1 29.5 -9t22.5 -26q-42 -11 -69 -11q-46 2 -68 1q-10 0 -31 -4t-32 -4q-8 0 -11 -10q-6 -23 3 -86v-31q-4 -86 0 -130q17 3 49 0.5t48 0.5q7 1 13 -1.5t14 -9.5t11 -9q-12 -11 -22 -12
q-15 -2 -29 -7q-23 -8 -72 -10q-10 -1 -11.5 -2.5t-0.5 -11.5q1 -36 0 -73q-3 -79 -3 -80q1 -10 -3 -28q-9 -38 -5 -74q3 -13 15 -12q2 0 11 1t11 0q5 -3 5 -7q-5 -4 -20.5 -5t-22.5 -9q7 -3 20 1q15 4 50.5 11.5t54.5 12.5q10 3 28.5 3.5t26.5 2.5q7 1 14 -4q6 -6 18 -16
q-3 -4 -12 -5.5t-12 -3.5q-1 -3 0 -5t3 -4.5t3 -4.5q9 -13 -6 -13q-7 0 -14 -1t-17 -4.5t-14 -4.5q-28 -5 -33 -5q-61 0 -91 -6l-4 -1q-3 -1 -3.5 -1t-3 -1t-3 -2.5t-2 -3.5t-1.5 -5q-2 -14 -14 -3q-6 4 -23 2q-61 -9 -117 -8q-3 0 -9 3l-8 4q-6 2 -6 10q0 7 8 9
q48 15 50 16v70q3 37 4 109t4 109q5 71 9 217q1 20 -0.5 56.5t-1.5 50.5q0 13 -12 13q-7 0 -12.5 4t-11.5 5q-10 2 -14 10q11 3 48 11q2 12 2 16q0 9 2.5 13t11.5 3q3 0 3 1q5 5 10 7.5t12 2t9 -1t11.5 -4t10.5 -3.5zM49 63q-5 -4 -6.5 -12t-1.5 -18.5t-1 -13.5q9 1 11 2
t3.5 3.5t-0.5 7.5v9t-1 13t-4 9z" />
    <glyph glyph-name="F" unicode="F" horiz-adv-x="379" 
d="M76 712q2 -2 15 -10t14 -14q15 -1 50 3q11 1 41.5 2t46.5 4q18 3 52 3.5t48 2.5q6 2 10 -2q5 -5 -6 -10q-14 -9 -22 -31q-5 -10 -24 -14q-16 -3 -68 -3q-11 0 -22 -0.5t-23.5 -1.5t-21.5 -1q-37 -2 -47 -7q2 -11 2.5 -28.5t1.5 -23.5q2 -20 3 -70t4 -75q1 -15 19 -12
q15 2 38.5 2h29.5q5 0 12 0.5t10.5 0.5h8t6.5 -0.5t4.5 -2t4.5 -3.5q-9 -9 -33 -18q-18 -7 -18.5 -8.5t2.5 -2.5q19 -8 -2 -14q-17 -5 -36 -5q-4 0 -9 -1t-11.5 -2.5l-10.5 -2.5l-11 -3q0 -78 9 -133q2 -11 1 -30.5t0 -30.5q0 -4 2 -35t6 -46q4 -13 1 -28q-2 -10 -2 -28
q1 -9 -1.5 -26.5t-2.5 -21.5q0 -6 -3 -8t-8 -2.5t-7 -1.5q-8 -14 -16 5q3 4 1 32.5t-8 28.5q-3 0 -2.5 -8t0 -19t-2.5 -16q-8 -8 -25 -7t-29 6q-11 5 -14 11t-3 26v92q0 15 -0.5 32t-1.5 37.5t-1 31.5q-1 19 1.5 64.5t1.5 64.5q0 8 -4.5 11t-10.5 4t-7 2q-3 2 -4.5 11
t-5.5 12q-9 6 7 14q1 1 10.5 3t11.5 4q0 83 -1 129q-1 24 -4.5 69.5t-3.5 68.5q0 14 10 18q13 6 16 -5q1 -3 11 -7q-1 7 0.5 11.5t4 6t8 3.5t8.5 3zM254 397q-2 1 -13 1q-13 -5 -11 -11q0 -3 15 0q5 2 9 10z" />
    <glyph glyph-name="G" unicode="G" 
d="M251 722q-4 -8 -17.5 -12t-18.5 -8q33 -2 47 3q10 3 29 1q23 -3 39 -15q25 -16 27 -46q2 -23 -3 -57l-3 -31q-2 -11 -4 -12q-6 -4 -8.5 -9.5t-4 -13t-3.5 -11.5h-18q-26 -10 -36 19q-3 7 -3 22q-2 24 -4 70q-1 7 -3.5 19.5t-3.5 16.5q-1 12 -13 15q-23 8 -43.5 0
t-30.5 -29q-25 -53 -28 -63q-18 -68 -14 -104q2 -9 1.5 -39t-0.5 -38q0 -7 1 -28.5t0 -33.5q-2 -33 6 -95.5t8 -91.5q0 -1 0.5 -4t0.5 -5q-2 -5 -2.5 -10t-0.5 -10v-9t2 -9.5t2.5 -8.5t3.5 -9.5t4 -8t4.5 -9t4.5 -8.5q6 -12 11 -13.5t17 4.5q7 4 30.5 19.5t39.5 20.5
q9 3 9 13q-1 32 1.5 92.5t2.5 88.5q0 3 -1 5q-49 14 -63 12q-5 0 -7 2t-5 8l-2 6q2 6 10 6q15 0 42.5 6t36.5 7h4q10 8 12.5 6t7.5 -12q1 -1 3 -1.5t3 -0.5q3 4 4 14t5 15q4 0 12.5 -4t13.5 -4q6 0 6 -11q1 -6 2.5 -18t2.5 -21.5t1 -17.5q0 -7 0.5 -28.5t1.5 -33.5
q2 -24 2 -67.5t1 -59.5q1 -11 1.5 -33t1.5 -33q2 -36 -27 -53q-1 -1 -3 -4t-5 -4q-9 9 -24.5 32t-26.5 33q-5 4 -7.5 15t-3.5 13q-6 0 -13 -9q-28 -34 -49 -39q-5 -6 -9.5 -9t-13 -5t-11.5 -3q-17 -7 -48 -3q-12 1 -41 5q-45 7 -55 38q-15 52 -17 56q-8 18 -8 56
q0 22 -4 57.5t-5 50.5q0 1 6 76q0 4 1 15t0 17q-2 13 1 38t2 37q-1 16 1 32t8 38t8 31q4 11 5 14q7 53 61 107l33 27q4 2 5 2q13 0 25.5 5t26.5 14t22 12q7 2 21 2t20 1zM43 479q-8 -4 -8 -14q-4 -47 -5 -74q0 -6 7 -6q0 45 9 89q0 1 -1 2q-2 2 -2 3z" />
    <glyph glyph-name="H" unicode="H" horiz-adv-x="456" 
d="M26 701q31 2 44 -11q2 -3 6 -3q7 1 12.5 -0.5t13.5 -7t10 -6.5q12 -6 14 -23q1 -31 0 -61v-6q1 -13 1.5 -51t3.5 -59q13 -69 14 -136q0 -7 4 -12q22 3 68 11q2 0 2 1q5 7 12.5 9.5t18 2t15.5 0.5h8q4 0 6.5 0.5t4.5 1t3 1.5t2 1.5t2 2.5t1 3t1 5t2 6q4 8 1.5 32.5
t-1.5 32.5q4 18 3 103.5t0 104.5q0 4 -0.5 8t-1.5 9.5t-1 8.5q-2 12 5 15q4 1 9.5 6.5t11.5 5.5q9 -1 11 -14q4 -15 6 -48q0 -14 1 -20q5 -58 5 -69q3 -69 3 -70q0 -4 7 -5q1 35 0 67.5t-2 68.5t-1 38q0 16 9 -7.5t9 -36.5q5 -90 7 -109q0 -1 -1 -18.5t0 -22.5v-33
t0.5 -38.5t2.5 -33.5q4 -41 -1 -68q-1 -3 1.5 -9.5t2.5 -8.5q7 -51 4 -82v-11q4 -13 6 -65q0 -6 -1 -18.5t0 -19.5q0 -12 -12 -22q-9 -9 -12 -21q-1 -2 3.5 -5.5t-0.5 -5.5q-18 -16 -25 -18q-8 -2 -20 -9q-20 11 -17 37q2 7 1 9q-4 19 -4 85q0 9 -2 26t-1 25q0 26 -3 53
q-2 21 6 28l1 5q-5 4 -6.5 9t-1 12t0.5 10q-2 8 -8 8q-18 0 -27 -1q-93 -3 -101 -4q-3 0 -9 -2q-2 -5 0 -26l1 -16q2 -16 -1 -17q-1 -3 1 -9q3 -12 0 -33q-4 -23 -4 -56q0 -5 1 -18.5t0 -21.5q-3 -23 -1 -29q3 -4 2 -18t0 -18q2 -9 -9 -9q-4 0 -21.5 -4t-26.5 -3t-12 8
q-2 6 -7 -2q-1 -2 -2 -5q-2 -6 -8.5 -8t-18.5 -1.5t-15 0.5q-6 9 -6 20q0 16 -2 44.5t-2 37.5q-1 11 0 32t1 27v103q0 7 -2 9t-10 4q-3 1 -10.5 2.5t-12.5 4t-8 7.5q7 4 26 9q16 5 15 22q-6 62 -4 131v196q0 16 -2 20q-5 10 1 27q4 8 10 9z" />
    <glyph glyph-name="I" unicode="I" horiz-adv-x="251" 
d="M74 693q4 -1 13.5 -2l14.5 -1.5t12 -4t12 -8.5q24 -27 27 -66q0 -6 2 -61.5t4 -83.5q1 -14 3 -48.5t4 -53.5q5 -35 6 -37q8 -32 0 -85q-1 -9 -7 -119q-2 -42 -8 -53q-3 -7 1 -20q2 -14 -3 -17q-4 -3 1 -8q5 -6 -1 -17q-6 -10 -8.5 -10.5t-11.5 5.5q-15 9 -21 0
q-10 -15 -17.5 -16t-18 5t-19.5 5q-9 -2 -13 10q-7 30 -7 35q0 14 0.5 40.5t0.5 39.5q0 17 -3.5 46t-4.5 38q-3 37 -3.5 105t-2.5 97q-1 15 -0.5 53t0.5 52q-1 17 2 134q1 11 3 13t14 2q3 1 7 1q2 3 0.5 10t-0.5 10q2 3 7 4t7 3q5 5 8 3zM144 355l-5 42q-5 -15 -5 -42v-23
q0 -2 3.5 -11t3.5 -11l2 -22q0 1 1 3.5t3 8.5q1 4 1 28q0 3 -0.5 8t-2 11t-1.5 8z" />
    <glyph glyph-name="J" unicode="J" horiz-adv-x="279" 
d="M145 704q21 -7 25.5 -12t6.5 -27q2 -23 13 -55q4 -14 5.5 -29.5t2.5 -35t2 -29.5q5 -25 6 -28q0 -27 4 -68.5t4 -63.5q0 -24 -5 -40q-6 -2 -1.5 -38t4.5 -39q0 -54 -9 -135q-3 -35 -24 -61q-37 -47 -85 -75q-9 -6 -26 -3q7 9 30.5 23.5t32.5 25.5q-16 4 -28 -7
q-29 -27 -52 -40q-5 -5 -8 -6.5t-11 -3.5t-16 -5q-13 -6 -20 0q-2 2 1 4q8 4 -3 6h-7q-33 -8 -34 9q0 1 -5 11t-1.5 16.5t19.5 10.5q35 9 65 44q38 46 35 116q-2 26 -2 74.5v59.5q0 50 -2 152q0 23 3 46q3 25 1 76q-1 12 -1.5 25t-1 28.5t-0.5 24.5v2q1 17 7 20.5t23 -4.5
q1 1 2 3.5t2 4t2 3.5t2.5 3t3 2.5t3.5 2t4 0.5q3 0 5 4q7 14 28 8zM166 59q-3 -1 -5 -3t-3.5 -5.5t-2.5 -5.5q10 6 11 14z" />
    <glyph glyph-name="K" unicode="K" horiz-adv-x="436" 
d="M367 701q4 4 10.5 0.5t7.5 -10.5q0 -10 -5 -16q-19 -30 -40 -57q-10 -13 -38 -58q-8 -14 -10 -16q-2 -3 -5.5 -7.5t-6 -8.5t-3.5 -8t-4.5 -11.5t-4.5 -11.5q-2 -12 -25 -33q-20 -20 -8 -49q6 -16 19 -46.5t17 -41.5q9 -27 9 -28q0 -5 2.5 -9.5t6 -9.5t4.5 -8
q22 -61 63 -136q30 -59 36 -78q3 -6 3 -12q2 -18 10 -34q7 -12 5 -18q-25 7 -33 -13q0 -2 -2.5 -1t-3.5 1q-5 -2 -13.5 -2.5t-12.5 -1.5q-17 -5 -40 15q-19 17 -28 21q-2 -1 -1.5 -6t-2.5 -7q-14 5 -21 24q-17 50 -33 107l-34 106q-27 93 -31 112q0 2 -1 3.5t-2 4t-2 4.5
q-8 -5 -8 -21q6 -62 8 -98q1 -18 3 -50t3 -58t0 -49q0 -22 -8 -31q-2 -2 -2.5 -7t-1.5 -7q0 -1 -1 -4.5t-1.5 -5.5t-2 -4t-4 -3t-6.5 -1t-5.5 -3.5t-2 -8.5t-2.5 -8q-8 2 -10.5 2.5t-10.5 -3t-10 -4.5q-16 -5 -29 2t-16 22q-4 30 -6 61q-3 48 -11 142q-5 62 -6 124
q0 23 -1.5 70.5t-1.5 71.5q-2 84 3 118q1 5 0 13t-1 11q-3 21 -1 24q17 19 12 34q-1 1 3 3h3q10 -2 23 5q17 9 44 2q17 -3 20 -21q7 -42 7 -71q0 -23 2 -34t2 -67q1 -29 5 -101q8 6 25 30q11 14 52 75q48 72 99 134q31 37 33 40t9.5 7.5t10.5 8.5z" />
    <glyph glyph-name="L" unicode="L" horiz-adv-x="382" 
d="M98 726q2 -2 5 -6.5t6 -7.5t8 -4q3 -1 3 -10q0 -26 -2 -39q-2 -24 0 -120q0 -46 1 -50q2 -16 7 -19q8 15 4.5 57t-1.5 58q4 19 3 57t2 60q12 -10 10 -35q0 -13 0.5 -39t0.5 -39q-1 -26 0 -74t1 -63q2 -112 7 -134q10 -44 17 -102q1 -13 -7 -91q-2 -14 -2 -20
q-2 -22 -8 -32q-9 -15 -1 -32q4 -1 6 3q4 7 5.5 7.5t7.5 -5.5q3 -3 9 -3q32 0 41 2q3 1 58 6q23 0 30 -5q3 -2 17 -2q12 0 15 -2q11 -6 3 -12q-7 -7 -3 -14q5 -6 -2 -8q-3 -1 -9.5 -4.5t-10.5 -5t-10 -3t-12 -0.5q-12 1 -36 -2t-37 -2q-19 1 -82 -4q-9 -1 -40 -2.5t-46 -4.5
q-26 -4 -40 26q3 3 16.5 4.5t16.5 11.5q-1 3 -5 7l-4 4q-14 20 -15 32q-1 27 -1.5 87.5t-2.5 91.5q-2 28 -2.5 79t-1.5 71l-3 79.5t-2 78.5v63.5t-2 63.5q-1 13 12 13q9 -1 22.5 5.5t19.5 6.5q3 0 7 6q5 14 27 16zM67 35q-2 0 -4 -7q-1 -3 2 -3q4 -1 6 5q-3 5 -4 5z" />
    <glyph glyph-name="M" unicode="M" horiz-adv-x="584" 
d="M143 716q6 1 8 -4q13 -27 24 -42q10 -14 16 -40l31.5 -128l24.5 -101q10 -46 18 -73q6 18 13 63q2 12 6 43.5t7 48.5q12 68 20 101q15 72 23 87q13 25 32 21l24 -5q8 -1 15 -7q9 -9 12.5 -8t8.5 14l3 3q1 -1 3.5 -2.5t4 -2t4 -0.5t4.5 2q3 3 14 -1q1 -1 3.5 -3t4.5 -2
q16 -5 25 -17t10.5 -22t2.5 -29q0 -2 -0.5 -6t-0.5 -5q3 -31 -1 -88t-4 -67q0 -73 5 -124q2 -17 4 -52t4 -52q3 -26 2.5 -67.5t0.5 -67.5q0 -5 2.5 -25t1.5 -31q-3 -31 -33 -24q-2 -1 -3 -3t-1 -5v-4q-6 -11 -19 -8q-16 2 -54 27q-24 16 -24 49q-2 65 0 86q2 18 -2 52
q-3 34 -5.5 96.5t-4.5 91.5q-2 20 -4.5 81.5t-7.5 95.5l-3 8q-8 -11 -14 -35l-10.5 -33t-11.5 -42q-22 -112 -22 -153q0 -6 -2 -17.5t-2 -16.5l-3.5 -17t-2.5 -17t3 -17q0 -12 0.5 -14.5t-7 -11.5t-8.5 -11q-2 -5 -10 0q-16 5 -19 5q-4 -13 8 -13q4 0 7.5 -4t6 -9.5
t4.5 -7.5q-3 -4 -14 -6q-35 -4 -43 7q-5 6 -21 15q-23 13 -35 45q-43 110 -65 186l-28 103q-6 22 -11 34q2 -10 -1 -29.5t-1 -29.5q3 -7 2 -36.5t-1 -36.5q1 -16 1.5 -58t2.5 -64q7 -86 10 -104q6 -40 4 -60q-4 -42 -2 -100q2 -9 -2 -15q-11 -15 -30 -5q-2 -1 -4 -4.5
t-5 -4.5q0 1 -2 2.5t-2 3.5l-3 56l2 116q1 49 -5 105q-9 96 -6 217q0 25 -0.5 81.5t0.5 82.5q1 7 -1 22q-1 10 11 15q17 6 33 -1q4 2 7 7.5t4 6.5q11 11 15.5 12t19.5 -4q23 -8 28 -23q2 -4 7 -3q1 3 0.5 14t2.5 13zM435 514q-4 -15 -4 -22t3 -21t3 -22q7 15 6 35.5t-8 29.5
z" />
    <glyph glyph-name="N" unicode="N" horiz-adv-x="453" 
d="M153 696q6 0 6 -3q2 -7 10 -18.5t10 -17.5q6 -18 14 -58t16 -61q11 -30 30 -91.5t30 -91.5q5 -13 11 -37.5t9 -32.5l34 -117q3 -5 5 -5q8 82 -5 149q-3 -1 -2.5 -10.5t0.5 -10.5v-11t-1 -11q-6 2 -6 11q0 38 -3 77q0 7 1.5 23t1.5 24q0 1 -3 58q-3 33 -2 60q3 84 1 143
q0 6 10 21q2 3 10 3q7 -1 17.5 -10t11.5 -16q0 -11 4 -42t3 -49q-1 -17 -1 -46.5v-47.5q0 -6 1.5 -36t-0.5 -37q-1 -19 -0.5 -66.5t0.5 -66.5q0 -15 4 -43.5t5 -39.5q1 -17 6 -52t6 -52q0 -25 -3 -27q-6 -4 -7 -8.5t0.5 -10.5t1.5 -8q0 -3 0.5 -7t0.5 -7q2 -22 -18 -29
q-7 -4 -11 4q-4 6 -21 8q-3 1 -24 1t-31 6q-7 -4 -18 1t-14 5q-16 1 -21 20q-1 5 -9 32t-12 42q-4 20 -15.5 57.5t-16.5 56.5q-6 30 -45 156q-24 76 -33 123q-2 14 -8 40.5t-8 34.5q-5 -1 -5 -8q-4 -166 -4 -248q0 -32 3.5 -91.5t3.5 -86.5q1 -18 4.5 -51.5t4.5 -47.5
q1 -9 1 -58q-6 2 -17 10t-19 10q-9 2 -7 14q0 11 -7 25q-5 7 -5 22q0 2 -6 142q-3 37 -4 41v11q3 22 0.5 86t-2.5 86q1 65 1 194q0 13 -2 41q0 12 11 15q29 6 41 1q6 -2 16 3t21.5 7t26.5 2.5t22 1.5zM322 44q-1 -13 1.5 -15.5t15.5 -0.5q-1 1 -2 4.5t-2 5t-3 3.5t-4.5 2.5
t-5.5 0.5z" />
    <glyph glyph-name="O" unicode="O" horiz-adv-x="461" 
d="M183 724q15 4 20 -5q3 -4 -2.5 -8.5t-6.5 -7.5q43 7 70 -3q61 -26 78 -73q4 -9 17 -29q32 -53 35 -113q2 -87 2 -105q-3 -95 -4 -113q-1 -26 -15 -74q-3 -12 -14.5 -44t-15.5 -51q-8 -44 -35 -75q-3 -3 -6.5 -5.5t-8 -5t-6.5 -4.5q-23 -21 -48 -21q-11 2 -19 -6
q-9 -9 -22 -1q-12 8 -9 18q1 3 -7 15q-6 -9 -21 -9t-22 -1q-25 -5 -46 18q-9 9 -14 18l-5 9q-5 8 -7 10t-8 5.5t-13 3.5q11 11 3 17q-32 26 -38 91q-4 45 -10 145q-1 22 0 43l5 103q7 83 34 148q16 40 50 69l36 21q22 15 32 12q2 -1 11 4q1 0 4.5 1.5t5.5 2.5zM200 665
q-23 0 -35 -12q-23 -23 -30 -46q-14 -38 -11 -70q5 -28 4 -35q-1 -17 -1.5 -50t-1.5 -49q-1 -19 1 -114q2 -41 8 -113q4 -43 15 -57q1 -2 11 -17.5t16 -22.5q-11 1 -22 13.5t-16 14.5q2 -4 10 -22q8 -12 9 -14q8 -11 12 -10q12 1 22 -15q7 -11 14 -10q12 0 24.5 11.5
t13.5 23.5q1 15 6.5 44t6.5 33q14 82 15 106q4 80 8 120q1 8 5.5 53t3.5 54t-3 54q-10 70 -24 101q-8 21 -30 26q-20 4 -31 3z" />
    <glyph glyph-name="P" unicode="P" horiz-adv-x="418" 
d="M31 707q3 -2 14 -3t16 -7q2 -4 6 -4q6 3 24 1t24 -2q72 2 89 0q70 -6 97 -26q24 -17 41 -39q6 -8 11.5 -23.5t7.5 -19.5q1 -1 1 -4.5v-5.5q2 -11 3.5 -35.5t1.5 -29.5q4 -45 -5 -70l-7 -13q-4 -6 -10.5 -18.5t-9.5 -17.5t-8.5 -11.5t-11.5 -9.5q-4 -2 -49 -33
q-8 -6 -10 -6q-14 -6 -28 -14t-32 -19.5t-27 -16.5l-13 -7q-21 -11 -21 -24l-1 -20q3 -17 1 -55.5t0 -54.5q1 -8 -1.5 -26t-2.5 -23q0 -42 6 -70q2 -9 0 -13q-2 -12 -12 -8q-5 2 -19.5 1.5t-25.5 4.5t-17 19q-1 4 -1.5 13t-1 16.5t-2.5 8.5t-4 -7q-1 -5 -2 -18
q-3 -21 -5 -21q-27 0 -28 25q-2 25 0 38q1 12 1 27.5t-0.5 34t-0.5 27.5v53q0 13 -13 10q-7 -2 -9.5 1t-0.5 10q7 14 12 14q4 1 6 2t3 3t1 3.5v5v4.5q-1 17 -3.5 67.5t-3.5 78.5q-1 72 0 143q0 12 1 25.5t2.5 29.5t2.5 25q1 13 -1 37v7.5t-1 6.5t-9.5 5t-9.5 5q1 3 9.5 6.5
t9.5 8.5q1 4 6.5 6.5t9.5 1.5zM117 666q-1 0 -3 -3q6 -39 6 -40v-41q-2 -85 3 -127q1 -9 2 -39t4 -46q4 -30 4 -45q0 -12 4 -18q4 3 8 7q6 9 23.5 20t24.5 18q1 1 11.5 9.5t13.5 14.5q25 51 32 90q1 10 10 11q0 -20 -13 -55v-6q9 0 20.5 37.5t5.5 58.5q0 2 -3 2q-1 -1 -3 -5
t-4 -6q-5 5 -3 18q2 10 4 27q2 14 -2 29q-2 15 -6 20q-22 41 -30 50q-11 12 -24 16q-7 5 -42.5 4t-42.5 -1z" />
    <glyph glyph-name="Q" unicode="Q" horiz-adv-x="411" 
d="M196 709q33 3 69 -31q12 -10 12 -23q0 -3 7 -15q11 -25 12 -33q2 -18 16 -27q2 4 0 10t-1 9q7 0 9 -10q14 -60 11 -79q-4 -17 4 -45q10 -37 7 -79q-9 -145 -9 -146q-6 -70 -36 -125q-2 -3 -5 -10.5t-6.5 -13.5t-7.5 -10q-1 -1 -1 -12q2 -13 25 -84q4 -11 16.5 -16t23.5 0
l7 3q8 2 11 -5q5 -5 1 -10l-7 -9q-9 -7 -13 -17q-8 -18 -27 -18q-33 0 -49 22q-12 18 -33 63l-5 9q-5 -1 -13 -6q-15 -10 -32.5 -10.5t-28.5 3t-31 12.5q-8 2 -9 9q-1 19 -25 17q-28 -2 -48 28q-44 65 -44 155l-1 88q-1 88 1 88q5 101 22 176q12 49 39 91q15 23 50 39
q6 3 17 -1q2 0 8 -2t10 -2q23 -2 31 9q4 6 23 8zM180 661q-3 -1 -8 -6t-7 -6q14 -14 -3 -29q-12 -13 -23 -52q-2 -8 -3 -16t-1.5 -18t-1.5 -15q-2 -18 -4 -51t-3 -46q-2 -35 -1 -43q2 -5 0.5 -34.5t-1.5 -34.5l3 -93q0 -2 0.5 -5.5t0.5 -6.5q4 9 32 23q18 8 36.5 4.5
t28.5 -17.5q2 -3 6 -8t5.5 -7.5l4 -6.5t3.5 -8.5t2 -10.5q4 -22 11 -31q8 22 17 80q8 70 2 135q-3 35 -11 104t-11 103q-4 37 -32 81q-17 25 -42 15zM290 530q-2 -4 3 -22q0 1 1 6t0.5 9t-4.5 7zM163 194q-23 0 -34 -3q-1 -12 9 -83q5 -46 7 -53q3 -16 19 -20q13 -5 24 8
q6 8 11 13q11 11 6 25q-7 21 -9 44q-1 15 -17 59q-4 10 -16 10z" />
    <glyph glyph-name="R" unicode="R" horiz-adv-x="452" 
d="M106 697l84 -6q62 -4 84 -19q16 -13 46 -24q20 -9 27 -30q24 -60 21 -94q-1 -6 2 -16t3 -15q1 -56 -49 -103q-8 -8 -26.5 -19t-21.5 -13q-10 -8 -17 -10q0 4 5.5 9.5t5.5 10.5q-10 -2 -30 -20q-5 -5 5 -13q7 -6 40 -39q25 -24 43 -71q28 -73 52 -124q6 -14 7 -22
q6 -24 17 -45q4 -6 2 -23q-2 -14 -13 -15q-1 0 -4 -5q-6 -10 -14 -2q-17 15 -31 5q-4 -4 -11 0q-2 1 -11.5 7l-13.5 8.5t-10 8.5t-9 12q-4 9 -14 25q-40 82 -87 201q-7 17 -14 29q-23 -12 -19 -32v-8q-4 -16 -4 -34.5t2 -41.5t2 -36q2 -82 -1 -106q0 -2 -0.5 -7t-1.5 -7
t-4 -4t-9 -1q-2 1 -3.5 -1t-1.5 -5q-2 -5 -4 -15q-7 3 -12.5 7t-14 12t-11.5 10q-19 -19 -40 -6q-24 13 -25 41q-1 8 1 23.5t2 23.5q-1 23 -2 68.5t-2 67.5q0 5 -1.5 15t-1.5 11q-13 67 -8 155q2 30 3 85t2 73q3 66 2 75q0 12 -2 15q-5 0 -15.5 -3.5t-16.5 -2.5q-1 2 1.5 6
t-0.5 6q-10 10 5 15q59 20 112 13zM143 652q8 -117 3 -295q8 4 9 5q74 74 94 102q19 28 29 86q0 7 -3 13q-6 13 -5 25q2 10 -9 15q-3 1 -8 4.5t-6 4.5q-41 32 -60 37q-11 3 -44 3z" />
    <glyph glyph-name="S" unicode="S" horiz-adv-x="415" 
d="M191 711q37 4 60 -1q36 -10 45 -42l18 -57q2 -13 2.5 -15.5t-2 -15.5t-2.5 -15q-1 -4 -7 -7.5t-8 -6.5q-2 -6 -8 -15.5t-8 -13.5q-3 1 -5 6t-4 6q-4 -1 -5 -7t-4 -7q-2 -2 -3 1q-27 35 -20 71q4 17 -3 41q-4 15 -20 27.5t-29 7.5q-4 -1 -9 -3t-11.5 -5t-9.5 -4
q-12 -5 -22 -26q-2 -4 -7 -18t-8 -19q-8 -8 -7.5 -25t9.5 -24q14 -11 25.5 -25l27 -34.5l20.5 -27.5q18 -24 62 -62q30 -28 49 -57q8 -13 19 -24q11 -10 16.5 -23t9.5 -33.5t6 -28.5q2 -9 5 -65q0 -20 -12 -27q-4 -2 -6 -13q-7 -36 -30 -72q-11 -17 -25 -18q-5 -1 -11 -7
q-11 -14 -39 -28q-9 -5 -12 -3q-12 5 -32 -5q-45 -25 -123 22q-3 2 -33.5 31t-31.5 31q-7 10 -4 9q2 -1 9 -5q10 -8 11.5 -7t-4.5 10q-9 16 -8 28q0 5 -2.5 9.5t-6.5 9.5t-6 8q-1 1 -4 5t-4 7q13 9 20 2q3 -3 5 -4.5t3.5 -1.5h3.5t4 -1q3 -2 7 -5.5t8 -6.5q6 -5 12 -14.5
t8 -11.5q8 -11 36 -24q7 -3 25.5 -12t27.5 -12t23 -1t25 13q23 24 23 66q-1 31 -12 74q-1 7 -7 15q-72 101 -117 140q-51 41 -64 86q-2 7 -8.5 22t-7.5 24q-2 18 1 26q2 6 9.5 37.5t13.5 47.5q20 52 76 90q14 10 34 7q12 -1 18 -0.5t17.5 3t17.5 3.5zM65 433q21 -34 79 -81
q1 0 -1 6t-6.5 13t-7.5 11q-5 7 -13.5 14.5t-9.5 10.5q-5 3 -12.5 9.5t-14.5 10.5t-14 6zM-20 124q7 0 11 -3.5t7.5 -9.5t5.5 -8q-3 -3 -6.5 -1t-5.5 2t-4.5 4t-3 5t-2.5 5.5t-2 5.5z" />
    <glyph glyph-name="T" unicode="T" horiz-adv-x="410" 
d="M354 711h11q8 0 13 -10q6 -9 -4 -14q-4 -3 -10 -11t-10 -11q-4 -1 -1.5 -4.5t2.5 -4.5q-13 -6 -26 -5q-34 2 -52 2q-17 1 -39 -2q-16 -1 -20 -15q-1 0 -10.5 3.5t-15.5 2.5q2 -4 3.5 -13t4.5 -14.5t11 -9.5q4 -2 4 -14v-21.5t2 -21.5l3 -22q2 -20 2 -90q0 -19 -0.5 -67
t0.5 -67q1 -18 5 -52q3 -22 3 -87q0 -3 -1 -15.5t0 -19.5q1 -14 -1.5 -40.5t-2.5 -38.5q-1 -10 -7.5 -26.5t-7.5 -24.5q0 -3 -1 -4q-4 -2 -13.5 -3.5t-14.5 -4.5q-3 -2 -11 2l-21 12q-9 4 -17 -1q-10 -6 -22 2.5t-11 21.5l-3 76q-2 38 5 67q6 38 -1 60q-4 16 -3 33
q1 10 -0.5 27t-1.5 22q0 18 -0.5 54t-0.5 54q-2 78 5 116q1 5 1 47q3 34 4 37t-1 20q-2 7 -11 9q-44 2 -58 0q-12 -2 -33.5 -2h-26.5q-9 -2 -17 6q3 4 9 6q9 3 7 12q-1 8 10 11q8 2 56 5q3 0 104 15q11 1 39.5 5.5t49 6t40.5 0.5q34 -3 82 1zM123 642q0 2 -3 -1
q-3 -4 -2.5 -16t5.5 -13l6 -1q-1 2 -1.5 15t-4.5 16z" />
    <glyph glyph-name="U" unicode="U" horiz-adv-x="423" 
d="M118 717q11 2 12 -8q10 -39 9 -69q-2 -19 5 -74q2 -13 2 -28t-1 -33.5t-1 -28.5q0 -15 -2 -44t-2 -43q-2 -53 -8 -89q-2 -14 0 -60l3 -57q2 -25 6 -35q3 -8 7.5 -22l8.5 -25.5t8 -21.5q3 -7 11.5 -18.5l11.5 -15.5q8 -15 29 -15q25 0 35 7q40 28 40 79q0 46 6 91
q2 12 1 17q-1 31 -0.5 42t3.5 41t4 41q2 26 -3 65q-6 47 -3 109q0 12 -0.5 25.5t-1.5 29.5t-1 25q0 3 -0.5 9.5t-0.5 10t1.5 8.5t5.5 9q1 1 1 20q0 13 9 14q17 1 21 -11t3 -20v-30q8 12 5.5 35t0.5 36q8 2 8 -5q2 -9 1 -13q-2 -14 -0.5 -44.5t0.5 -44.5q0 -9 -2 -29
q-2 -15 0 -45q9 -73 8 -100q-6 -108 -5 -118q1 -13 -2 -114q0 -7 -8 -47q-4 -16 0 -32q9 -36 -21 -73q-9 -10 -23 -12q-11 -2 -36 -10q-12 -5 -22 -5q-8 3 -10 -2q-4 -9 -23 -7q-15 3 -29 -1q-30 -5 -63 14q-10 5 -28.5 17.5t-27.5 17.5q-31 18 -42 70q-4 29 -7 40
q-1 5 0.5 13.5t1.5 12.5q-2 27 0 137q3 74 -2 159q-3 50 7 152q1 6 3.5 26t3.5 31q1 16 6.5 22.5t20.5 10.5q6 2 9 0q6 -6 24 -4q12 0 13 3q1 2 2 5q2 7 18 9z" />
    <glyph glyph-name="V" unicode="V" horiz-adv-x="432" 
d="M392 750q0 -3 -7 -24l-7.5 -22t-8 -27.5t-2.5 -22.5t-2 -22.5t-6.5 -26t-5.5 -21.5q-3 -15 -7 -45.5t-8 -45.5l-10.5 -47.5l-13.5 -59.5q-5 -19 -12 -79q-7 -45 -10 -52q-2 -8 -3 -24t-3 -24q-2 -6 -3 -17.5t-2 -15.5q-4 -36 -10 -53q-9 -24 -12 -50q-4 -27 -9 -42
q0 -2 -1.5 -6.5t-2.5 -9t-1 -6.5q-1 -9 -4.5 -13t-5.5 -5t-10 -4q-2 4 0 14t-1 14q-7 -3 -8 -8q-8 -30 -36 -35q-3 0 -14 5q-7 4 -14 0q-9 11 -14 25t-9.5 33t-7.5 28q-20 51 -29 87q-5 17 -14 68.5t-19 78.5q-6 18 -6 36q-2 22 -14.5 62t-15.5 56l-17 94q-2 12 -4 18
q-3 11 -2 13q1 9 1 12t-4 11.5t-5 11.5q-5 16 -7 44q0 8 5 10q6 -7 10 -25.5t9 -26.5q3 36 -4 64q-4 17 12 18q23 3 33 -12l3 -6q4 0 9 7.5t8 13.5t9.5 0t15.5 -29q5 -10 11 -32l11.5 -37.5t11.5 -43.5q12 -50 21 -104q4 -21 22 -54q2 -6 2 -9q4 -23 15.5 -66t15.5 -64
l22 -125q8 31 18 88q4 32 8 46q2 6 10 72q2 25 4 31q5 16 9 46.5t7 42.5q4 15 6.5 46t6.5 46l29 113q11 38 15 43q5 12 11 14q1 -2 0 -10q0 -8 1 -8q2 0 5 4q1 1 4 8.5t5.5 11.5l6.5 10t9 9.5t10 4.5zM362 746q1 -5 1 -8.5t-1 -5.5t-3 -3t-4 -1t-4 1q-1 6 2 10.5t6 6t3 0.5z
M236 105q-1 -1 -7.5 -26.5t-6.5 -26.5q-1 -2 0.5 -9.5t3.5 -9.5q0 1 2 4t3.5 5.5t1.5 3.5q11 63 3 59z" />
    <glyph glyph-name="W" unicode="W" horiz-adv-x="546" 
d="M489 710q8 0 13 -13q7 -14 1 -43q-17 -97 -20 -121q-16 -120 -27 -180q-3 -15 -5 -43t-4 -40q-2 -21 -6 -40q-3 -16 -4 -33.5t-1 -38.5t-1 -33q-1 -10 -1 -60q0 -16 -4 -21q-3 -5 -1 -15q2 -13 -2 -20q-17 -3 -47 3q-25 5 -34 29q-39 117 -48 163l-15 66t-13 57
q-3 11 -7.5 32l-6.5 31q-13 -77 -11 -108q0 -10 -3.5 -30.5t-2.5 -31.5q1 -27 -8 -100l-12 -93q-2 -6 -5 -12.5t-8 -14.5t-7 -13q-11 6 -33 14q-1 0 -4 1t-4 1t-3.5 -1t-3.5 -5q-3 -5 -8 0l-9 10q-3 -1 -4.5 -6.5t-6.5 -5.5q-2 3 -7.5 9l-8.5 9.5t-5.5 10t-2.5 12.5
q-1 9 -11 11q-20 4 -23 28q-12 100 -17 149q-12 96 -16 165q-1 12 -10 59q-4 16 -19 118q-1 7 -8 29q-6 17 -10 69q2 3 7 3t7 1q3 2 1 7q-3 15 2.5 20.5t20.5 2.5q11 -1 22 -9l3 -3l3 -3t3.5 -2t4.5 1q1 1 12.5 3t14.5 10l2 -1q1 0 1 -1q29 -52 33 -97q2 -29 8 -82.5
t8 -68.5q1 -11 2 -32.5t3 -32.5l15 -104q9 -57 13 -79q1 -4 5 -19q13 28 15 36t2 28q0 19 5 33q10 22 5 30q-1 3 1 7q6 29 13.5 82.5l10.5 73.5q2 9 7 45.5t10 55.5q2 12 2 36q0 8 9 13t14 -1q4 -5 8.5 -6t11.5 0t8 1q13 -1 14 -4q1 -2 2 -9q2 -12 7 -33.5t6 -28.5
q3 -13 9 -47.5t10 -53.5q8 -30 19.5 -87t13.5 -65q5 -29 15 -62q4 1 4 7q1 9 5.5 32.5t4.5 36.5q0 14 10 87q0 1 3 50q2 28 12 53q4 10 16 67q16 88 24 115q3 14 3 26t13 14z" />
    <glyph glyph-name="X" unicode="X" horiz-adv-x="359" 
d="M293 710q11 -38 -10 -88q-9 -20 -25 -63t-23 -59q-35 -86 -33 -92q5 -11 9 -34t7 -29q4 -10 6.5 -23.5t5.5 -21.5q30 -80 37 -113q2 -8 10 -37t10 -46q1 -8 5 -23t5 -17q0 -6 3 -9q5 -8 3 -12.5t-8 -14t-7 -14.5q-2 -12 -4 -13h-5q-1 0 -1 -2v-5q0 -6 -1 -7.5t-7 2.5
q-10 0 -15 5q-3 3 -8 3.5t-8.5 0t-10.5 -3t-9 -2.5q-19 -5 -27 15q-3 9 -20.5 52t-21.5 68q-1 7 -20 70q-1 4 -8 30q-4 -4 -6.5 -8t-4.5 -10t-3 -8q-3 -6 -28 -81q-2 -5 -14 -30l-29 -59q-11 -20 -33 -20q-13 0 -8 11q13 27 29.5 78.5t21.5 65.5l39 107l11 22q5 9 3 15
q-7 19 -16 55.5t-15 52.5q-10 30 -26 68q-22 52 -32 106q-1 5 -3 16.5t-3.5 18t-5.5 15t-9 15.5v6q3 2 7.5 0.5t6.5 -0.5q1 0 3 5q0 10 14 17q14 6 33 -3.5t33 -33.5q2 -2 1 2q-1 2 -3 10q-6 24 -4 25q3 2 20 -16.5t34 -43.5t19 -38q2 -14 25 -88q0 -7 3 -9q5 2 10 18
q7 16 17.5 50t24.5 57q3 5 14 21t14 25t10 21.5t9 18.5t12 9z" />
    <glyph glyph-name="Y" unicode="Y" horiz-adv-x="369" 
d="M308 705q22 -12 14 -35l-12 -37.5t-16 -43.5q-2 -6 -2 -8q0 -18 -5.5 -37t-14.5 -41.5t-13 -35.5q-21 -69 -29 -87q-10 -22 -10 -53q0 -12 2 -37t2 -38q0 -121 -1 -182v-13q4 -41 -9 -62q-10 6 -13 5.5t-12 -7.5q-7 -7 -10.5 -7.5t-11.5 4.5q-12 9 -13 10q-11 9 -16 7
q-2 0 -3 1q-1 0 -5 5.5t-9 3.5q-3 -2 -4.5 -8t-3.5 -8t-4 -3q-3 3 -8 17q-8 47 -2 167q4 49 -3 97q-6 48 -21 67q-7 8 -17 48q-15 54 -42 177q-18 74 -29 95q-4 8 5 30q2 4 6 2q55 -1 86 -48l26 -38q3 16 -5 30q-3 6 4 17q15 -11 16 -24t10 -23q8 -12 12 -32q4 -21 14.5 -60
l14.5 -54q4 -13 21 -56q66 203 111 295zM89 678q7 0 7 -6q4 -8 0 -9q-2 -1 -4 1q-7 2 -7 9q-2 5 4 5z" />
    <glyph glyph-name="Z" unicode="Z" horiz-adv-x="448" 
d="M335 700q26 -5 46 -1q1 0 5 -2q0 -4 -5.5 -10t-3.5 -11q0 -4 -11 -7q-4 -1 -5 -2.5t-1.5 -5.5t-2.5 -9q0 -3 -0.5 -12t0.5 -12q3 1 12 13q3 5 11 15q3 3 10 1q3 -2 3 -8q-2 -8 -5 -10q-17 -20 -23 -48q-2 -8 -10 -18.5t-10 -15.5q-3 -8 -7 -25.5t-6 -23.5
q-16 -50 -25 -65q-11 -16 -27 -77q-6 -21 -13 -33q-10 -19 -23 -56l-32 -85q-2 -4 -10 -30l-16 -50.5t-17 -59.5q32 3 92 1q13 0 42.5 2t44.5 1l19 -3q13 -2 13 -11q1 -5 -12 -10q-9 -2 -31 -15t-35 -14q-12 -1 -31 1q-8 2 -22.5 1.5t-22.5 0.5q-8 2 -15 -1q-9 -2 -42 -2
q-29 0 -38 -3q-7 -1 -10.5 -0.5t-11 2t-11.5 1.5q-30 0 -49 -6q-4 -1 -12.5 -2.5t-12.5 -2.5q-3 -1 -9 -1q-15 5 -19 16q-2 4 0 7t5.5 6t4.5 6q-14 36 7 69q26 43 42 96q3 11 11 24q2 -8 2 -9l3 3q26 96 35 120q1 4 30 79l24.5 62t20.5 54q10 27 39 90q10 23 20 42
q-38 4 -49 4q-3 0 -10 -4t-10 -3q-3 0 -10.5 1.5t-10 1.5t-9.5 -2q-3 -1 -9 1q-18 6 -83 8q-17 0 -25 10q-9 11 2 19q10 6 22 5q29 -4 79.5 -3t79.5 -1q7 -1 35 4q29 6 58 -1q15 -4 21 2q3 4 14 2zM259 343q-9 -8 -15 -38l6 11.5t6.5 13.5t2.5 13zM228 278q-12 -15 -30 -73
q-12 -35 -31 -78q-2 -6 -13 -34t-15 -44h4h5h4t3.5 1.5t1.5 4.5q2 11 12.5 37.5t11.5 42.5q0 7 4 12q2 3 10 21q3 8 10.5 30l11.5 34q3 7 8.5 22t7.5 22q-4 2 -5 2z" />
    <glyph glyph-name="bracketleft" unicode="[" horiz-adv-x="313" 
d="M177 734q1 -1 12 -1q2 0 7 -0.5t8 -1.5q5 -2 6 -7t-3 -8q-9 -7 -16 -16q-3 -5 -17 -5q-8 0 -9 -3q-5 -8 -16 -6q-8 1 -25.5 -2t-26.5 -1q-4 1 -2 -6q1 -6 3.5 -17t4 -20t1.5 -17q1 -22 -1 -63q-1 -12 1.5 -36t2.5 -35v-47v-34q0 -40 2 -60q1 -14 1 -42q0 -18 4 -50
q2 -19 -1 -43q-1 -5 0.5 -13t1.5 -12q-2 -18 0 -54q0 -2 1 -42t5 -58q3 -13 -8 -45q-3 -12 -0.5 -14t11.5 -1q6 0 18 0.5t18 0.5q27 2 42 -5q5 -2 14.5 1t11.5 3q11 1 19 -8q2 -3 0 -7t-1 -6q4 -9 -3 -16q-1 -1 -7.5 -6t-8.5 -9q-1 -1 -7 -1q-5 3 -9 2t-3 -9q1 -2 -5 -2
q-11 -2 -35 2t-57 -3q-31 -7 -63 2q-13 4 -9 17q1 5 -9 15q-2 2 -4 7q-7 36 -9 73q-1 14 -2 43.5t-1 33.5q-2 41 0 61q3 21 1 63l-3 80q-4 86 -5 129q-2 22 0 34q1 4 -2 33q-1 23 1.5 71.5t2.5 55.5q0 6 1.5 22t0.5 25q-1 6 7 22q1 -5 4.5 -4t4.5 -3q2 15 -4 18
q-3 1 -3.5 3.5t0.5 5.5t1 4q0 3 1.5 3.5t3 0t2.5 0.5q11 2 23 2t26 -1t22 -1l33 6q4 1 14.5 4.5t15 3t15.5 -5.5z" />
    <glyph glyph-name="backslash" unicode="\" horiz-adv-x="357" 
d="M43 732q5 -15 19 -45.5t20 -46.5q4 -13 23.5 -63.5t24.5 -72.5q2 -7 7.5 -35t11.5 -43l40 -113q8 -23 23.5 -82t27.5 -90q0 -1 1 -4t1 -5q20 -76 26 -92q11 -27 22 -69q4 -22 -4 -29q-6 -5 -13.5 -16.5t-13.5 -17.5q-23 42 -26 57q-4 20 -16 47q-2 3 -7 16q-9 25 -21 73
l-16 63l-32 114l-28 98q-2 7 -8.5 22t-8.5 23q-3 10 -35 101q-30 81 -35 106q-5 27 -17 60l-3 12q-3 10 0 12t7 -0.5t4 1.5q-2 13 6 18.5t20 0.5z" />
    <glyph glyph-name="bracketright" unicode="]" horiz-adv-x="309" 
d="M70 734q11 5 15.5 5.5t15 -3t14.5 -4.5l10.5 -2.5t12 -2.5t10.5 -1q63 3 71 1q1 -1 2.5 -0.5t3 0t1.5 -3.5q0 -1 1 -4t0.5 -5.5t-3.5 -3.5q-5 -3 -3 -18q1 4 5 3t4 4q8 -16 7 -22q-1 -9 0.5 -25t1.5 -22q0 -11 3 -57.5t2 -69.5q-3 -29 -2 -33q3 -16 1 -34q-1 -22 -2 -65
t-2 -64l-3 -80q0 -49 2 -63q2 -20 0 -61q0 -64 -2 -87q-2 -37 -9 -73q0 -4 -3 -7q-10 -10 -9 -15q4 -13 -9 -17q-32 -9 -63 -3q-33 7 -57 3t-35 -2q-6 0 -5 2q1 8 -3 8.5t-9 -2.5q-6 0 -7 1q-2 4 -8.5 9t-7.5 6q-6 6 -4 16q1 2 -1 6t0 7q8 9 19 8q3 0 12 -2.5t14 -0.5
q15 7 42 5q6 0 18 -0.5t18 -0.5q9 -1 11.5 1t-0.5 14q-11 32 -8 65q2 17 3 48.5t2 41.5q2 36 0 54q0 2 1.5 12t-0.5 13q-3 24 -1 43q4 32 4 50l-1 21q0 21 1 21q2 20 2 60q0 4 0.5 11t0.5 12.5t-1 10.5q-1 4 -1 47q0 11 2.5 35t1.5 36q-4 33 -2 63q0 8 1.5 17t4 20t3.5 17
q0 6 -2 6q-9 -2 -26.5 1t-25.5 2q-11 -2 -16 6q-1 3 -9 3q-14 0 -17 5q-11 11 -17 16q-4 3 -3 8t6 7q3 1 8 1.5t7 0.5q11 0 12 1z" />
    <glyph glyph-name="asciicircum" unicode="^" horiz-adv-x="352" 
d="M133 714q3 0 18 -2q4 0 6 -7q3 -9 11 -4q8 3 9 2t4.5 -3.5t5 -5t1.5 -5.5q-2 -4 -1 -6q8 -9 11.5 -29t5.5 -25q2 -4 4.5 -14.5t5.5 -16.5q2 -4 4.5 -12.5t3.5 -10.5q24 -80 28 -91q5 -12 13 -37.5t13 -37.5q4 -15 6 -30q5 -45 4 -54q-5 3 -8 8q-3 10 -19 10q-17 0 -21 8
q-6 7 -14 12q-23 12 -37 56q-5 17 -12 51.5t-11 48.5q-1 3 -2 14t-3 16q-6 1 -6 -3q-5 -24 -23 -65q-11 -31 -22 -40q-2 -2 -2 -4q-2 -14 -10 -24q-4 -6 -5 -19t-2 -16q-1 -7 -5 -19t-5 -16q-2 -6 -7 -6q-4 0 -6 -3q-5 -9 -17 -3q-10 6 -15 11q-8 10 -19 3q-1 3 -6 11
q-7 12 0 32l14 41l9 27.5t8 25.5q8 22 24.5 63t23.5 60q28 80 29 86q1 2 1 6t1 6q1 11 14 11z" />
    <glyph glyph-name="underscore" unicode="_" horiz-adv-x="397" 
d="M258 -35q51 0 74 -15q-20 -30 -59 -30h-95q-5 0 -15 -2q-34 -5 -103 -7q-13 0 -16 7q-1 6 -11 4q-8 -1 -20 2q-8 1 -8 13q0 9 8 13q8 3 16 3q45 6 86 9q22 2 80.5 2.5t62.5 0.5z" />
    <glyph glyph-name="grave" unicode="`" horiz-adv-x="245" 
d="M20 606q7 2 10 -2q5 -9 15 -3q18 14 32 1q27 -22 34 -39q5 -8 19.5 -19.5t19.5 -18.5q4 -6 3 -10q-3 -3 2 -8q2 0 6.5 -3.5t7.5 -3.5q6 -3 11 -17q-16 -2 -17 -2q-3 -1 -5 2l-1 -2q0 -3 -0.5 -4.5t-2 -3.5t-5.5 0q-5 0 -5 -5q0 -3 -1.5 -4t-3.5 -0.5t-3 2.5q-2 3 -5.5 5
t-8 3.5l-7.5 2.5q-32 19 -51 33q-5 3 -11.5 12t-12.5 12l-8 4q-9 4 -13 8q-1 1 -4 4.5t-4 5l-3 4.5t-2.5 5.5t0 6t1.5 6.5q0 2 -2 8q10 0 13 12q-2 5 2 8z" />
    <glyph glyph-name="a" unicode="a" horiz-adv-x="373" 
d="M212 415q25 0 45 -20q25 -27 17 -58v-6q6 -28 0 -72q-1 -5 0.5 -13t1.5 -11q2 -80 1 -103q0 -7 -3 -25t-3 -23q-1 -13 5 -34q18 -2 36 13q20 7 54 36t37 31q2 -19 -17 -42q-6 -6 -27 -24t-24 -20q-21 -18 -53 -37q-26 -17 -66 -16q-9 0 -20 16q-7 13 -15 22q-6 0 -10 -6
q-5 -8 -8 -8q-7 -1 -15.5 -8t-14.5 -9q-4 -4 -18 -2.5t-18 1.5q-5 0 -7 -2l4 -2h2l9 -2q-5 -6 -40 -4h-3q-39 3 -52 19q-18 22 -22.5 32t-5.5 27l-2 39q-2 46 30 88q28 38 78 50q5 2 15 4t18 4.5t15 6.5q5 3 15.5 0.5t16.5 -0.5q4 25 -2 103q0 22 -20 14q-39 -16 -83 -17
q-1 0 -4.5 -0.5t-4.5 -1.5q-12 -6 -18 -4.5t-15.5 6.5t-15.5 5q-1 7 4 7q9 3 24.5 7.5l26 7.5t18.5 4q10 1 19.5 4.5t21.5 8.5t19 7q22 7 24 7q18 1 32 -7q23 -12 31 -11q2 2 1 4t-1.5 2.5t-3.5 2t-4 2.5q-7 1 -8 5q1 1 3 2zM169 230q-11 -3 -14 -7q-6 -8 -10 -8
q-6 0 -11 -4q-4 -3 -10 -8.5t-11 -9.5q-16 -11 -22 -27q-13 -34 -12 -66.5t13 -43.5q1 -1 6 -5.5t5.5 -5t5.5 -3.5t6 -1.5t7 1.5q5 2 20.5 10t19.5 9q7 2 7 16v18q1 7 -1.5 27t-0.5 37q1 6 0 20t1 20q1 4 1 31zM7 50q0 -2 -1 -5q-2 -6 2 -8t8 -8t7 -8q2 -1 5.5 -5t7.5 -6
t10 -2q-24 29 -29 38q-8 13 -10 4z" />
    <glyph glyph-name="b" unicode="b" horiz-adv-x="366" 
d="M43 620q10 4 15 -4q14 -18 21 -24q3 -2 5 -11q1 -8 3.5 -23t4 -27.5t1.5 -23.5q-2 -23 -0.5 -75t0.5 -75q0 -4 4 -6q39 35 106 54q36 10 50 -18q3 0 4 2l2 4t4 1q7 -4 7 -8q0 -12 4 -20q5 -9 8 -10q11 -2 13 -18q10 -72 3 -133v-5q5 -16 -2 -65q-8 -48 -17 -67
q-11 -25 -35 -54q-15 -18 -42 -26q-10 -2 -13 -1q-8 5 -24 8t-23 7q-4 2 -13 11q-2 2 -8.5 12.5t-12.5 14.5q-4 -8 -3.5 -26t-5.5 -25q-6 -1 -9 5t-5 7q-2 -14 -6 -17q-5 3 -22 17.5t-29 19.5q-2 -2 -2.5 -8t-4.5 -8q-16 9 -15 28q1 11 -1.5 29.5t-2.5 26.5q-4 86 0 144v60
q1 69 1 206v88q0 13 2.5 16t14.5 7q10 2 23 10zM195 368q-36 -5 -46 -12q-23 -17 -41 -38q-14 -15 -14 -37q0 -14 3 -48t2 -53q-1 -11 2 -32.5t3 -32.5v-49q9 -3 26 -12t23 -11q19 28 24 44q14 35 22 100q9 66 7 140q0 6 -2 17.5t-2 15.5q-2 8 -7 8z" />
    <glyph glyph-name="c" unicode="c" horiz-adv-x="300" 
d="M154 414q3 -1 9.5 -3.5t9.5 -4.5q4 -3 8 1q10 9 21 -2q6 -3 7 -4q37 -23 38 -67q2 -33 -7 -47q-4 -6 -13.5 -15t-12.5 -13q-4 -4 -7 -2q-7 1 -8.5 0.5t-6.5 -5t-7 -5.5q-11 14 -11 32q2 38 2 57q0 22 -11.5 36t-27.5 14q-14 2 -20 -10q-3 -4 -8 -11.5t-8 -11.5
q-10 -14 -6 -34q0 -13 -1 -15q-5 -12 -7 -67q0 -23 6 -37l1 -1v-2q-2 -11 2 -31t4 -28q-2 -43 10 -69q8 -16 14 -22q14 -14 32 -8q8 2 22.5 5t22.5 5t19 6.5t21 10.5q41 26 60 48q4 4 13.5 11t12.5 10q12 10 28 7q-1 -6 -5 -12t-6.5 -8.5l-9 -9l-8.5 -8.5l-14 -15
q-5 -6 -36 -34q-6 -5 -33 -22q-21 -13 -27 -15q-8 -3 -24.5 -5.5t-26.5 -9.5q-38 -26 -67 -5q-10 7 -20 3t-18 0q-53 30 -61 91q-5 32 -5 56q0 110 7 155q8 44 16 66q11 30 36 31q2 0 21 11q41 23 80 3zM66 337q-5 -4 -5.5 -23.5t2.5 -24.5q4 5 6 23.5t-3 24.5z" />
    <glyph glyph-name="d" unicode="d" horiz-adv-x="422" 
d="M281 613q11 5 16 -10q8 -29 13 -68q1 -8 5 -28t4 -31q1 -24 -1 -66.5t-2 -58.5q2 -33 -4 -61q-4 -28 -3 -56q2 -21 0 -41q-2 -22 2 -38q4 -30 2 -46q-1 -12 3 -38q3 -25 25 -13q10 6 20.5 10t16 8.5t14.5 16.5q7 9 16.5 16t23 15t19.5 12q4 2 12 0q1 -8 -4 -15
q-3 -3 -4 -5q-14 -24 -29 -26q-4 -1 -10 -9q-18 -25 -36 -38q-8 -6 -31 -31q-11 -10 -40 -16q-51 -9 -79 28q-2 2 -5.5 6.5t-5.5 6.5l-3 11.5t-3 10.5q-5 18 -12 96q-7 87 -4 114q3 32 -9 59q-10 22 -37 43q-9 -20 -22 -19q-6 0 -8 -9q0 -1 -8 -17q-17 -40 -12 -66
q7 -26 4 -47q-2 -10 -3 -29.5t-2 -25.5q-2 -62 7 -87q3 -8 5 -24q5 -33 36 -23q13 4 19 9t18 18q2 3 9 5l2 4q3 -4 0.5 -22.5t-7.5 -29.5q0 -1 -4.5 -6.5t-11.5 -11.5t-12 -7q-45 -3 -92 24q-27 17 -45 69l-11 23q-6 10 -9 22t-4.5 30t-2.5 23q-6 33 2 98q7 51 27 89
q24 45 68 52q2 0 5.5 2t4.5 2q18 6 28 -4q6 -6 9 -7q37 -12 58 -38l11.5 117t12.5 117q8 2 10.5 2t8.5 -5.5t8 -6.5l2 4q-2 12 0.5 15t13.5 2q10 -2 15 0zM291 35q-3 -6 -1 -13q2 -8 9 -4q5 2 1 9q-4 6 -9 8zM69 33q4 -6 16 -16.5t18 -9.5q-3 5 -15.5 15t-18.5 11z" />
    <glyph glyph-name="e" unicode="e" horiz-adv-x="329" 
d="M96 419q14 0 15 -1q-1 -4 -10.5 -6t-10.5 -6q5 -5 13 1q34 19 66 7q2 -1 5 -2t5.5 -2t4.5 -2l20 -10l11 -7q11 -7 22.5 -32.5t13.5 -49.5q3 -32 -8 -64q-9 -23 -19 -26q-3 -1 -5 -7l-18 -12.5t-29 -15.5q-6 -2 -16 -7l-14 -7l-41 -23q19 -56 25 -64q4 -6 11.5 -12.5
t11.5 -11.5q15 -20 38 -12q16 6 39 12.5t38 13.5t35 21q25 17 33 19q6 3 25 15q8 5 12 4q1 -8 -1 -13.5t-4 -8t-7.5 -6.5t-8.5 -6q-12 -10 -14 -13q-6 -7 -26.5 -20l-25.5 -16q-19 -9 -33 -20q-1 -1 -7 -4t-11 -6t-7 -5q-9 -6 -23.5 -10.5t-17.5 -6.5q-17 -13 -72 -15
q-27 0 -45 18q-40 39 -52 75q-1 2 -2 5.5t-1 4.5q-9 35 -9 39q0 19 -2 53q-4 55 9 109q16 72 39 102q21 26 48 31zM155 386q-18 6 -23 3.5t-17 -18.5q-14 -17 -16 -58q-1 -16 -0.5 -53t-1.5 -53q0 -21 1 -25q4 1 12 7.5t9 6.5q7 5 19.5 15t19.5 14q6 4 9.5 9.5t5 10t3 14.5
t2.5 15q0 2 1 7t1 7q4 21 -3 43q-8 25 -10 34q-4 17 -12 21zM81 89q-9 -12 -1 -25q22 -37 41 -45q1 2 3 4q-3 3 -7.5 9.5t-8.5 11.5t-8 9q-6 6 -11 18.5t-8 17.5zM129 35q5 -12 16 -14q-6 13 -16 14z" />
    <glyph glyph-name="f" unicode="f" horiz-adv-x="237" 
d="M188 650q7 -2 9 -6q-40 -9 -54 -8q-5 1 -14 -4q-3 -1 -19 -20q2 -1 10 4q26 17 49 16q4 0 5 1q10 4 13 4t10 -5.5t10 -6.5q4 -2 8 -9t-1 -9q-5 -1 -14.5 -6.5t-13.5 -6.5q-27 -9 -39 -37q-5 -14 -23 -93q-2 -8 -2 -50q14 -3 38 3.5t36 5.5q-18 -39 -43 -41q-8 0 -28 -9
q-10 -4 -10 -12q0 -15 -2.5 -62t-0.5 -73q1 -12 3.5 -53t3.5 -63l3 -180l-2 -4l-2 -4q-3 -1 -4.5 3t-3.5 8.5t-4 4.5q4 -21 -19 -71q-11 13 -26 14q-12 1 -18 18q-2 8 -15 27q-14 25 -16 61q-4 62 -5 93q-2 62 0 94q1 10 3.5 37.5t2.5 38t-3 38.5q-1 4 -1 41q0 15 -2 20
q-19 0 -28 -6q-11 -8 -21 3q-8 10 3 18q3 2 0 13q-4 15 12 17l24 3q10 1 12 3t3 13q0 9 0.5 26.5t0.5 26.5q0 51 14 88q8 21 37 50q35 32 88 42q31 5 36 4z" />
    <glyph glyph-name="g" unicode="g" horiz-adv-x="395" 
d="M94 408q24 6 40 -8l12 -6q40 -12 46 -53q0 -3 2 -9l6 -2q2 49 0 61q-3 21 15 15q19 -6 35 -22l6 -6q3 0 4 1.5t1 3t1 3.5t3 3q28 -19 30 -38l3 -53q2 -21 4 -64l3 -65q2 -17 2 -77q0 -16 4 -24q2 0 4 0.5t3 2t2.5 2.5t2.5 2q29 15 77 51q6 4 22 4q-8 -24 -37 -46
q-25 -20 -29 -23q-9 -7 -28 -20q-7 -3 -16 -12q-11 -11 -6 -22q9 -27 -2 -51q-2 -5 -2 -17q3 -41 -17 -87q-25 -57 -55 -86q-13 -15 -26 -15q-5 0 -27 -12q-41 -19 -52 -23q-15 -5 -21.5 -3t-15.5 17q-4 6 -11 6q-23 2 -36 31q-3 8 -8 38q-6 29 17 65q6 10 14.5 21t14.5 18
t17.5 19l16.5 17q6 6 20.5 14t18.5 11q9 6 38 30q2 2 13.5 8.5t13.5 12.5q1 3 -2 33q0 7 -4 25q-13 -7 -16 -15q-3 -6 -11.5 -17.5t-11.5 -18.5q-4 -9 -21 -17l-27 -12q-17 -6 -41 8q-5 2 -16.5 9t-18.5 10q-10 5 -17 19q-25 47 -33 99q-15 97 29 205q17 36 30 49l3 3
q11 13 22 5q1 -1 12 2zM133 358q-13 6 -17 -6q-9 -37 -7 -49q5 -39 2 -73q-3 -42 -2 -47q2 -23 -10 -39q-9 -10 -9 -25q-2 -29 11 -44q0 4 -0.5 12t-0.5 12q0 12 2 18q4 7 8 7q5 -1 5 -9q0 -23 7 -34q8 -14 13.5 -15.5t18.5 7.5q28 17 48 40q8 8 7 20l-3 92q0 12 -4 14
q-8 4 -14 23q-4 9 -17.5 34t-17.5 40q-4 16 -20 22zM221 -36q-11 -2 -13 -3t-17 -12t-25 -13q-1 0 -2 -2l-1 -2q-4 -4 -10 -8q-10 -5 -18.5 -11.5t-20 -17.5l-15.5 -15q-6 -5 -34 -49q-14 -25 1 -50q6 -11 25 -17.5t31 -2.5q4 2 6 4l18 24q11 18 39 50q23 24 31 52
q4 14 4 39t1 34z" />
    <glyph glyph-name="h" unicode="h" horiz-adv-x="389" 
d="M9 633q25 5 41 -14q1 1 2.5 4.5t3.5 5t5 0.5q6 -1 6 -10q4 -17 13 -20q3 -1 5 -8q1 -2 7.5 -25.5t8.5 -36.5q0 -5 -0.5 -16.5t0.5 -16.5q6 -26 2 -87q0 -6 2 -24.5t1 -29.5q7 5 30 33q19 24 38 37q33 21 67 7q17 -7 48 -38q4 -5 2 -14q0 -21 -1 -32q0 -5 1.5 -15t1.5 -15
q0 -11 -2 -32.5t-2 -32.5q-1 -22 6 -85q2 -30 1 -44v-19t-2 -24q-2 -12 6 -20q2 -1 9 3q2 1 3 0.5l2 -1t4.5 2t10.5 8.5q11 11 31 23.5t31 21.5q28 23 48 31q0 -1 -0.5 -10.5t-1.5 -10.5q-26 -16 -37 -37q-11 -14 -14 -15q-10 -2 -27 -21q-3 -3 -11 -10t-11 -12
q-10 -15 -25 -25q-25 -16 -32 -22q-10 -8 -18 -6l-7 1q-2 0 -7 -4t-8 -1q-2 2 -6.5 5l-7.5 5t-6 5.5t-5 7.5l-2 4l-2 4q-13 53 -11 74q4 43 7 61q2 28 -1 41q-3 15 -3.5 29.5t1 38.5t1.5 30q0 15 12 96q4 15 -6 20q-12 6 -18 3q-5 -2 -12 -9l-18 -16q-1 -1 -3.5 -2.5
t-4.5 -3.5q-5 -4 -14 -14.5t-15 -15.5q-4 -3 -6 -9q-15 -34 -15 -71q0 -31 7 -73q8 -47 -1 -91q-3 -13 1 -41q2 -19 -3 -39q-2 -15 -13 -15q-4 0 -6 -6t-7 -6q-17 8 -26 2q-5 -4 -9 2q-25 25 -25 46q-2 15 -5 18q-9 10 -9 35v128q0 44 -5 99q-4 33 -4 123q0 97 1 145
q0 22 8 46z" />
    <glyph glyph-name="i" unicode="i" horiz-adv-x="225" 
d="M47 707q16 1 16 -13q-1 -9 11 -19q34 -31 5 -55q-3 -2 -9 -8t-11.5 -8.5t-12.5 -1.5q-4 4 -13 3.5t-14 1.5q-50 26 -15 75q14 20 43 25zM54 420q28 0 35 -29q3 -8 4 -9q8 6 11 5t3 -11q2 -8 -1 -15q-4 -14 -1 -30q3 -21 5 -126q1 -24 7 -77l3 -27t2 -27q0 -4 0.5 -11
t0.5 -9.5t1.5 -6.5t4.5 -2.5t9 2.5q38 18 52 28q34 23 38 24q10 5 15 10q18 14 32 4q-8 -12 -24 -24q-22 -18 -32 -33q-5 -10 -18 -11q-3 0 -18 -12q-3 -2 -9 -5t-9 -6q-9 -12 -11 -13q-4 -3 -18 -8l-19 -6q-6 -3 -14 -3q-1 0 -4 0.5t-5 0.5q-2 -1 -5 -3.5t-5 -3.5
q-7 -2 -18 5q-1 1 -12.5 4.5t-16.5 8.5q-3 2 -8.5 3.5t-7.5 2.5q-13 13 -19 56q-3 26 -1 80q2 66 5 97q5 50 3 84q-1 8 1 30t-1 31q-1 6 12 19q13 11 33 13z" />
    <glyph glyph-name="j" unicode="j" horiz-adv-x="183" 
d="M41 678q8 2 10 -2q3 -6 -3 -10q-1 -1 -4 -4.5t-4 -5.5q2 -3 4.5 -5t5 -2.5t6 -1t6.5 -1.5q-2 -4 -4.5 -13.5t-6 -17t-9.5 -13.5q-13 -8 -16 -7q-11 1 -25 -4q-12 -3 -19 8q-8 12 -2 36q1 7 8.5 14.5t8.5 10.5q5 11 23 13q3 1 10 2.5t11 2.5zM11 432q29 8 57 -1q5 -3 6 -4
q1 -5 8.5 -17.5t7.5 -21.5q0 -12 3 -33.5t4 -26.5q9 -89 5 -127q-4 -48 1 -72q2 -10 -0.5 -23.5t-2.5 -19.5q0 -14 5 -19q6 2 9.5 4.5t8 7t8.5 7.5q9 7 14.5 10.5t12.5 6t9 3.5q9 3 16 13q4 6 15.5 13t12.5 8q11 10 22 -4q-16 -11 -37 -33q-6 -7 -20 -14t-19 -11
q-31 -27 -45 -35q-9 -6 -10 -15q0 -6 -1 -19t-1 -20q-1 -18 -5 -52q0 -16 4 -20q2 -2 0 -16q-15 -65 -70 -97q-41 -24 -45 -26q-16 -5 -18 -5t-5.5 0.5t-5.5 0.5t-5.5 0.5t-5.5 2t-4 4t-3 5.5l-5 5q-30 20 -17 70l9 30q8 21 10 24q34 51 50 67q3 4 13.5 10t11.5 7
q-2 45 -4 57q-5 53 -4.5 83.5t3 84t2.5 83.5q0 16 -1 34t-2.5 39.5t-2.5 33.5q0 4 3.5 10.5t7.5 7.5zM13 -30q-15 -5 -26 -15q-6 -4 -10 -9.5t-9 -15l-6 -11.5q-19 -31 -24 -57q-5 -25 0 -38.5t25 -27.5q4 -4 7 -2q22 7 26 17l21 48q12 35 -4 111z" />
    <glyph glyph-name="k" unicode="k" horiz-adv-x="367" 
d="M44 614q5 -2 13 -8t12 -7q3 1 4.5 5.5t3.5 5.5q16 -3 20 -19q17 -51 8 -105q-1 -12 2 -24q7 -41 4 -99q-1 -9 2 -84q6 -2 11 6q11 13 32 35.5t37.5 42l30.5 37.5q8 7 21 20t22 19q23 17 23 12q0 -2 0.5 -10.5t-0.5 -15t-6 -8.5q-8 -4 -15 -12t-14.5 -19t-11.5 -16
q-9 -12 -32 -37.5t-34 -40.5q13 -7 21.5 -17t20.5 -30.5t14 -23.5q11 -16 31.5 -55t34.5 -58q7 -10 17.5 -29.5l14.5 -26.5q6 -12 10 -16q11 -11 16 -33q-11 -5 -19 -7q-23 -5 -31 8q-6 8 -15 0q-1 -1 -2 -6.5t-2.5 -6.5t-6.5 2q-2 2 -4 0t-4.5 -5.5t-4.5 -4.5
q-22 15 -29 32q-4 8 -14 24q-37 56 -68 139q-4 12 -16.5 32t-16.5 28q-7 -6 -6 -13q0 -12 1 -35t1 -34q1 -20 -6 -79q-2 -30 -1 -39q3 -27 -14 -51q-7 -9 -12 -2q-13 16 -15 12q-8 -18 -16 13q0 2 -1 5q-1 4 -7 -3q-4 -5 -6 -5q-3 0 -6 -2.5t-6 -1.5q-2 1 -8 11t-7 10
q-12 8 -13 33q-1 41 1 250q0 15 3 51.5t3 56.5q-3 87 -3 88q-1 11 -1.5 32t-0.5 28t2 9q5 1 7.5 4t2.5 5t-0.5 7t-0.5 6q2 28 29 20zM144 268q-3 -6 2 -8q1 -1 3.5 -5.5t5 -7.5t4.5 -2q0 1 -2 5.5l-3.5 8t-4 6.5t-5.5 3z" />
    <glyph glyph-name="l" unicode="l" horiz-adv-x="238" 
d="M30 668q16 -5 24 -17q13 -23 16 -45q2 -27 9 -36q1 8 -0.5 23.5t0.5 21.5q5 1 8 -2t2 -7q0 -10 6.5 -27t6.5 -19q4 -15 6.5 -34.5t3.5 -33t1.5 -45.5t1.5 -49q1 -24 -1.5 -75t-2.5 -55q-2 -89 2 -117q2 -12 3.5 -35t1.5 -28q2 -52 6 -61q18 5 26 11h3t8.5 2.5t17.5 9.5
l10 5t10.5 5.5t5.5 3.5q9 9 34 23t28 16q11 6 21 1q-34 -43 -65 -60q-15 -9 -32 -22t-26 -19q-14 -9 -18.5 -11.5t-14.5 -3t-22 -2.5q-37 -8 -65 11t-35 54q-12 62 -10 130q0 17 4.5 70.5t2.5 82.5q-4 65 -1 218q1 20 -4 92q0 2 -1 5.5t-1 6t3 3.5t9 5t8.5 4.5t9.5 -0.5z
M95 56q-14 -14 -5 -33q5 -8 13 -2q-3 24 -8 35z" />
    <glyph glyph-name="m" unicode="m" horiz-adv-x="479" 
d="M332 428q8 9 19.5 6.5t21.5 -14.5q13 -15 11 -39q0 -33 5 -50q3 -10 3 -42q-2 -67 2 -197q0 -49 -5 -84q-3 -1 -6 2.5t-6 2.5q-1 -2 -1.5 -5t-0.5 -4q-9 -15 -19 -15q-3 0 -7.5 -2t-8.5 -2t-9 4q-5 5 -9 0.5t-6 -12.5q-24 9 -33 45q-8 31 -8 72q0 20 -0.5 57.5t-0.5 67.5
t1 57q0 2 -0.5 4t-0.5 4l-3 -3q-19 -68 -59 -157q-9 -18 -6 -35q1 -6 -2 -8t-8 1q-13 5 -16 5q-1 -5 0.5 -17t-0.5 -17q-41 -5 -58 35q-6 14 -17.5 43.5t-18.5 44.5q-21 46 -25 90q-4 24 -11 35q3 -61 -5 -173q-2 -28 -4 -86q0 -7 -11 -66q-6 -3 -11 2q-13 19 -15.5 26
t-3.5 32q-1 58 6 148q1 13 1.5 39t1.5 39q2 21 0 60.5t-1 57.5q0 23 4 25q12 8 30 3q13 -4 22 2q20 13 41 7q4 -1 6 -2t1 -4q-4 -8 7 -17q12 -12 17 -35q2 -12 27 -71q24 -63 31 -76q2 -5 3.5 -15.5t2.5 -14.5q3 4 4.5 8t2.5 9t2 8l52 160q11 32 25 53q2 4 7 4q5 -29 22 -51
q0 10 -3.5 26t-3.5 17q18 6 24 12z" />
    <glyph glyph-name="n" unicode="n" horiz-adv-x="420" 
d="M236 419q10 -1 19 -5t19.5 -10t16.5 -9l4 -4q1 -5 9 -26.5t9 -34.5q0 -96 -4 -143q-1 -11 -0.5 -36t0.5 -35q0 -8 10 -52q1 -7 17 -13.5t22 -1.5l98 65q5 3 9 0q-14 -37 -25 -42q-32 -17 -45 -38q-8 -13 -30 -24q-12 -12 -32 -18q-16 -11 -26 -12q-46 -3 -67 34
q-21 35 -23 84q-3 44 -1 98q0 92 12 147q2 11 -1 35q-2 11 -9 14.5t-17 -5.5q-57 -54 -78 -111q-12 -35 -6 -88q1 -18 0 -36q-7 -99 -5 -136q0 -14 -16 -18q-1 0 -11 -7q-21 -15 -35 8q-8 13 -12 15q-3 -2 -3 -6.5t-1 -5.5q-8 3 -14 20q-15 43 -14 71q0 23 -0.5 68.5
t-0.5 68.5v176q0 10 2 12t12 0t15 0q13 6 24 -4q5 -3 14 -9.5t14 -9.5q14 -12 13 -31t7 -59q6 5 11 16q11 29 44 72q28 34 75 26z" />
    <glyph glyph-name="o" unicode="o" horiz-adv-x="359" 
d="M107 426q12 6 23 -1q0 -2 -3 -6.5t-3 -7.5q1 0 5.5 -1t7 -1t4.5 2t3 8l6 3q32 3 75 -25q3 0 3 -4q4 -11 32 -43q6 -7 9.5 -16t6 -21t4.5 -17q2 -10 4 -30q0 -7 8 -63q4 -39 -6 -56q-6 -11 -6 -25q1 -28 -18 -61q-7 -14 -28 -49q-6 -10 -35 -21q-7 9 -5 12t8 6.5t7 6.5
q-5 2 -16 -3q-9 -6 -27 -13t-23 -10q-20 -11 -40 1q-30 17 -59 43q-30 29 -43 75q-9 39 -5 116q0 44 20 108q22 62 69 81q3 1 22 12zM157 379q-14 -7 -32 -4q-1 -7 -6.5 -20t-6.5 -20q-9 -30 -7 -43q3 -51 1 -61q-3 -26 -1 -43v-34q-5 -58 24 -104q4 -9 9 -7q13 5 21 -16
q13 3 17 12q25 29 30 75q5 55 7 123l-2 84q-2 34 -26 53q-16 12 -28 5zM169 -17q6 -3 13 -3q8 2 5 9q-1 4 -9 2q-8 -5 -9 -8z" />
    <glyph glyph-name="p" unicode="p" horiz-adv-x="398" 
d="M29 428q19 -2 22 -10q1 -7 12 -7q16 -1 21 -20q2 -5 4 -15t4.5 -18t6.5 -16q32 29 35 33q48 55 133 31q10 -3 20 -17q40 -51 40 -87q0 -47 6 -71v-9q-2 -12 -2.5 -26.5t0 -26.5t-0.5 -27q-1 -20 -12 -45q0 -6 -13 -32q-4 -8 -30 -45q-6 -7 -21 -16q-4 10 6.5 21.5
t7.5 20.5q-4 -4 -9.5 -13t-11 -15t-12.5 -10q-1 -1 -3 -5q-1 -2 -1 -9t-6 -8q-10 -3 -31 -3q-31 1 -56 30q-6 6 -30 35q-3 -13 -4.5 -35t-2.5 -29q-2 -18 -1 -49.5t0 -49.5q-2 -40 -8 -55q-2 -4 -2 -12.5v-10.5q-2 -14 -6 -18q-4 4 -14 10t-17 13.5t-10 19.5q-5 -15 -8 -27
q-17 12 -25 34q-4 15 -5 43t-2 35q-5 43 1 146q2 17 3 52t2 53q3 19 2 76.5t0 76.5l3 43q2 25 -1 45q-3 19 16 19zM192 374q-23 -4 -35 -11q-23 -12 -53 -61q-2 -2 -2 -7q5 -48 7 -107q3 -71 1 -86q0 -13 6 -20q26 -34 42 -47q9 -8 24 -11q6 -1 10 4q31 53 34 110v45
q2 22 -2.5 61t-4.5 55q0 8 -1.5 17.5t-4 21.5t-3.5 18q-1 9 -7 14.5t-11 3.5z" />
    <glyph glyph-name="q" unicode="q" horiz-adv-x="373" 
d="M85 396q5 -5 16 -1q17 6 58 -7q6 -2 6 -6q0 -6 2.5 -10t9.5 -10l7 -6q10 -8 10 -17q0 -8 9 -14q5 9 5 33v23q0 9 6.5 13.5t15.5 0.5q17 -8 18 -10q2 -3 6 -3q12 1 16 -1t7 -12q9 -24 8 -47q-1 -17 -0.5 -59t0.5 -59q-1 -24 1 -73t1 -74q0 -7 1 -41.5t-2 -40.5
q-3 -10 -1 -35.5t1 -34.5q-4 -67 -7 -104q0 -5 -2.5 -10.5t-6 -12.5t-4.5 -11q-2 2 -5 6.5t-5 6t-4 2.5t-3.5 -2.5t-2.5 -10.5q-5 -5 -17 -1.5t-15 9.5q-18 34 -20 54q-1 9 -3.5 25l-3.5 22q-3 18 -1 97v35q-4 1 -13 -4q-8 -6 -38 -11q-31 -7 -54 16q-9 9 -16 4
q3 -6 13.5 -13.5t14.5 -13.5q-24 -2 -34 14q-11 13 -19 13q-9 -1 -18 14q-20 35 -20 69q-1 20 -3.5 58t-3.5 51q-4 50 16 102q10 27 30 52l9 11.5t11 13t11 9.5q9 5 13 1zM129 352q-9 2 -16 -9q-3 -6 -11 -41q-9 -40 -2 -77q7 -39 -1 -69q-3 -10 -2 -18q9 -54 13 -74
q4 -25 28 -13q2 1 11.5 4.5t12.5 5.5q12 12 26 8q4 131 9 176q2 33 -11 52q-15 22 -17 33q-4 17 -40 22z" />
    <glyph glyph-name="r" unicode="r" horiz-adv-x="284" 
d="M52 422q14 -8 19.5 -12t13 -13.5t7.5 -22.5q0 -3 2 -7l2 -4l18.5 15.5t19.5 15.5q34 26 76 16q27 -7 44 -28q-7 -14 -22 -7q-10 4 -15 -2q-3 -3 -11.5 -5.5t-11.5 -8.5l-6 -5q-44 -17 -63 -57q-2 -4 -4 -16t-7 -18q-8 -10 -7 -26q2 -36 2 -55q1 -20 3.5 -59.5t2.5 -58.5
q1 0 1 -25l-1 -25q0 -6 -7.5 -24t-11.5 -22q-18 23 -39 2q-3 -5 -9 -2t-7 3q-3 -1 -2 -4.5t1 -4.5h-4q-29 29 -29 73q2 41 -6 127q-2 23 1 56q5 30 3 75q0 5 1 16t1 17q2 33 -5 58q-5 7 3 9q2 1 3.5 0t2.5 -3t2 -3q6 3 6 22q3 2 12 5.5t12 7.5t9 0zM215 365q12 5 18.5 2.5
t13.5 -14.5q-3 -3 -3 -1q-21 8 -40 -3q-13 -11 -26 -12q1 4 3.5 6t6 4t4.5 3l6 5q3 0 5.5 2l5.5 4.5t6 3.5z" />
    <glyph glyph-name="s" unicode="s" horiz-adv-x="274" 
d="M148 423q2 5 19.5 1.5t20.5 -3.5q1 0 -4 -4q-17 -14 -4 -14q9 0 -9 -10q-5 -3 -10 -5q-3 -3 -10 -5q-24 -7 -29 -14q-2 -4 -7.5 -8l-9 -6.5t-6 -7.5t-0.5 -12q1 -5 1 -18q1 -7 16.5 -23t24.5 -23q36 -28 56 -62q11 -18 18 -54.5t3 -56.5q-2 -7 -30 -58
q-5 -10 -15.5 -18.5t-18.5 -12t-21.5 -8.5t-16.5 -7l-12 -4q-20 -8 -52 2q-30 10 -30 11h3l-1 1q-9 4 -21 11t-16.5 10.5t-6 8.5t-3.5 8q-6 9 -1 9h3h2q0 2 -6 8q-4 6 -2 6q2 -1 3.5 0t2.5 1q4 0 12 -6q9 -4 9 -2q0 4 -5 9t-12 11t-10 9q-2 7 3 5q2 -1 8 -6q9 -6 12 -7t9 -5
t13.5 -7.5t15.5 -4.5q19 -11 42 -4q21 19 23 33q6 49 -19 87q-12 19 -63 70q-16 18 -20.5 44t3.5 48q13 42 44 49q7 2 11 7q11 8 51 15q30 6 42 12zM70 237l-18 16q-3 0 0.5 -6t10.5 -15t8 -11l19 -29q13 -13 16 -13v13q-4 4 -11 13z" />
    <glyph glyph-name="t" unicode="t" horiz-adv-x="256" 
d="M36 623q26 -14 40 -60q3 -8 13 -66q8 1 21 1t19 2l30 2q-2 -1 -7 -2q2 -1 9 0t18.5 2.5t14.5 1.5q22 0 32 -9q4 -3 -4 -7q-4 -2 4 -5q12 -4 14 -6q-6 -7 -16 -10.5t-29.5 -6t-21.5 -2.5h-14t-18 -1q-25 -5 -33 -4q-11 1 -13.5 -1.5t-1.5 -14.5q1 -20 4.5 -56.5t4.5 -51.5
q4 -70 3 -92q0 -16 1.5 -34t4 -40t3.5 -34l6 -63q2 -17 23 -32q4 -4 10 -1l20 10q11 5 25.5 14.5t24 14.5t15.5 5q8 0 2 -15q-5 -11 -14 -16q-8 -5 -17.5 -15t-14.5 -14l-10.5 -8.5t-10 -7t-11.5 -5.5q-7 -2 -14 -7q-23 -19 -64 -16q-2 0 -5.5 1t-6.5 1t-6 -3t-8 5
q-2 4 -5.5 12t-5.5 12q-4 10 -10 7q-4 -2 -7 3q-21 28 -26 60q-4 29 -4 87q0 16 -0.5 74t1.5 74q3 43 7 122q0 17 -2 21q-10 -3 -30.5 -2.5t-20.5 4.5q5 0 19.5 3.5t20.5 4.5q-11 2 -16.5 2t-17 -2t-14.5 -2q-17 0 -22 4t-5 20q10 1 38 6t39 6q5 0 5.5 1t0.5 7q1 17 0 33
q-2 11 5 46q3 2 4 -3.5t2 -15t4 -13.5q8 18 4 46q-2 20 14 29zM87 72q-1 0 0.5 -7t3.5 -14.5t2 -8.5q0 -2 3 -3.5t3 -2.5q3 -7 13 -8q3 -1 4 1q1 1 -4 6t-10.5 14.5l-9 16t-5.5 6.5z" />
    <glyph glyph-name="u" unicode="u" horiz-adv-x="414" 
d="M301 414q5 -2 5 -19v-23.5t2 -30.5q1 -8 5 -29q6 -33 1 -50q-1 -3 -1 -28q1 -20 0 -58.5t-1 -57.5q1 -13 0 -37.5t-1 -32.5q0 -18 7 -26t20 -2q9 2 11 4q2 1 91 60q14 9 22 9q4 -5 2 -10.5t-3.5 -8t-6 -7l-6.5 -6.5q-11 -13 -25 -19t-24 -17q-18 -11 -19 -11q-6 0 -8 -3
q-5 -9 -26 -17q-8 -4 -13 -9q-7 -7 -38 -7q-9 4 -23.5 8.5t-21.5 7.5q-13 6 -22 17q-1 1 -3.5 4t-3.5 4.5l-3 4.5t-3 5.5l-2.5 6.5t-2 9t-1.5 11q0 1 -2 5q-5 0 -9 -2.5t-8 -8.5t-5 -7l-34 -37q-23 -24 -61 -18q-29 5 -56 29q-9 7 -12 23q-19 73 -12 139q0 14 -4 25
q-5 14 -5.5 28t0.5 35t1 28q0 12 4 44t2 49q-2 23 12 23q5 0 20.5 1.5t23.5 0.5q14 -1 32 -21q19 -21 22.5 -50.5t-1.5 -53.5q-2 -60 -2 -71q1 -11 -1 -35t-1 -35q3 -36 2 -44q-1 -16 19 -34q5 -5 18 -2.5t21 10.5q5 5 32 40q5 5 5 19q2 21 0.5 78.5t-1.5 78.5q0 10 1 32
t0.5 38.5t-2.5 32.5q0 9 8 9t24 6t22.5 5t20.5 -11q2 1 7.5 6t10.5 3zM116 24q-10 4 -13.5 3.5t-14.5 -10.5q13 -4 28 7z" />
    <glyph glyph-name="v" unicode="v" horiz-adv-x="288" 
d="M-32 434q20 5 30.5 4.5t31.5 -8.5q7 -3 10 -10q9 -21 11 -26q2 4 1.5 12t1.5 13q13 -7 24 -37l21 -73q3 -12 10 -35.5t12 -42.5t8 -37q4 -27 16 -81q4 -1 7 7q17 38 21 70q7 47 39 158q8 22 12 45q2 7 8 19t20 7q9 -3 5 -15q-5 -25 -19 -75l-3 -12q-1 -16 -11 -48
q-3 -9 -7.5 -26.5l-6.5 -25.5q-4 -14 -8 -30l-8.5 -35.5t-7.5 -30.5q-4 -18 -4 -29q0 -9 -2 -13q-9 -13 -13 -41.5t-10 -40.5q-1 -1 -1 -4q0 -2 1 -6t0.5 -7t-4.5 -5q-4 -1 -6.5 0t-6 3.5t-5.5 3.5q-20 6 -29 1q-5 -4 -14 1.5t-11 13.5q-9 31 -13 40q-2 4 1 11t3 11
q7 -6 13 -18.5t9 -16.5q-10 44 -29 57q-21 14 -26 44q-7 45 -27 117q-7 24 -16.5 68.5t-14.5 62.5q-4 20 -14 27q-10 8 -6 26q0 5 7 7z" />
    <glyph glyph-name="w" unicode="w" horiz-adv-x="443" 
d="M407 447q8 -2 6 -10q-1 -5 -2.5 -11.5t-3.5 -11.5q-7 -22 -13 -82q-4 -37 -26 -107q-16 -55 -22 -94q-2 -12 -6 -25.5t-9.5 -30l-8.5 -25.5q-2 -8 -9 -23t-9 -24q-1 -5 -3.5 -7t-15.5 -9q-25 12 -42 35q-3 -2 -2.5 -5t-1.5 -5q-27 13 -36 41q-5 18 -10 70q0 2 -6 107
q0 10 -4 13q-7 -7 -11 -23l-19.5 -64.5t-21.5 -85.5q-1 -11 -8 -34t-8 -36q0 -7 -5 -12q-10 4 -12.5 3t-9.5 -9q-7 -10 -11.5 -11t-16.5 5q-26 11 -34 44q-4 14 -11 70q-9 61 -9 62q-7 23 -24 123q-12 74 -20 110q-3 10 -1 13q5 -2 6.5 -10.5t5.5 -10.5q2 5 -1 13.5t-2 13.5
q7 -3 17 2.5t15 5.5q2 8 6.5 10.5t14 2t10.5 -0.5q12 1 21 -7t11 -21q4 -26 8 -40q5 -23 7 -51q1 -15 5 -42t5 -39q4 -52 10 -78l3 -20q4 4 12 26q16 54 25 81q1 3 13.5 38t17.5 54q3 12 2 22q-2 8 -4 26q-3 32 26 24q23 -5 42 -15q8 -6 11 -10q22 -28 31 -79
q13 -76 15 -156q0 -8 4 -10q1 1 7 15q6 17 18 57.5t20 61.5q2 5 7 33q2 14 11 42.5t11 42.5q1 3 2 9.5t2 11.5t2 9v5t0.5 6t3 4.5t7.5 1.5q1 4 2 6h1q0 1 1.5 3t4.5 4q2 1 4 5t5 3z" />
    <glyph glyph-name="x" unicode="x" horiz-adv-x="316" 
d="M281 416q8 -8 3 -18q-46 -84 -86 -129l-18 -24.5t-14 -19.5q-7 -9 0 -17q5 -10 5 -14q0 -25 15 -53q7 -13 13.5 -38.5t9.5 -34.5q6 -19 11 -25q2 -2 12 -23q3 -7 -2.5 -15.5t-11.5 -8.5q0 -4 -3 -7t-7 -3t-8 1q-3 0 -19 13q-8 6 -7.5 1t6.5 -20q-1 -1 -10 2
q-31 10 -49 47q-4 9 -19.5 38t-21.5 46q-4 1 -11 -6l-18.5 -21l-20 -22.5t-17 -21t-16.5 -23.5q-4 -6 -9 -9t-16 -4.5t-12 -1.5q5 8 13.5 26.5t13.5 27.5q9 14 20 28l25.5 31t21.5 26q10 11 5 24q-34 75 -46 138q-2 13 -8.5 36.5t-8.5 32.5q-3 18 5 27.5t25 7.5
q47 -6 72 -46q28 -46 31 -55l15 -40l4 -1q15 26 36 50t52.5 54t44.5 44z" />
    <glyph glyph-name="y" unicode="y" horiz-adv-x="309" 
d="M-2 411q21 -9 28 -8q3 1 4.5 -1t1.5 -5q1 -7 9 -10q24 22 39 -8q35 -75 52 -158q2 -13 16 -55q1 -3 5 -18t9 -24q1 4 2 9t2 9t1 7q15 94 33 143q11 28 23 86q4 17 7 20q8 0 10 -6q0 -7 4.5 -19.5t4.5 -19.5q3 -64 -20 -127q-16 -46 -25 -113q-2 -23 -16 -63
q-5 -15 -7 -32q-2 -21 -14 -59q-3 -12 -7.5 -34.5t-6.5 -29.5q-2 -12 -4 -14q-10 -14 -16 -46q-7 -35 -24 -53q-2 -2 -3.5 -7t-2.5 -7q-3 -10 -14 -10q-3 0 -4.5 1.5t-2.5 5t-2 5.5q-7 16 -1 31q4 11 6.5 23t4.5 27t4 23q6 29 31 124q6 17 -8 24q-4 -13 -14 -17
q-20 21 -28 45l-16.5 44.5l-18 48t-14 44t-12.5 48.5q-3 12 -12 34.5t-11 30.5q-20 70 -21 84q1 2 4 1t4 0q0 2 -1 6t-1 6q0 24 22 14z" />
    <glyph glyph-name="z" unicode="z" horiz-adv-x="334" 
d="M208 409q7 1 21 -1t20 -2q4 0 4.5 -4t2.5 -5q9 -5 10.5 -12t-0.5 -10.5l-8 -13.5q0 -1 -1.5 -2.5t-1.5 -2.5q-2 -4 -9 -16t-11 -21.5t-5 -19.5q-2 -13 -11.5 -36.5t-10.5 -28.5q-19 -56 -40 -90q-2 -3 -22 -58q-1 -2 -3.5 -10t-4 -11.5t-5 -9t-8.5 -9.5q24 -1 74 5
q46 7 85 -10q-2 -3 -11.5 -10t-8.5 -14l-3 -2q-38 -12 -56 -10q-9 2 -40 1.5t-40 -0.5q-24 0 -66.5 -10t-62.5 -11q-26 -1 -36 28q5 3 14.5 3.5t13.5 1.5v10t2 12q1 5 -5 8t-6 8q117 194 164 321q-4 3 -13 1q-38 -9 -81 -4q-10 2 -15 0q-11 -5 -19 1q-9 6 -28 11.5t-26 8.5
q35 11 50 11q24 -1 73 -1q61 0 92 1q16 0 32 3zM164 377q2 -10 10 -7q2 1 3 3t0 3q-5 6 -13 1zM124 99l-4 1l-13 -26t-16 -30q6 -4 8 -2q22 42 25 57z" />
    <glyph glyph-name="braceleft" unicode="{" horiz-adv-x="321" 
d="M210 724q4 0 8 -1.5t9 -4.5l5 -4q6 -3 -4 -16q-2 -3 -15 -6q-12 -2 -17 -2q-10 0 -12 -11q-1 -9 -4 -25t-3 -24q0 -14 -6 -45.5t-5 -48.5q3 -55 4 -60q2 -7 4 -41q1 -8 0.5 -21.5t1.5 -21.5q1 -3 -2 -36l-2 -14q-2 -11 -5.5 -14.5t-14.5 -4.5q-3 -1 -7.5 -7.5t-5.5 -7.5
q-4 -2 -8 -3t-10 -2t-10 -2q28 -19 32 -20q5 -1 13 -9q34 -41 33 -86q0 -8 0.5 -25.5t-0.5 -26.5q0 -52 -5 -65q-3 -11 3 -33q2 -8 7 -47q1 -7 3.5 -18.5t3.5 -14.5q1 -9 13 -15.5t24 -4.5q16 1 18 -11q1 -4 -4.5 -9.5t-10.5 -7.5q-6 -2 -17.5 -2.5t-15.5 -1.5q-33 -4 -49 1
q-27 9 -46 35q-24 36 -26 94q-1 14 -1 43q1 28 7 84q5 48 -9 90q-9 30 -34 30l-15 1q-15 2 -15 -1h-3q-1 2 -3.5 7.5t-4.5 7.5q-1 1 -4 14q-1 4 2 9t3 8q0 1 3 3q5 1 14.5 5.5t13.5 5.5q28 9 42 28q3 4 1 16q-12 39 -17 91q-5 41 0 94q1 13 6.5 36.5t6.5 29.5l2 8q2 9 4 13
q12 21 17 25q5 3 12.5 12.5t11.5 12.5q13 9 22 7q7 -2 17 4q5 4 11 5.5t10 1.5t12 -0.5t11 -0.5z" />
    <glyph glyph-name="bar" unicode="|" horiz-adv-x="164" 
d="M32 740q11 5 17 -6q2 -4 10 -9q2 -1 2.5 0t0.5 3q6 12 11 5q2 -4 7 -37q1 -8 1 -62q0 -9 -1.5 -52t0.5 -51q0 -28 8 -58q1 -8 1 -52q0 -1 -6 -67q-1 -11 -1 -94q-1 -35 7 -80q1 -7 -1.5 -18.5t-2.5 -13.5q-3 -41 3 -73q5 -30 5 -55l-3 -12q-3 -9 0 -24q11 -45 9 -64
q-1 -10 -12 -32q-1 -2 -3 -19t-4 -20q-6 -8 -8.5 -8t-5.5 4q-1 6 -4 13t-3 9q-4 -2 -5.5 -9t-2.5 -9q-7 2 -8 4q-1 1 -1 2q-2 3 -5 2q-4 -1 -4 -7l-1 -2v-2q-5 0 -9 8q-4 11 -4 53q0 39 1 58q0 4 -1 12t-1 11q-1 9 -1 82l-3 28q-1 10 -3.5 44.5t-3.5 52.5q-2 67 -1 101
q0 11 4 35q2 40 2 61q-2 42 0 126q1 25 1 76q0 13 3 26q5 49 3 70q-1 4 2 37q-2 9 11 13z" />
    <glyph glyph-name="braceright" unicode="}" horiz-adv-x="321" 
d="M53 723q33 4 49 -1q27 -9 46 -35q24 -36 26 -94q1 -14 1 -43q-1 -28 -7 -84q-5 -48 9 -90q9 -30 34 -30l15 -2q15 -1 15 2h3q1 -2 3.5 -7.5t4.5 -7.5q1 -1 4 -14q1 -4 -2 -9t-3 -8q0 -2 -3 -3q-5 -1 -14.5 -5.5t-13.5 -5.5q-28 -9 -42 -28q-3 -4 -1 -16q12 -39 17 -91
q5 -41 0 -94q-1 -13 -6.5 -36.5t-6.5 -29.5q-1 -2 -2 -6.5t-2 -8t-2 -6.5q-12 -21 -17 -25q-4 -4 -12 -13t-12 -12q-13 -9 -22 -7q-7 2 -17 -4q-5 -4 -11 -5.5t-10 -1.5t-12 0.5t-11 0.5q-5 -1 -22 10q-6 3 4 16q2 3 15 6q12 2 17 2q10 0 12 11q1 9 4 25t3 24q0 14 6 45.5
t5 48.5q-3 55 -4 60q-2 7 -4 41q-1 8 -0.5 21.5t-1.5 21.5q-1 3 2 36l2 14q2 11 5.5 14.5t14.5 4.5q3 1 7.5 7.5t5.5 7.5q4 2 8 3t10 2t10 2q-28 19 -32 20q-5 1 -13 9q-34 41 -33 86q0 8 -0.5 25.5t0.5 26.5q0 52 5 65q3 11 -3 33q-2 8 -7 47q-1 7 -3.5 18.5t-3.5 14.5
q-1 9 -13 15.5t-24 4.5q-16 -1 -18 11q-1 4 4.5 9.5t10.5 7.5q6 2 17.5 2.5t15.5 1.5z" />
    <glyph glyph-name="asciitilde" unicode="~" horiz-adv-x="516" 
d="M446 347l3 -3l1 -2v-30q0 -8 -12 -22q-4 -4 -13.5 -15.5t-15.5 -17.5q-5 -5 -10 -4q-1 0 -2.5 0.5t-2.5 0.5q-1 -1 -2 -1q-22 -19 -39 -23q-29 -10 -42 -8q-9 2 -19 -4q-14 -7 -35 -3q-12 3 -21 9q-10 4 -14 4q-10 1 -20 5.5t-21 11.5t-17 10q-12 6 -31 10.5t-40 4.5
t-30 -9q-16 -16 -21 -19q-5 -5 -9 0q-3 -5 -9 -13q-8 -10 -14 1q-10 17 -2 33q4 6 10.5 18.5t11.5 18.5q15 23 49 38q30 15 68 8q9 -2 24 -9.5t22 -9.5q28 -11 33 -11q8 1 31 -12q34 -19 92 -3q30 8 60 38q5 7 13 4q3 -1 5 -12l14 14z" />
    <glyph glyph-name="exclamdown" unicode="&#xa1;" horiz-adv-x="203" 
d="M77 417q4 0 10.5 1t11.5 1t8 -3t4 -7.5t1 -10.5t1 -9q0 -4 4 -14q3 -20 -10 -30q-19 -17 -39 -26q-1 -2 -6.5 -0.5t-6.5 1.5q-14 0 -21 6.5t-11.5 18t-8.5 16.5q-3 6 -2 8q4 9 0 20q-3 12 10 18q4 1 13.5 5t13.5 5.5t13.5 2.5t14.5 -3zM64 256q3 -2 5.5 -4.5t3 -4t2.5 -6
t3 -7.5q3 -5 4 -5q3 3 5.5 1.5t3 -1.5t1.5 -3v-4q3 -15 9 -23q13 -15 11 -48q0 -5 -1 -7q2 -34 8 -43q6 -6 4 -23t-1 -23q7 -24 9 -105l-1 -30q0 -29 4 -29q2 -5 2 -19q0 -13 2 -43q0 -7 -1.5 -22t-2 -23t0.5 -23q0 -4 -1 -8t-4 -7.5l-5 -6t-6.5 -6.5t-6.5 -6q-8 -6 -16 -2
q-17 11 -27 -6q-7 -8 -8.5 -4.5t-5.5 14t-10 12.5q-29 12 -33 36q-1 7 -3 16t-2.5 12t-0.5 9t1 12t4 17q4 8 3 50.5t0 52.5q-1 13 -4.5 38t-3.5 38q0 4 1.5 11.5t1.5 8.5q7 38 7 78q-3 29 11 82q8 29 12 34q2 8 10 5q3 -1 8 12l2 4t4 -1h1z" />
    <glyph glyph-name="cent" unicode="&#xa2;" horiz-adv-x="335" 
d="M162 490q11 -6 14 -19q0 -1 -2 -29q-2 -12 0 -20q19 1 39 -12.5t32 -31.5q10 -15 10 -55q0 -11 -7 -55q-3 -10 -5 -12q-39 10 -39 28q1 17 0.5 32t-1.5 27t-6 19t-13 6q-3 2 -7 3t-7 2q-2 -6 0.5 -16.5t2.5 -13.5q0 -8 2 -43t-2 -43v-15q4 -31 2 -90.5t1 -93.5
q20 8 86 41q8 -12 8.5 -16.5t-7.5 -14.5q-1 -2 -4 -6t-4.5 -6.5t-5 -4.5t-7.5 -3q-5 -2 -7 -7q-1 -6 -4 -10t-6 -6.5t-8.5 -4.5t-8.5 -3t-9.5 -2.5t-8.5 -1.5q-14 -4 -14 -16q0 -3 -0.5 -12t-1.5 -14q-3 -13 -7 -13q-3 1 -7 3q-3 3 -5 -2q-2 -8 -10 -9q-14 31 -12 43
q3 15 -11 16q-15 1 -31 14q-85 68 -86 172q-1 66 24 134q29 73 106 93q-3 22 -1 52q1 8 11 14t17 2zM136 366q-6 -8 -14 -32q-13 -39 -15 -131q0 -20 14 -90q3 -21 20 -36q-2 14 1 36.5t3 29.5q-1 19 -2 58t-2 59q-1 16 -1 48v47q0 10 -4 11zM83 194v59q-8 -34 -7.5 -41.5
t7.5 -17.5z" />
    <glyph glyph-name="sterling" unicode="&#xa3;" 
d="M351 45q14 -2 25 -10q-6 -3 -10.5 -12t-7.5 -11q-19 -11 -35 -9q-15 1 -43 5q-1 0 -3 0.5t-3 0.5q-28 -1 -54.5 0t-32.5 1q-9 0 -23 1t-23 1q-46 0 -101 -30q-20 -10 -30 7q-12 19 8 30q8 5 8 6q-4 11 1 20q4 6 19.5 31t24.5 38q15 23 17 57q2 76 -2 105q-3 14 -9 32
q-3 11 -14 7q-4 -2 -14 -4q-23 -5 -30 18q-2 6 -4 8q-6 12 -4 15.5t15 3.5q15 0 28 4q1 4 -4 15q-15 35 -29 107q-10 51 17 103q32 56 91 92q15 11 24 -1q2 -3 14 -3q50 7 83 -4q31 -10 36 -15q28 -24 39 -46q2 -4 2 -11q0 -17 -12 -17q-1 0 -2.5 -1l-3 -2t-3.5 -2
q-3 7 -7 12.5t-10.5 11t-11 8.5l-13.5 9l-12 8q-1 1 -3 2t-3.5 2t-2.5 2q-22 24 -65 9q-13 -6 -20 -22q-13 -30 -17 -61q-5 -35 11 -84q12 -34 27 -69q1 -2 3 -13t7 -14q2 -3 13.5 -0.5t15.5 2.5q41 0 62 1q16 0 21 -11q-5 -11 -19 -19q-12 -6 -25 -9t-31 -4t-26 -2
q3 -55 3 -56q-3 -105 -5 -121q0 -3 -8 -21q-20 -40 -29 -54q-2 -3 -4 -10t-3 -9q29 -2 44 0q21 0 32 -0.5t29.5 -4.5t29.5 -6q4 -2 62 -7zM132 557l6 26q-8 -10 -9 -13.5t3 -12.5zM102 447q-2 -8 5 -12q1 7 -5 12zM130 367q5 22 -22 64q2 -28 22 -64zM88 52q11 0 15 1.5t7 9
t4 25.5q-14 -11 -26 -36z" />
    <glyph glyph-name="currency" unicode="&#xa4;" horiz-adv-x="360" 
d="M121 409q15 0 18 -1q23 -9 38 -10q18 -2 42 -19q9 -6 11.5 -5.5t9.5 7.5l23 20q8 6 15 6q9 0 12 -7q3 -9 -2 -14q-9 -11 -29 -31q-9 -10 -9.5 -13.5t5.5 -14.5q10 -15 23 -57q7 -24 -4 -43q-3 -5 -10 -31q5 -3 9.5 -7.5t7.5 -8t7 -9.5t7 -9q-1 -3 -4.5 -4.5t-4.5 -3.5
q0 -1 0.5 -4.5t0 -5t-3.5 -0.5q-2 0 -10 -1.5t-10 1.5q-17 12 -28 23l-38 -20q-19 -10 -35 -14q-17 -4 -23 4l-3 3q-12 -6 -28.5 3.5t-21.5 10.5q-3 1 -15 -17q-1 -1 -3 -5t-3 -4.5t-4 -0.5t-7 3q-3 2 -8 -1.5t-8 -3.5q-12 16 -9 27t25 34q-37 49 -39 82q-1 38 27 89
q-15 6 -28 21q-21 22 4 28q7 13 30 -9q2 -2 11 -8t10 -7q34 25 52 27zM190 372q-1 0 -1 -1v-2q2 -2 6 -3.5t5 -2.5q1 0 3 2q-8 6 -13 7zM163 357q-25 8 -46 -17q-2 -3 -7.5 -9.5t-8.5 -10.5q-14 -14 -11 -28q2 -18 4 -26q1 -5 1 -14.5t1 -13.5q2 -15 13.5 -26.5t25.5 -14.5
q5 0 8 2q38 18 61 35q17 16 15 29q-6 38 -16 51l-11 16t-8 12q-6 10 -21 15z" />
    </font>
</defs>
</svg>
